<svg xmlns="http://www.w3.org/2000/svg" width="32" height="45" version="1.0" viewBox="0 0 905 1280"><path fill="#FF9C08" d="M320.7 1.5c-11.3 2.2-20.9 6.2-35.6 15.1-24.3 14.6-42.6 28.7-67.6 52.2-14.8 13.9-42.5 42.9-42.5 44.4 0 .4 1.7.8 3.8.8 3.6 0 3.4.2-5.1 4.8-11.8 6.3-25.8 16.6-23.4 17 1 .2 7.5-1.7 14.4-4.3 6.9-2.5 12.7-4.4 12.9-4.2.2.2-9.6 9.8-21.8 21.3-36.5 34.2-40.3 38.5-54.5 62.3-7.6 12.7-27 50.8-34.3 67.6-2.9 6.6-8.4 19.2-12.3 28-3.9 8.8-7.4 17.8-7.7 20-.4 2.2-3.9 17.5-7.8 34-9.4 39.9-10.1 42.9-9.7 43.4.2.2 2.7-1.4 5.6-3.5 4-2.9 5-3.3 4.6-1.8-3.7 12-6.8 29.4-5.3 29.4.3 0 3.8-3.1 7.7-7l7.1-7-.7 4.3c-.4 2.3-1.7 9.6-3 16.2-4.7 24.4-6.5 40.5-6.5 59.4 0 22.1 4 39.6 12.1 53.3 3.4 5.8 3.9 7.4 3.9 13 .1 13.8 5 38.7 11 54.7 1.7 4.6 5.2 12.5 7.7 17.4 6 11.6 19.6 30.2 16.9 23-1-2.6-5.6-26.2-5.6-28.6.1-3.2 4.8 5.3 22.8 41.3 21.9 43.8 36.2 74.1 36.2 76.6 0 2.9-1.7 4.1-7.1 4.9-7.1 1.1-8 2-4.4 4.9 3.7 3.1 10.6 5.6 15.4 5.6 3.5.1 3.6.1 1.5 1.8-1.1.9-3.1 2.4-4.5 3.3l-2.4 1.7 5.8 6c9.8 10.3 7.1 11.6-10.8 5.4-6-2.2-13.4-4.9-16.4-6.1l-5.3-2.2 2.2 3.8c9.7 16.5 24.5 26.7 44.3 30.3 3.7.7 6.9 1.6 7.2 2 .5.8-13.1 6.4-18.2 7.5-1.8.3-3.3 1-3.3 1.4 0 .5 4.7 2.5 10.5 4.6 5.8 2 10.5 4 10.5 4.4 0 1.3-5.4 6-8 6.9l-2.5 1 3.7 1.6c2.1.9 4.8 1.6 6 1.7 1.3 0 3.2.4 4.2.8 1.6.6 1 1.1-3 2.8-8.3 3.6-16.5 5.6-25.4 6.2l-8.5.6 10.3 3.4c20.8 6.8 32.5 18.9 36.8 38.2 1.8 7.9 4.2 10.5 10.6 11.5 4.5.8 7.3 3.8 8.9 9.7l1 4 5.8-.6c13.5-1.2 22.8-11.3 24.6-27 .4-3.1 1-5.7 1.4-5.7.4 0 4.6 4.8 9.3 10.8 4.7 5.9 12.4 15 17 20.3l8.5 9.6-.5 11.4c-.2 6.3-.6 11.6-.8 11.8-.2.2-3.2-1.5-6.7-3.7-19.8-12.5-33.3-8.5-40.1 12-.9 2.6-2.7 12.3-4.1 21.5-7 46.4-12.3 77.8-13.9 83.3l-1.3 4.5-12.8 5.2c-7 2.9-13.3 5.9-13.9 6.8-2.3 3.1-117.7 60-161.3 79.6L0 1158.5V1280h903v-65.3c0-49.5.3-65.6 1.2-66.5.8-.8.9-1.5.1-2.3-.5-.5-10-4.4-20.9-8.5-42.1-16-89.6-33.9-120.1-45.5-10.4-3.9-25.2-9.5-33-12.5-7.9-2.9-15.1-5.8-16.1-6.3-2.4-1.3-7.7-11.4-14.1-26.9-8.4-20.5-15.8-44.8-20.1-66.2-1.2-5.8-3-13.3-4.1-16.7-2.4-7.4-8.4-14.7-13.5-16.3-4.7-1.6-12.6-.5-19.2 2.5l-5.2 2.4v-2.2c0-1.2-.5-14.4-1.1-29.3l-1.2-27.1 7.3-8.8c6.9-8.5 21.2-29.5 26-38.2 1.3-2.4 2.5-4.1 2.6-4 .2.2 1.7 6.9 3.4 15 1.7 8.2 4.5 18.9 6.2 24 3.5 10.5 11.2 26.5 13.2 27.3 2.9 1.1 17.1-5.6 22.3-10.5 7.5-7.2 10.1-13.6 11.3-28.3 1.7-21.1 6.2-32.4 16.8-42.6 6.5-6.3 6.6-6.4 5.3-9.5-.8-1.8-1.6-4.7-1.8-6.5-.4-2.7-.2-3.2 1.5-3.2 2.9 0 11.4-1.9 13-2.9 1-.6.5-2-2.2-5.9-8.3-12.4-6.4-25 5.8-39.1 3.7-4.2 6.5-8.9 8.6-14.2 5.8-14.2 15.2-25.6 26.5-32 3-1.7 5.5-3.2 5.5-3.4 0-.1-.7-1.6-1.5-3.1-.8-1.6-1.5-4.7-1.5-6.9v-3.9l4.8 5.1c6.3 6.9 11.7 9.3 21.2 9.3 7.8 0 12-.7 12-2 0-.4-2.1-1.5-4.7-2.5-12.2-4.6-22.8-13.8-30.6-26.7-4-6.7-4.7-9-1.9-6.5 1.2 1.1 3.6 1.7 6.6 1.7 4 0 4.7-.3 4.3-1.8-.3-.9-.8-4-1.1-6.7-.5-4.2-.4-4.7.7-3.1 2.7 4.2 7.2 8.8 9.8 10.2l2.9 1.5v-5c0-3-1.2-8.1-3-13.1-3.9-10.6-3.9-11.5.3-9 3.2 2 9.2 2.6 11.4 1.2.8-.5 0-1.5-2.3-3.1-7.1-4.9-14.2-15.9-17-26.4-2.9-10.9-1.3-16.5 7.6-27.1 5.9-7 11.9-18.2 15.4-28.6 1.3-4.1 4.3-17.9 6.6-30.5 2.3-12.7 5.1-27.5 6.1-33 3.6-17.7 4.8-28.7 4.9-42 0-14.8-1.3-24.2-6.4-47-2-8.8-4.5-21.4-5.7-28-3.8-21.9-34.1-123.3-42.5-142.2-1.3-3.1-2.4-5.8-2.4-6 0-.3 2.3 1.4 5 3.7 2.8 2.3 5 4 5 3.7 0-1.2-19.9-48.7-26.6-63.6-14.7-32.5-29.6-57.3-41.9-69.7-9-9-30.6-23.3-49-32.6l-14-7 6 .7c9.9 1.1 21.6 4.4 28.8 7.9l6.7 3.4-8-8.5c-4.5-4.7-7.9-8.7-7.7-9 .7-.6 7.8 3.7 13 7.9 2.6 2.2 4.7 3.6 4.7 3.3 0-.4-1.3-2.5-2.9-4.8-15.2-22.1-70.6-48.4-125.9-59.7-42.8-8.7-74.9-9.1-113.2-1.4-5.8 1.1-13.4 1.7-24 1.7-13.4 0-18.2-.5-35.5-3.6C394 2.7 377.3 1 351 .5c-17.3-.4-24.3-.1-30.3 1z"/></svg>