<svg version="1.0" xmlns="http://www.w3.org/2000/svg" width="72" height="40" viewBox="0 0 1280 711"><g fill="#FF9C08"><path d="M804.3 144.9c-13.5 6.3-4.3 22 25.6 43.5 19.3 13.8 56.6 33.8 82.6 44.2 6.6 2.6 12.4 5.1 13 5.6.5.4-38.5.8-86.6.8-48.2 0-87.8.2-88 .4-.2.2-.3 18.9-.1 41.5l.2 41.1h111c110.2 0 111 0 111 2s-.8 2-101.7 2.2l-101.8.3-.3 160.4c-.1 88.3.2 160.9.6 161.3.9.9 461.6 1.3 463 .4.4-.2.6-72.9.4-161.5L1233 326h-98c-97.3 0-98 0-98-2s.7-2 108-2h108v-83h-80.2c-44.1 0-79.8-.4-79.2-.8.5-.5 5.6-2.8 11.4-5.2 32.1-13.3 68.4-34.4 88.7-51.4 13.7-11.4 18.6-18.6 18.1-25.9-.2-3.4-.9-4.5-3.5-6.3-8.1-5.4-28.9-3.3-59.8 6.1-18.5 5.6-37.9 13.6-62 25.5-33.8 16.7-55.6 30.6-71.5 45.7l-8.6 8.2-5.9-6.6c-31.6-35.3-133.3-82.9-181.5-85-9-.3-11.1-.1-14.7 1.6zm30 7.2c39.8 8 109.5 40.2 146.1 67.3 8.4 6.3 18.6 16.2 18.6 18.3 0 1.2-3.8 1.4-25.2 1.1l-25.3-.3-12.8-4.8c-55.6-20.8-110.6-52.2-126.4-72.1-3.6-4.5-4.3-8.9-1.5-10.5 2.8-1.7 15.7-1.2 26.5 1zm367.2 1.9c5.6 2.1 4.1 7.2-4.9 16-3.3 3.3-9.7 8.7-14.1 12-20 14.8-61.4 36.8-94.1 49.8l-18.1 7.2-28.8-.2-28.8-.3 4.9-4.9c16.2-16 51.6-37.3 91.6-55 41.6-18.3 81-28.9 92.3-24.6zM1022 324c0 1.9-.7 2-17 2s-17-.1-17-2 .7-2 17-2 17 .1 17 2zM390 259.8c-2.9 1.4-3.6 2.3-3.8 5.4-.4 4.7 1.5 8.4 7.6 14.6 13.6 14 45.3 33.1 76.7 46.3l12.9 5.4-67.2.3-67.2.2v64l85.7.2c67.4.2 85.7.6 86.1 1.5.3 1-15.6 1.3-77.1 1.3-42.7 0-78.2.3-79.1.6-1.4.6-1.6 12.5-1.6 124.4 0 68.2.4 124.1.8 124.4.8.5 147.4.8 282 .7l76.2-.1-.2-124.7-.3-124.8-75.2-.3c-66-.2-75.3-.4-75.3-1.7 0-1.3 10.1-1.5 83.5-1.5H738l-.2-31.8-.3-31.7-61.4-.5-61.4-.5 5.9-2.4c12.9-5.2 42.4-20.9 55-29.3 22.4-14.8 32.9-27 29.6-34.3-1.8-3.9-5.4-4.8-17.7-4.2-8.4.4-14 1.4-23.9 4.1-40.2 11.2-92.9 38.8-112.4 58.8l-4.3 4.5-8.2-8.2c-32.8-32.6-127.6-71.3-148.7-60.7zm18.1 4.6c37.8 6.1 109.8 41.1 129.5 62.8l3.8 4.3-18.4.3c-21 .3-22.4 0-47.5-10.6-43-18-83.5-44.4-83.5-54.3 0-1.5 3.6-3.6 6.5-3.8.6-.1 4.9.5 9.6 1.3zm291.1 3.4c3.2 3.2-7.6 14.4-24.2 25.4-18.1 11.8-43.4 24.7-66.4 33.7l-12.9 5.1h-21.4c-12 0-21.3-.4-21.3-.9 0-1.1 9.5-9.3 16.5-14.3 28.1-20 81.1-43.5 112-49.7 6.3-1.2 16.2-.8 17.7.7zM558 397.5c0 1.3-2.1 1.5-12.5 1.5s-12.5-.2-12.5-1.5 2.1-1.5 12.5-1.5 12.5.2 12.5 1.5zM58.5 346.7c-11.6 3.1-4 15.2 19 30.5 8.3 5.5 33.1 18.4 45 23.5l5 2.1-51.2.1-51.3.1v50h66c43.3 0 66 .3 66 1s-20.8 1-60.5 1H36l.2 95.7.3 95.8h275v-191l-58.2-.3c-37.4-.1-58.3-.6-58.3-1.2s22.9-1.1 64.3-1.2l64.2-.3v-49l-46.8-.5-46.8-.5 6.8-2.9c28.2-11.9 59.7-33.4 61.9-42.1 1.2-4.7-.3-7.3-4.8-8.5-19-5.2-85.2 22.3-111.2 46.1l-5.7 5.2-5.9-5.9c-16.4-16-58.2-37.5-87.9-45-9.6-2.5-21-3.7-24.6-2.7zm21.7 6.8c20.7 5.3 52.5 19.7 71.8 32.3 10.6 7 20 14.6 20 16.3 0 .5-6.4.9-14.5.9H143l-10.7-4c-36.4-13.7-76.8-39.1-73.9-46.5.9-2.3 11-1.9 21.8 1zm213.6 2.1c.5 3.4-11.8 13.9-26.5 22.6-13.7 8.2-27.9 15.2-43 21.2L215 403h-16.6c-9.1 0-16.4-.4-16.2-.8.7-1.8 8.9-8.3 17.8-14.2 11.2-7.3 39.4-21.3 53.3-26.5 16.1-5.9 26.5-8.4 33.7-8.2 5.8.2 6.5.4 6.8 2.3zM186 454c0 .6-4 1-10 1s-10-.4-10-1 4-1 10-1 10 .4 10 1z"/></g></svg>