<svg width="306" height="32" fill="none" xmlns="http://www.w3.org/2000/svg"><path d="M0 14.85h120v2H0v-2ZM169.972 6.346c-1.597-3.53-4.903-5.93-8.593-6.293-2.992-.271-5.938.498-8.3 2.196-.023.023-.045.045-.068.045-.022-.022-.045-.045-.067-.045-2.385-1.698-5.331-2.467-8.301-2.173-3.711.34-6.996 2.74-8.615 6.27-1.732 3.78-1.26 8.127 1.304 12.224 3.734 5.977 10.123 10.232 14.824 12.745l.743.362v.023h.045l.9-.362c4.701-2.513 11.112-6.769 14.824-12.745 2.564-4.12 3.036-8.466 1.304-12.247Zm-4.364 10.074c-3.081 4.957-8.435 8.647-12.642 11.001v-.067c-4.206-2.332-9.493-6.022-12.552-10.934-1.822-2.92-2.182-5.886-1.057-8.376 1.035-2.263 3.239-3.87 5.601-4.097 1.957-.181 3.802.249 5.331 1.132a11.46 11.46 0 0 0-1.844 4.3c-.608 2.876-.135 5.683 1.214 7.471.878 1.154 2.07 1.788 3.33 1.81h.045c1.259 0 2.452-.656 3.329-1.81 1.372-1.788 1.822-4.595 1.215-7.47a11.646 11.646 0 0 0-1.125-3.101 7.787 7.787 0 0 0-2.834 2.716c.157.385.27.815.359 1.245.428 2.06 0 3.554-.494 4.188-.068.113-.27.34-.473.34-.202 0-.382-.25-.472-.34-.495-.657-.922-2.15-.495-4.188.832-4.052 4.634-6.678 8.998-6.27 2.384.226 4.589 1.833 5.601 4.097 1.147 2.467.765 5.433-1.035 8.353ZM186 14.85h120v2H186v-2Z" fill="#FF9C08"/></svg>