<svg version="1.0" xmlns="http://www.w3.org/2000/svg" width="32" height="32" viewBox="0 0 1280 1280"><g fill="#FF9C08"><path d="M609.5 121.1c-70 5.8-140.3 38.8-200.5 94.1-27.3 25.1-42.5 42.9-63.6 74.8-25.1 37.7-28.4 43.4-28.4 48.1 0 2.4.3 5.5.7 6.8.6 2.2.9 2.3 7.7 1.9 3.9-.3 8.3-1.1 9.9-1.8 3.3-1.6 6.2-6.2 7.1-11.3 1.6-8.8 3.5-11.1 40.1-47.8 45.5-45.7 60.8-58.8 86.7-74.5 60.1-36.4 135.1-45.5 197.8-23.8 32.6 11.2 69 33 102 60.9 15.6 13.2 20 18.6 20 24.5 0 3.7-3.8 9.6-8.7 13.7-13.6 11.2-29.7 22.6-33.5 23.8-4.7 1.4-4.6 1.1-2.7 9.8.7 3 1.9 5.3 3.3 6.2 1.9 1.2 13.9 3.7 42.1 8.6 22.5 4 49.7 9.6 74 15.4 3.3.8 17.7 4.2 32 7.5 27.5 6.4 34.2 8 54.8 12.9 7.1 1.7 13.6 3.1 14.6 3.1s3.5-1.5 5.5-3.3l3.8-3.2-4.7-17c-5-18.3-8.8-28.8-15.5-43-17.8-38.1-28.8-72.7-40.5-128-3.3-15.8-5.9-19.4-13.1-18.1-3.2.6-5.4 2.4-12.9 10.4-22.9 24.2-27.8 28.8-32.7 30.1-8.8 2.5-12.7.9-33.3-13.4-46.6-32.2-84.2-50.2-126.7-60.5-25.9-6.3-60-9-85.3-6.9zM1026 400.6c-35 3.9-59.5 12.8-86 31.2-41.3 28.7-70.2 75.2-76.6 123.2-1.8 13.5-1.8 35.6 0 49 1.4 10.1 6.6 32.2 8.5 35.8.5.9 2.1 4.8 3.6 8.7 7.9 20.9 22.6 42.7 40.2 59.7 34.5 33.1 80.8 51.8 128.3 51.8 41.5 0 82-15.6 114.9-44.1 31.7-27.5 51.4-60.7 59.8-100.9 2.3-11 2.7-14.9 2.7-32.5.1-12.1-.4-22.4-1.1-26-.7-3.3-1.9-9.6-2.8-14-4.6-24.5-20.1-57.5-35.9-76.5-11.8-14.1-27-27.7-41.1-36.8-12.9-8.3-31.7-17-45-20.7-3.3-1-8-2.3-10.5-3.1-11.9-3.5-46.1-6.3-59-4.8zM283 416.4c-12.5 1.7-21.6 3.7-32.5 7.3-52.8 17.4-97.8 62.2-115.8 115.3-7.9 23.3-9.1 31.1-9 58 .1 25.7 2.5 40.3 9.8 61 20.6 57.7 66.6 99.2 128.5 115.8 18.6 5 49.8 6.7 70.5 3.7 24-3.4 47.9-12.6 71-27.3C432 733.3 457.6 705 471 678c11.6-23.6 19-54.1 19-78.5 0-27.7-8.1-60.8-21.2-86.9-25.1-50-75.7-86.3-132.3-95.2-14-2.1-40.6-2.6-53.5-1zM338.5 812.8c-6 3.7-6 3.4-1.1 22.4 4.8 18.8 7.7 26.9 16.1 44.8 16.8 36.1 28.5 73 38.5 121.4 4.1 19.8 5.6 22.6 12 22.6 5.2 0 9.6-3.5 22.7-18.1 17.8-20 22.1-23.3 30.8-23.3 6.2 0 8.4 1.2 37.2 20.5 43 28.9 74.4 43.5 115.6 54 20.7 5.2 35 7 60.3 7.6 20.2.5 25.1.3 39.5-1.7 25.6-3.5 46.1-8.9 71.3-18.7 47-18.4 90.7-48 131.6-89.3 22.2-22.3 30.1-32.5 54.4-69.3 23.4-35.4 23.1-34.8 22.2-42-.8-6.5-.9-6.5-12-4.7-7 1.1-11.1 4.5-12.6 10.2-.6 2.1-1.5 5.7-2.1 8-.9 3.8-5.3 8.6-36.2 39.7-19.4 19.4-40.8 40.3-47.7 46.4-27 23.8-57.1 41.9-87.5 52.7-10.3 3.6-33.5 9.3-44.6 11-20.5 3-52.1 3-71.4-.1-26-4.1-56.3-15.3-82.2-30.4-27.4-16.1-67-46.8-73.2-56.9-2.9-4.6-2.7-10.2.4-14.8 1.4-2.1 8.3-8.2 15.3-13.6 18.8-14.6 22.7-17.2 25.6-17.2 3 0 3.1-.9 1.5-7.8-1.6-6.3-3.2-7.9-9.3-9.1-5.6-1.1-27.5-5.2-54.1-10.1-16.1-3-40.7-8.2-54-11.5-10.9-2.7-103.1-24.5-103.6-24.5-.2 0-1.7.8-3.4 1.8z"/></g></svg>