<svg width="383" height="60" fill="none" xmlns="http://www.w3.org/2000/svg"><path d="M32.4.16c.533 0 .96.24 1.28.72.373.48.56 1.093.56 1.84 0 .8-.187 1.44-.56 1.92a1.52 1.52 0 0 1-1.28.64c-.64 0-1.2.24-1.68.72-.427.48-.64 1.2-.64 2.16v34.4c0 4.693-.907 8.32-2.72 10.88-1.813 2.507-4.347 3.76-7.6 3.76-1.653 0-3.6-.373-5.84-1.12-1.92-.64-3.413-.96-4.48-.96-.587 0-1.093.107-1.52.32-.427.16-.987.48-1.68.96-.32.267-.667.48-1.04.64-.373.213-.72.32-1.04.32-1.227 0-2.24-.613-3.04-1.84C.373 54.24 0 52.587 0 50.56c0-2.4.64-4.32 1.92-5.76 1.333-1.493 3.067-2.24 5.2-2.24 2.187 0 4.187.507 6 1.52 1.867.96 3.84 2.293 5.92 4 .8.64 1.547 1.2 2.24 1.68.693.427 1.227.64 1.6.64.853 0 1.52-.293 2-.88.533-.587.8-1.387.8-2.4 0-1.44-.747-2.907-2.24-4.4-1.493-1.493-3.307-2.48-5.44-2.96-1.547-.267-2.32-1.093-2.32-2.48V8.16c0-.96-.24-1.68-.72-2.16-.427-.48-.96-.72-1.6-.72-.533 0-.987-.213-1.36-.64-.32-.427-.48-1.067-.48-1.92 0-.747.16-1.36.48-1.84.373-.48.827-.72 1.36-.72.8 0 1.493.027 2.08.08a46.21 46.21 0 0 1 1.52.16c1.76.267 3.733.4 5.92.4S27.04.667 28.8.4a46.21 46.21 0 0 1 1.52-.16C30.907.187 31.6.16 32.4.16ZM53.577 57.28c-8.48 0-12.72-4.453-12.72-13.36V24c0-.907-.213-1.6-.64-2.08-.427-.533-.987-.8-1.68-.8-.587 0-1.04-.24-1.36-.72-.32-.48-.48-1.067-.48-1.76 0-.747.16-1.36.48-1.84.32-.533.773-.8 1.36-.8.693 0 1.386.16 2.08.48.693.267 1.52.72 2.48 1.36 1.227.747 2.24 1.307 3.04 1.68.853.32 1.786.48 2.8.48 2.507 0 4.187.96 5.04 2.88.853 1.867 1.28 4.8 1.28 8.8v11.28c0 1.653.373 3.467 1.12 5.44.746 1.92 1.973 2.88 3.68 2.88 2.186 0 3.92-1.12 5.2-3.36 1.333-2.293 2-4.853 2-7.68V24c0-.907-.214-1.6-.64-2.08-.427-.533-.987-.8-1.68-.8-.587 0-1.04-.24-1.36-.72-.32-.48-.48-1.067-.48-1.76 0-.747.16-1.36.48-1.84.32-.533.773-.8 1.36-.8.693 0 1.386.16 2.08.48.693.267 1.52.72 2.48 1.36 1.227.747 2.24 1.307 3.04 1.68.853.32 1.786.48 2.8.48 2.507 0 4.186.96 5.04 2.88.853 1.867 1.28 4.8 1.28 8.8v16.24c0 1.013.213 1.76.64 2.24.48.48 1.04.72 1.68.72.533 0 .96.213 1.28.64.373.427.56 1.04.56 1.84s-.16 1.44-.48 1.92c-.32.48-.773.72-1.36.72-.907 0-1.707-.133-2.4-.4-.64-.32-1.44-.8-2.4-1.44-1.227-.747-2.24-1.28-3.04-1.6-.747-.32-1.734-.48-2.96-.48-1.174 0-2.4.187-3.68.56-1.28.373-2.907.96-4.88 1.76-2.187.907-4.134 1.6-5.84 2.08-1.707.533-3.44.8-5.2.8ZM104.278 57.36c-3.893 0-6.987-1.36-9.28-4.08-2.24-2.72-3.36-6.293-3.36-10.72v-10.4c0-.96.32-2 .96-3.12 1.547-2.56 2.32-4.56 2.32-6 0-1.547-.773-2.373-2.32-2.48l-2 .16c-1.92.213-3.12.32-3.6.32-1.547 0-2.32-.853-2.32-2.56s.694-2.56 2.08-2.56c.48 0 .907.027 1.28.08.427.053.72.08.88.08 3.307.107 6.133-.56 8.48-2 2.347-1.44 3.52-3.973 3.52-7.6V4.72c0-.533.24-.96.72-1.28.48-.373 1.093-.56 1.84-.56.747 0 1.36.187 1.84.56.48.32.72.773.72 1.36v11.76h.08c1.547 0 3.173-.133 4.88-.4.64-.16 1.227-.24 1.76-.24.853 0 1.467.213 1.84.64.373.373.56 1.013.56 1.92s-.187 1.573-.56 2c-.373.373-.987.56-1.84.56-.533 0-1.12-.08-1.76-.24a31.655 31.655 0 0 0-4.88-.4h-.08v22.16c0 1.707.373 3.093 1.12 4.16.8 1.067 1.867 1.6 3.2 1.6.693 0 1.387-.187 2.08-.56.693-.373 1.173-.56 1.44-.56.64 0 .96.56.96 1.68 0 2.4-1.013 4.427-3.04 6.08-1.973 1.6-4.48 2.4-7.52 2.4ZM138.036 57.28c-3.84 0-7.386-.96-10.64-2.88a21.646 21.646 0 0 1-7.76-7.76c-1.92-3.253-2.88-6.827-2.88-10.72 0-3.787.934-7.307 2.8-10.56 1.867-3.253 4.347-5.84 7.44-7.76 3.094-1.92 6.374-2.88 9.84-2.88 3.36 0 6.347.533 8.96 1.6 2.667 1.067 4.747 2.533 6.24 4.4 1.494 1.867 2.24 3.947 2.24 6.24 0 2.187-.88 4.16-2.64 5.92-1.76 1.707-4.266 3.067-7.52 4.08-3.2.96-6.906 1.44-11.12 1.44-.64 0-.96.373-.96 1.12 0 .427.107.907.32 1.44 1.067 2.613 2.56 4.693 4.48 6.24 1.974 1.493 4.16 2.24 6.56 2.24 3.84 0 6.774-1.627 8.8-4.88.054-.053.16-.24.32-.56.214-.32.48-.587.8-.8.374-.213.8-.32 1.28-.32.374 0 .667.027.88.08 1.174.267 1.76.8 1.76 1.6 0 .587-.266 1.28-.8 2.08-1.813 3.253-4.373 5.84-7.68 7.76-3.253 1.92-6.826 2.88-10.72 2.88Zm-5.04-23.44c1.6 0 2.934-.587 4-1.76 1.12-1.173 1.947-2.613 2.48-4.32.587-1.76.88-3.493.88-5.2 0-1.28-.32-2.24-.96-2.88-.64-.64-1.493-.96-2.56-.96-2.026 0-3.6 1.227-4.72 3.68-1.066 2.453-1.546 5.44-1.44 8.96 0 .747.187 1.36.56 1.84.427.427 1.014.64 1.76.64ZM257.2 0c.533 0 .96.24 1.28.72.373.48.56 1.093.56 1.84 0 .8-.187 1.44-.56 1.92a1.52 1.52 0 0 1-1.28.64c-.64 0-1.2.24-1.68.72-.427.48-.64 1.2-.64 2.16v34.4c0 4.693-.907 8.32-2.72 10.88-1.813 2.507-4.347 3.76-7.6 3.76-1.653 0-3.6-.373-5.84-1.12-1.92-.64-3.413-.96-4.48-.96-.587 0-1.093.107-1.52.32-.427.16-.987.48-1.68.96-.32.267-.667.48-1.04.64-.373.213-.72.32-1.04.32-1.227 0-2.24-.613-3.04-1.84-.747-1.28-1.12-2.933-1.12-4.96 0-2.4.64-4.32 1.92-5.76 1.333-1.493 3.067-2.24 5.2-2.24 2.187 0 4.187.507 6 1.52 1.867.96 3.84 2.293 5.92 4 .8.64 1.547 1.2 2.24 1.68.693.427 1.227.64 1.6.64.853 0 1.52-.293 2-.88.533-.587.8-1.387.8-2.4 0-1.44-.747-2.907-2.24-4.4-1.493-1.493-3.307-2.48-5.44-2.96-1.547-.267-2.32-1.093-2.32-2.48V8c0-.96-.24-1.68-.72-2.16-.427-.48-.96-.72-1.6-.72-.533 0-.987-.213-1.36-.64-.32-.427-.48-1.067-.48-1.92 0-.747.16-1.36.48-1.84.373-.48.827-.72 1.36-.72.8 0 1.493.027 2.08.08a46.21 46.21 0 0 1 1.52.16c1.76.267 3.733.4 5.92.4s4.16-.133 5.92-.4a46.21 46.21 0 0 1 1.52-.16c.587-.053 1.28-.08 2.08-.08ZM278.377 57.12c-8.48 0-12.72-4.453-12.72-13.36V23.84c0-.907-.213-1.6-.64-2.08-.427-.533-.987-.8-1.68-.8-.587 0-1.04-.24-1.36-.72-.32-.48-.48-1.067-.48-1.76 0-.747.16-1.36.48-1.84.32-.533.773-.8 1.36-.8.693 0 1.387.16 2.08.48.693.267 1.52.72 2.48 1.36 1.227.747 2.24 1.307 3.04 1.68.853.32 1.787.48 2.8.48 2.507 0 4.187.96 5.04 2.88.853 1.867 1.28 4.8 1.28 8.8V42.8c0 1.653.373 3.467 1.12 5.44.747 1.92 1.973 2.88 3.68 2.88 2.187 0 3.92-1.12 5.2-3.36 1.333-2.293 2-4.853 2-7.68V23.84c0-.907-.213-1.6-.64-2.08-.427-.533-.987-.8-1.68-.8-.587 0-1.04-.24-1.36-.72-.32-.48-.48-1.067-.48-1.76 0-.747.16-1.36.48-1.84.32-.533.773-.8 1.36-.8.693 0 1.387.16 2.08.48.693.267 1.52.72 2.48 1.36 1.227.747 2.24 1.307 3.04 1.68.853.32 1.787.48 2.8.48 2.507 0 4.187.96 5.04 2.88.853 1.867 1.28 4.8 1.28 8.8v16.24c0 1.013.213 1.76.64 2.24.48.48 1.04.72 1.68.72.533 0 .96.213 1.28.64.373.427.56 1.04.56 1.84s-.16 1.44-.48 1.92c-.32.48-.773.72-1.36.72-.907 0-1.707-.133-2.4-.4-.64-.32-1.44-.8-2.4-1.44-1.227-.747-2.24-1.28-3.04-1.6-.747-.32-1.733-.48-2.96-.48-1.173 0-2.4.187-3.68.56-1.28.373-2.907.96-4.88 1.76-2.187.907-4.133 1.6-5.84 2.08-1.707.533-3.44.8-5.2.8ZM329.078 57.2c-3.893 0-6.987-1.36-9.28-4.08-2.24-2.72-3.36-6.293-3.36-10.72V32c0-.96.32-2 .96-3.12 1.547-2.56 2.32-4.56 2.32-6 0-1.547-.773-2.373-2.32-2.48l-2 .16c-1.92.213-3.12.32-3.6.32-1.547 0-2.32-.853-2.32-2.56s.694-2.56 2.08-2.56c.48 0 .907.027 1.28.08.427.053.72.08.88.08 3.307.107 6.134-.56 8.48-2 2.347-1.44 3.52-3.973 3.52-7.6V4.56c0-.533.24-.96.72-1.28.48-.373 1.093-.56 1.84-.56.747 0 1.36.187 1.84.56.48.32.72.773.72 1.36V16.4h.08c1.547 0 3.173-.133 4.88-.4.64-.16 1.227-.24 1.76-.24.853 0 1.467.213 1.84.64.374.373.56 1.013.56 1.92s-.186 1.573-.56 2c-.373.373-.987.56-1.84.56-.533 0-1.12-.08-1.76-.24a31.643 31.643 0 0 0-4.88-.4h-.08V42.4c0 1.707.374 3.093 1.12 4.16.8 1.067 1.867 1.6 3.2 1.6.694 0 1.387-.187 2.08-.56.693-.373 1.173-.56 1.44-.56.64 0 .96.56.96 1.68 0 2.4-1.013 4.427-3.04 6.08-1.973 1.6-4.48 2.4-7.52 2.4ZM362.836 57.12c-3.84 0-7.386-.96-10.64-2.88a21.647 21.647 0 0 1-7.76-7.76c-1.92-3.253-2.88-6.827-2.88-10.72 0-3.787.934-7.307 2.8-10.56 1.867-3.253 4.347-5.84 7.44-7.76 3.094-1.92 6.374-2.88 9.84-2.88 3.36 0 6.347.533 8.96 1.6 2.667 1.067 4.747 2.533 6.24 4.4 1.494 1.867 2.24 3.947 2.24 6.24 0 2.187-.88 4.16-2.64 5.92-1.76 1.707-4.266 3.067-7.52 4.08-3.2.96-6.906 1.44-11.12 1.44-.64 0-.96.373-.96 1.12 0 .427.107.907.32 1.44 1.067 2.613 2.56 4.693 4.48 6.24 1.974 1.493 4.16 2.24 6.56 2.24 3.84 0 6.774-1.627 8.8-4.88.054-.053.16-.24.32-.56.214-.32.48-.587.8-.8.374-.213.8-.32 1.28-.32.374 0 .667.027.88.08 1.174.267 1.76.8 1.76 1.6 0 .587-.266 1.28-.8 2.08-1.813 3.253-4.373 5.84-7.68 7.76-3.253 1.92-6.826 2.88-10.72 2.88Zm-5.04-23.44c1.6 0 2.934-.587 4-1.76 1.12-1.173 1.947-2.613 2.48-4.32.587-1.76.88-3.493.88-5.2 0-1.28-.32-2.24-.96-2.88-.64-.64-1.493-.96-2.56-.96-2.026 0-3.6 1.227-4.72 3.68-1.066 2.453-1.546 5.44-1.44 8.96 0 .747.187 1.36.56 1.84.427.427 1.014.64 1.76.64Z" fill="#303C49"/><path d="M214.08 20.88c-1.493 0-2.693.827-3.6 2.48-.907 1.6-1.867 3.973-2.88 7.12 2.827 2.24 5.013 4.48 6.56 6.72 1.6 2.24 2.4 4.747 2.4 7.52 0 5.28-1.733 9.013-5.2 11.2-3.413 2.187-7.787 3.44-13.12 3.76-.747.107-1.36-.027-1.84-.4-.48-.32-.72-.747-.72-1.28s.16-1.013.48-1.44c.373-.373.853-.613 1.44-.72 4.747-1.12 7.12-3.467 7.12-7.04 0-2.187-1.093-4.373-3.28-6.56-2.72 4.64-5.627 8.133-8.72 10.48-3.093 2.347-6.907 3.52-11.44 3.52-3.733 0-7.013-.8-9.84-2.4-2.773-1.6-4.907-3.707-6.4-6.32-1.493-2.667-2.24-5.467-2.24-8.4 0-3.733 1.307-7.067 3.92-10 2.667-2.987 5.787-5.227 9.36-6.72-1.333-2.187-2-4.533-2-7.04 0-3.04.667-5.707 2-8 1.387-2.347 3.333-4.16 5.84-5.44C184.427.64 187.307 0 190.56 0c3.52 0 6.347.773 8.48 2.32 2.133 1.493 3.2 3.493 3.2 6 0 2.4-.96 4.64-2.88 6.72s-3.947 3.573-6.08 4.48a47.632 47.632 0 0 0 3.76 3.36c1.387 1.067 3.12 2.32 5.2 3.76l2.64 1.84c.747-2.133 1.12-4.213 1.12-6.24 0-3.573.72-6.373 2.16-8.4 1.44-2.027 3.28-3.04 5.52-3.04 1.813 0 3.227.507 4.24 1.52 1.013 1.013 1.52 2.16 1.52 3.44 0 1.547-.507 2.8-1.52 3.76-.96.907-2.24 1.36-3.84 1.36Zm-21.2-17.04c-1.333 0-2.427.48-3.28 1.44-.8.907-1.2 2.133-1.2 3.68 0 2.773.853 5.387 2.56 7.84 1.28-.213 2.507-1.067 3.68-2.56s1.76-3.253 1.76-5.28c0-1.493-.32-2.72-.96-3.68-.64-.96-1.493-1.44-2.56-1.44Zm-6.24 41.68c2.08 0 4.187-.507 6.32-1.52a20.603 20.603 0 0 0 5.76-4.08c-1.6-1.173-4.107-2.827-7.52-4.96-3.147-1.92-5.627-3.52-7.44-4.8a33.968 33.968 0 0 1-4.88-4.16c-.907 1.067-1.627 2.453-2.16 4.16a19.705 19.705 0 0 0-.72 5.36c0 2.987.96 5.413 2.88 7.28 1.973 1.813 4.56 2.72 7.76 2.72Z" fill="#FF9C08"/></svg>