<svg version="1.0" xmlns="http://www.w3.org/2000/svg" width="1685.333" height="1706.667" viewBox="0 0 1264 1280"><path d="M901 1.6c-15.9 4.3-27.5 15.4-32.2 30.7-3.2 10.7-2.3 22 2.5 31.8 2 4.1 4.2 8.1 4.8 8.9.9 1.3-10.6 22.2-62.2 112.5-34.8 61.1-63.4 111.2-63.6 111.4-.2.2-10.5-1.4-23-3.7-27.8-5.1-36.9-6.5-58.8-9.1-41.4-4.9-54-5.5-116.5-5.6-67.6 0-96.2 1.4-160.5 8.1-20.9 2.1-33.8 3.7-71.1 8.6-4.5.6-8.6 1.3-9.2 1.7-.8.5 1.9 22.7 3 23.6.2.1 4.4-.4 9.3-1.1 5-.8 16.3-2.3 25.2-3.5l16.1-2 42.4 4c23.2 2.3 49.1 4.8 57.3 5.6 8.3.8 57.1 5.6 108.5 10.5 144.9 13.9 146.5 14.1 147.2 14.3.4.1-6.3 12.3-14.8 27.2-15.3 26.8-15.5 27-18.7 26.9-1.7-.1-16.5-1.3-32.7-2.7-101.9-9-209.3-9-334.5-.2-45.6 3.3-115.1 9.8-116.2 10.9-.5.5 2.3 22.6 3 23.2.3.3 9.3-.3 19.9-1.5 48-5.2 41.3-5.2 122.8.9 29.4 2.1 84.8 6.2 123 9 151.8 11.2 186.1 13.8 186.6 14.2.2.3-6.4 12.5-14.8 27.3l-15.3 26.7-10.5-.6c-53.3-3.1-161.2-4-218-1.7-92.6 3.6-179.1 10.2-254.7 19.2-17.3 2.1-18.3 2.3-18.3 4.3.1 3.7 2.7 20.6 3.3 21.2.3.3 13.1-.8 28.4-2.5 15.3-1.7 31.8-3.5 36.7-4.1 8.4-.9 54.5 1 192.1 8 11.6.6 57.9 2.8 103 5 104.7 5 106.5 5.1 106.5 5.9 0 .3-3.9 7.3-8.5 15.6-6.6 11.7-8.5 15.8-8.5 18.9v3.8l-10.2-.6c-73.9-4.7-211.8-3-320.8 3.9-55.7 3.6-160.9 13.1-162.5 14.7-.5.4 2.3 22.9 2.9 23.5.2.2 3.9 0 8.2-.6 4.4-.6 19.6-2.2 33.9-3.7 21.1-2.1 28.6-2.5 39.5-1.9 19.7.9 86.2 5.3 86.5 5.7.2.2 4.7 9.1 10 19.8 16.6 33.2 45 84.9 62.2 112.9 5.2 8.5 6.1 10.7 5.1 11.7-.7.7-8.5 6.9-17.3 13.8-12 9.4-16.2 12.2-17 11.2-.5-.7-21.3-26.2-46.1-56.7-49.3-60.6-46.7-56.9-68.5-98.8-2.9-5.7-5.8-10.5-6.4-10.7-1.4-.5-20.5 9.5-20.5 10.8 0 2.1 23.7 45.8 44.3 81.8 16.5 28.7 34.3 58.2 50.9 83.9 6.6 10.1 11.5 18.7 11.1 19.1-4 3.5-20.5 16.1-20.7 15.8-.2-.1-24.8-32.7-54.8-72.3-54.5-72-54.5-72-61-86-3.6-7.7-8.5-18.5-10.9-24-2.3-5.5-4.4-10.1-4.4-10.3-.2-.2-21.6 8.7-22.3 9.3-.4.3 11.7 27.1 23.7 52.5 22.8 48.2 59.1 114.3 83.8 152.8 2.9 4.5 5.3 8.7 5.3 9.2s-6.6 6.1-14.8 12.4c-11.2 8.8-15 11.2-15.8 10.3-.6-.7-13-15.4-27.4-32.7-14.5-17.3-29.8-35.6-34-40.5-6.8-8.1-8.3-10.7-15.4-27-4.3-9.9-7.9-18.1-8-18.2-.1-.2-4.3 1.3-9.2 3.3-4.9 2-9.9 4-11.1 4.5-2.1.8-2.1 1 4.1 15.6 14.7 34.3 36.6 78.9 53.4 108.6l10 17.7-65.6 51.3c-36 28.1-66.5 52.5-67.6 54-1.5 2.1-2.1 4.3-2 8.2 0 4.5.5 6.1 3.1 9.2 3.8 4.8 10.6 6.9 16.2 4.9 2-.6 32.5-23.7 67.7-51.3l64.2-50 11 16.6c25.5 38.7 48.4 67 80.4 99.6 8.6 8.8 19.3 19.1 23.7 23 4.4 3.8 8 7.4 8 7.8.1.5-17.7 31.6-39.6 69-21.8 37.5-40.5 70.1-41.5 72.5-6.6 14.7 12.1 28 23.7 16.9 1.8-1.8 20.2-32.5 42-70.2 21.4-36.9 39-67.2 39.2-67.4.1-.2 2.9 1.7 6 4.2 12.3 9.9 41.4 31.7 53.8 40.3 20.5 14.3 57.1 37.2 57.9 36.3.6-.7 11.6-20 11.6-20.4 0-.1-3.3-2.2-7.2-4.5-22.9-13.5-19.7-10.4-59.4-57.6l-36.5-43.4 7.8-13.5c4.3-7.4 8.1-13.4 8.4-13.2.3.1 6.8 6.9 14.4 15.2 35.6 38.4 99.5 99.8 143.4 138l11.4 9.9 4.7-5.3c4.7-5.3 4.7-5.3 7.6-3.8 1.6.8 4.6 2.2 6.7 3.1l3.8 1.6 3.3-7.3c5.6-12.2 19-46.1 26.6-67.2 36.5-101.4 55.2-187.5 60-276 3-56.2-.6-137.6-8.5-195.9-.9-6-1.3-11.1-1-11.4.2-.3 15.9.5 34.7 1.7 18.9 1.2 39.3 2.5 45.3 2.9l11 .7.9 5.7c.8 4.8-1.7 30.3-14.3 151-8.3 79.9-15.4 146.2-15.6 147.3-.3 1.1-4.6 6.7-9.6 12.5-26.5 30.7-50 66-67.9 102.5-7.4 14.8-20.3 44.6-19.7 45.1.1.1 5.5 3.4 11.9 7.3l11.7 7.2 2.9-3.3c1.6-1.8 12-13.9 23.1-26.8 19.3-22.4 20.5-24.1 27.1-37 3.7-7.4 7.7-14.4 8.9-15.4 1.1-1.1 2.1-1.7 2.1-1.5 0 .2-2.7 25.4-5.9 55.9l-5.9 55.5-7.6 19.8c-4.1 10.8-7.7 20.1-8 20.6-.5.8 2.2 2.1 17.5 8.1l4.6 1.9 5.6-14.2c13.1-33.6 27-75 37.7-111.7 5.7-19.6 16.9-63.1 19.6-75.8 1.9-9.4.6-8.2 17.9-16.3 9.9-4.7 38.1-14.7 38.9-13.8.3.2-.4 10.3-1.5 22.4-1.1 12.1-4.2 47.4-6.9 78.5l-5 56.5-3.9 11.5c-2.1 6.3-5.5 16-7.5 21.5-2 5.4-3.5 10.4-3.2 11 .4 1.1 21.4 9.1 22 8.4 1-1.3 15.7-44.5 21.5-63.2 15.1-48.5 25.7-89.6 34.1-131.7 2.2-11.3 4.1-20.8 4.3-21.2.4-1.1 16.7 4.6 24.7 8.7 7.5 3.8 24.5 15 30.9 20.4l3.5 2.8-3.2 30.9-3.2 30.9-6.3 20.5c-3.5 11.3-7.4 23.8-8.7 27.7-1.3 4-2.2 7.4-1.9 7.6.7.6 20.5 6.7 21.7 6.7 1.5 0 14.8-42.2 25.3-80 2.3-8.5 4.5-15.8 4.9-16.3.8-.9 11.2 9.9 27.4 28.3 43.8 49.9 78 82.3 112.7 107 19.2 13.7 40.9 23.4 62.7 28.1 12.5 2.6 39.8 3.7 52.1 2 19.6-2.8 25.6-5 39.5-14.8l6.8-4.8 19.4-40c10.6-22 19.2-40.5 19.1-41.2-.1-.6-4.9-4.7-10.7-9.1l-10.5-8-6.9 6c-9.2 8-10.2 8.5-18.7 10.9-29.2 8.2-56.7 6.3-82.9-5.8-23.7-10.9-69.3-48.2-102.3-83.6l-10.8-11.6 4.1-12.6c13.5-41.7 24.3-88.9 29.7-130 2.6-20.1 2.6-80.9 0-104-2-18.1-6.9-48.5-9.5-59.1l-1.7-7.1-11.2 2.6c-6.1 1.4-11.4 2.8-11.7 3.1-.3.3.2 3.5 1 7 .8 3.6 2.6 12.6 3.8 20.1l2.3 13.6-10.7 116c-7.7 81.9-11.4 118-12.7 122.7l-1.8 6.7-14.5-15.7c-11.4-12.3-27.7-28.3-38.3-37.4-.4-.3.4-7.6 1.7-16.1 5.8-36.3 7.5-56 8.3-92.9.6-31.3-.4-55.3-3.3-82.5-1.7-15.5-5.6-41.7-7.9-52.7-.9-3.9-1.4-7.3-1.2-7.4.2-.2 20.8.9 45.8 2.5l45.4 3 23.7 5.5c13 3 28.1 6.7 33.5 8 5.4 1.4 10.1 2.2 10.4 1.8.7-.8 6.1-22.3 5.7-22.7-1.2-1-76.4-18.3-115.3-26.5-108.6-22.8-236.2-42.6-323.2-50.2-7.9-.6-14.3-1.5-14.3-1.8 0-.4 2.6-2.7 5.8-5.1 3.1-2.5 14-11 24.2-19l18.5-14.4 55.5 2.6c30.5 1.5 65.6 3.2 78 3.8 12.4.6 54.9 2.7 94.5 4.6 39.6 1.9 74.9 3.7 78.5 4 3.6.3 23.1 3.9 43.4 8 20.4 4.1 37.1 7.3 37.3 7.2.5-.5 5.4-22.9 5.1-23.2-1.4-1.4-97.9-19.6-152.8-28.9-57.5-9.8-162.5-24.6-174.1-24.6-1.5 0-3-.4-3.3-.9-.3-.4 14.6-12.7 33.1-27.1l33.6-26.3 30.1 2.2c16.6 1.2 48.6 3.5 71.1 5.2l41 3 25 6.5c13.8 3.5 27.8 7.1 31.2 8.1 3.4.9 6.5 1.4 6.8 1.1.8-.8 6.7-21.9 6.2-22.4s-30.7-8.6-51.2-13.8c-22.5-5.6-70.5-16.6-93-21.2-9.3-1.9-17.9-3.8-18.9-4.3-1.6-.6 21.2-18.8 123.9-99.3l125.9-98.5 4.5 2.9c17.9 11.3 39.9 9.8 55.2-4 19.1-17.1 20-47 2-65-9-9-19.2-13.2-32.1-13.2-25.6 0-44.9 19.6-45 45.6v7.1l-90.7 71c-50 39-91.8 71.6-92.9 72.3-1.9 1.1-3.3.9-11-2.3-38.3-15.4-84.8-30.5-132.6-43l-8.8-2.3 61.3-107.2L903.5 90h8.1c16.1 0 29-6.7 37.5-19.3 10-15.1 10.5-33.6 1.3-48.8C940.3 5.1 919.6-3.4 901 1.6zM790 355c16.8 1.6 47.2 4.5 67.5 6.5 32 3 38 3.9 44.3 6.2 4 1.4 7.1 2.9 7 3.4-.2.4-15.6 12.7-34.3 27.4-30.5 23.9-34.3 26.6-37 26.1-1.6-.2-11.1-1.8-21-3.6-22.2-3.8-64.9-10.4-80.9-12.4-6.6-.9-12.1-1.8-12.3-2-.2-.1 4.9-9.5 11.3-20.7 20.7-36.3 19.2-33.9 22.2-33.9 1.5 0 16.4 1.3 33.2 3zm-46 107.1c23.9 1.7 43.7 3.3 43.9 3.5.3.3-.4 1.1-1.5 1.8-1 .8-15.9 12.4-33.1 25.8l-31.1 24.4-11.9-1.2c-6.5-.6-19.8-1.8-29.6-2.5-12.3-.9-17.7-1.6-17.5-2.4.2-.6 7-12.9 15.2-27.3l15-26.2 3.5.5c2 .3 23.2 1.9 47.1 3.6zm-93 104.8 7.5.6-23.9 18.7c-13.2 10.3-24.1 18.6-24.3 18.4-.2-.1 4.5-8.9 10.4-19.4l10.8-19.1 6 .1c3.3 0 9.4.3 13.5.7zM321.4 648c16.4 1 30 2 30.2 2.2.1.2 2.7 6.2 5.7 13.3 8.8 20.7 20.2 44.7 29.3 61.6 4.6 8.6 8.4 15.9 8.4 16.2 0 1.2-24.5 19.6-25.1 18.9-.3-.4-16.8-21-36.5-45.7-30.8-38.7-36.7-46.5-41.6-56-3.2-6.1-5.7-11.3-5.8-11.8 0-1 1.6-.9 35.4 1.3zm102.4 6.5c21.2 1.4 38.7 2.7 38.8 2.8 4.6 6.3 13.3 21.2 12.7 21.8-1.9 1.9-45.8 35.9-46.4 35.9-.3 0-10.9-12.4-23.5-27.6-20.6-24.8-26.2-32.3-26.4-34.7 0-1 2.4-.9 44.8 1.8zm76.2 5.1c0 .8-3.2 3.3-4.2 3.4-.4 0-1.2-.9-1.8-2-1-1.8-.8-2 2.5-2 1.9 0 3.5.3 3.5.6zm87.8 5.9c.3.2.9 4.2 1.5 8.7.8 7.5.5 11.9-3.6 43.7-2.6 19.4-4.8 35.6-5.1 35.9-1.1 1-28.9-24.2-43.9-39.8-11.5-12-23.3-25.8-22.6-26.4 1.4-1.1 24.3-18.9 28-21.7l4.5-3.5 20.4 1.3c11.2.8 20.6 1.6 20.8 1.8zM773.4 677c20.4 1.3 30.2 2.3 30.7 3.2.4.6 1.3 4.8 1.9 9.2 1.2 8.6 2.1-2.9-14.8 189.6l-2.7 30.5-5.5 1.8c-11.6 4-24.9 9.2-33.7 13.3-5.1 2.4-9.3 4-9.3 3.6 0-.4.7-8.4 1.5-17.7 2.2-25.1 3-76.6 1.6-106-1.9-39-4.7-70-9.7-104.5-1.4-9.6-2.8-19.4-3.1-21.8l-.6-4.2 6.9.5c3.8.3 20.4 1.5 36.8 2.5zm104.1 6.6c22.6 1.4 41.3 2.9 41.8 3.3.4.4 1.9 6.5 3.3 13.7l2.5 12.9-9.5 93.5c-5.3 51.4-9.8 95.6-10.2 98.1l-.6 4.7-7.1-3.3C883.2 899.8 867 896 853 896h-7.5l.4-30.2c.4-40.6-1.8-79.5-6.9-121.5-1.9-15.4-6.9-48.3-8.8-58.6l-.9-4.7h3.6c2 0 22.1 1.1 44.6 2.6zM504.7 715c12.2 14.3 39.6 40.9 57.6 55.8 8.1 6.8 14.7 12.9 14.7 13.5 0 3-11.2 91.4-11.8 93-.6 1.5-12.9-12.8-58.1-67.4-31.6-38-57.4-69.8-57.5-70.5-.1-1.6 44.6-36.6 45.5-35.6.4.4 4.7 5.4 9.6 11.2zm-84.1 66c31.8 45.4 71.6 83.3 123.6 117.6 9 5.9 16.5 10.8 16.7 11 .4.4-9 76.7-9.6 77.4-.2.2-.7-.1-1.1-.7-.4-.6-36.5-46-80.2-100.8s-79.5-100-79.5-100.5c0-1 19.7-16.9 20.7-16.7.3.1 4.6 5.8 9.4 12.7zm-59.5 45.2c12.9 19.3 30.3 43 43.5 59.4l3.3 4-9.2 16c-5.1 8.7-9.6 15.9-9.9 15.9-1.1 0-67.9-82.7-67.3-83.4 1.7-1.7 30.1-23.9 30.7-24 .4-.1 4.4 5.4 8.9 12.1zm-69.6 53c17.7 25.2 42.9 57.8 60.8 78.5l9.6 11.2-7.3 12.6-7.4 12.6-29.8-39.3c-16.4-21.6-35.3-46.5-42-55.4l-12.2-16 9.6-7.7c5.3-4.2 9.9-7.6 10.2-7.6.3-.1 4.2 5 8.5 11.1zm190 85.9c18.9 16.4 43.2 35.3 64.2 49.9l2.2 1.5-5.1 40.5c-2.8 22.3-5.2 40.6-5.4 40.8-.1.2-3.5-2.3-7.6-5.5-6.1-4.8-17-17.7-63.3-74.6-30.8-37.8-56.2-69.2-56.3-69.8-.2-.5 1.4-4 3.6-7.7 2.1-3.7 6.4-11 9.5-16.3l5.6-9.6 20.3 20.2c11.2 11.1 25.7 24.8 32.3 30.6zm-253.4-39.6c18.4 27.7 50 68.5 78.9 102 5.2 6.1 10.1 11.8 10.9 12.8 1.2 1.5.5 3.2-5.9 14.4-4.1 7.1-7.5 13-7.7 13.2-.1.2-1.1-.7-2.2-2-1.6-2.1-26.9-32.2-90.2-107.5l-17.8-21.1 13.6-10.7c7.5-5.8 14-10.3 14.3-9.9.4.5 3.1 4.4 6.1 8.8zm179.9 91.8c27.5 27.4 47.7 45.7 75.5 68.8 17.3 14.4 45.8 36.9 49.2 38.8 1.2.6.9 4.8-1.7 25.2-3 23.8-3.2 24.7-8 36.9-2.8 6.9-5.4 13.1-5.9 13.9-.7 1.1-3.5-.8-12.8-9-6.5-5.7-14.6-13.1-18.1-16.4-3.7-3.6-28.8-35.7-62.7-80.5l-56.4-74.5 2.6-4.5c6.5-11.3 13.4-23 13.6-23 .1 0 11.2 10.9 24.7 24.3z" fill="#FF9C08"/></svg>