<svg width="234" height="55" fill="none" xmlns="http://www.w3.org/2000/svg"><path d="M13.446 54.797c-1.615 0-3.513-.15-5.693-.447-1.454-.163-2.437-.244-2.948-.244-.7 0-1.4.135-2.1.406-.484.163-.861.244-1.13.244-.458 0-.835-.122-1.13-.366A1.01 1.01 0 0 1 0 53.537c0-.217.067-.556.202-1.017.242-.867.363-1.585.363-2.154 0-.623-.094-1.382-.282-2.277a14.258 14.258 0 0 1-.081-.447 3.241 3.241 0 0 1-.04-.528c0-.407.188-.732.565-.976.404-.244.915-.366 1.534-.366 1.535 0 2.302.8 2.302 2.399 0 1.355.592 2.452 1.776 3.292 1.212.84 2.733 1.26 4.563 1.26 1.4 0 2.53-.27 3.392-.812.861-.57 1.292-1.315 1.292-2.236 0-.922-.511-1.83-1.534-2.724-.996-.921-2.558-2.1-4.684-3.536-2.02-1.355-3.648-2.52-4.886-3.496a17.157 17.157 0 0 1-3.15-3.415C.444 35.23 0 33.875 0 32.44c0-1.463.377-2.75 1.13-3.862.781-1.138 1.871-2.019 3.271-2.642C5.828 25.312 7.47 25 9.327 25c1.13 0 2.14.068 3.029.203.915.109 1.898.258 2.947.447.189.027.525.095 1.01.204.511.081.928.122 1.252.122.403 0 .82-.136 1.251-.407.162-.108.323-.203.485-.284.188-.082.404-.122.646-.122.43 0 .834.149 1.211.447.404.298.606.745.606 1.341 0 .298-.054.61-.162.935l-1.17 3.7c-.108.352-.297.61-.566.772a1.486 1.486 0 0 1-.848.244c-.404 0-.767-.122-1.09-.366a1.315 1.315 0 0 1-.485-1.057c0-.813-.35-1.545-1.05-2.195-.7-.678-1.574-1.193-2.624-1.545-1.023-.38-1.979-.57-2.867-.57-1.104 0-1.992.299-2.665.895-.673.57-1.01 1.328-1.01 2.277 0 .786.297 1.572.889 2.357.592.76 1.332 1.49 2.22 2.195.89.678 2.114 1.572 3.675 2.683 1.912 1.328 3.446 2.48 4.603 3.456a15.469 15.469 0 0 1 3.029 3.211c.834 1.193 1.251 2.44 1.251 3.74 0 1.41-.403 2.656-1.21 3.74-.782 1.057-1.885 1.883-3.312 2.48-1.427.596-3.069.894-4.926.894ZM49.36 51.504c.268 0 .484.108.645.325.189.217.283.542.283.976 0 .38-.094.69-.283.935-.161.244-.377.366-.646.366-.404 0-.754-.014-1.05-.041a23.19 23.19 0 0 1-.767-.081 19.934 19.934 0 0 0-2.988-.203c-1.104 0-2.1.067-2.988.203a23.19 23.19 0 0 1-.767.081c-.296.027-.646.04-1.05.04-.269 0-.498-.121-.686-.365-.162-.244-.243-.556-.243-.935 0-.407.081-.718.243-.935.188-.244.417-.366.686-.366.323 0 .592-.122.808-.366.242-.244.363-.61.363-1.097v-6.22c0-.38-.054-.69-.161-.935-.081-.27-.337-.488-.768-.65-.403-.19-1.05-.285-1.938-.285h-.888c-.888 0-1.548.095-1.979.285-.403.162-.66.38-.767.65-.08.244-.12.556-.12.935v6.22c0 .488.107.853.322 1.097.242.244.525.366.848.366.27 0 .485.108.646.325.188.217.283.542.283.976 0 .38-.095.69-.283.935-.161.244-.377.366-.646.366-.404 0-.754-.014-1.05-.041a23.19 23.19 0 0 1-.767-.081 19.933 19.933 0 0 0-2.988-.203c-1.104 0-2.1.067-2.988.203a23.19 23.19 0 0 1-.767.081c-.296.027-.646.04-1.05.04-.27 0-.498-.121-.686-.365-.162-.244-.243-.556-.243-.935 0-.407.081-.718.243-.935.188-.244.417-.366.686-.366.323 0 .592-.122.808-.366.242-.244.363-.61.363-1.097V29.715c0-.487-.121-.853-.363-1.097a1.033 1.033 0 0 0-.808-.366.877.877 0 0 1-.686-.325c-.162-.244-.243-.57-.243-.976 0-.38.081-.69.243-.935.188-.244.417-.366.686-.366.404 0 .754.014 1.05.041.296.027.552.054.767.081.888.136 1.884.204 2.988.204s2.1-.068 2.988-.204c.215-.027.471-.054.767-.08.296-.028.646-.042 1.05-.042.27 0 .485.122.646.366.188.244.283.556.283.935 0 .434-.095.759-.283.976a.766.766 0 0 1-.646.325c-.323 0-.606.122-.848.366-.215.244-.323.61-.323 1.097v8.293c0 .434.04.786.121 1.057.108.271.364.501.767.691.431.163 1.09.244 1.979.244h.888c.889 0 1.535-.081 1.938-.244.431-.19.687-.42.768-.691.107-.271.161-.623.161-1.057v-8.293c0-.487-.121-.853-.363-1.097a1.033 1.033 0 0 0-.808-.366.877.877 0 0 1-.686-.325c-.162-.244-.243-.57-.243-.976 0-.38.081-.69.243-.935.188-.244.417-.366.686-.366.404 0 .754.014 1.05.041.296.027.552.054.767.081.889.136 1.884.204 2.988.204s2.1-.068 2.988-.204c.215-.027.471-.054.767-.08.296-.028.646-.042 1.05-.042.27 0 .485.122.646.366.189.244.283.556.283.935 0 .434-.094.759-.283.976a.766.766 0 0 1-.646.325c-.323 0-.605.122-.848.366-.215.244-.323.61-.323 1.097v20.326c0 .488.108.853.323 1.097.242.244.525.366.848.366ZM66.76 54.756c-2.637 0-5.087-.664-7.348-1.992a15.152 15.152 0 0 1-5.33-5.447c-1.319-2.276-1.978-4.77-1.978-7.48 0-2.655.66-5.122 1.978-7.398 1.32-2.276 3.096-4.079 5.33-5.407a14.259 14.259 0 0 1 7.349-1.991c2.665 0 5.115.664 7.349 1.991a14.73 14.73 0 0 1 5.37 5.407c1.319 2.25 1.978 4.715 1.978 7.398 0 2.71-.659 5.204-1.978 7.48a15.047 15.047 0 0 1-5.37 5.447c-2.234 1.328-4.684 1.992-7.35 1.992Zm1.576-2.236c1.534 0 2.718-.772 3.553-2.317.861-1.572 1.292-3.672 1.292-6.3 0-1.6-.162-3.307-.484-5.122-.62-3.496-1.616-6.288-2.989-8.374-1.346-2.114-2.84-3.171-4.481-3.171-1.508 0-2.692.772-3.554 2.317-.861 1.545-1.292 3.618-1.292 6.22 0 1.571.162 3.278.485 5.121.619 3.55 1.601 6.382 2.947 8.496 1.346 2.087 2.854 3.13 4.523 3.13ZM97.259 25.65c1.561 0 3.015.326 4.361.976a7.569 7.569 0 0 1 3.23 2.805c.834 1.22 1.252 2.67 1.252 4.35 0 2.9-.902 5.148-2.706 6.748-1.803 1.571-4.563 2.357-8.277 2.357-1.077 0-1.898.42-2.463 1.26-.539.813-.808 1.884-.808 3.212v2.683c0 .488.108.853.323 1.097.242.244.525.366.848.366.27 0 .484.108.646.325.188.217.283.542.283.976 0 .38-.094.69-.283.935-.162.244-.377.366-.646.366-.404 0-.754-.014-1.05-.041a23.132 23.132 0 0 1-.767-.081 19.934 19.934 0 0 0-2.988-.203c-1.104 0-2.1.067-2.988.203a23.16 23.16 0 0 1-.767.081c-.296.027-.646.04-1.05.04-.27 0-.498-.121-.687-.365-.161-.244-.242-.556-.242-.935 0-.407.081-.718.242-.935.189-.244.418-.366.687-.366.323 0 .592-.122.807-.366.243-.244.364-.61.364-1.097V29.756c0-.488-.121-.854-.364-1.098-.215-.27-.484-.406-.807-.406a.877.877 0 0 1-.687-.325c-.161-.217-.242-.529-.242-.935 0-.38.081-.691.242-.935.189-.271.418-.407.687-.407.458 0 .875.082 1.252.244.403.136.888.353 1.453.65.646.353 1.225.624 1.737.814.511.19 1.09.284 1.736.284.484 0 .928-.067 1.332-.203s.875-.339 1.414-.61a13.95 13.95 0 0 1 2.26-.853c.7-.217 1.589-.326 2.666-.326Zm-3.715 15.448c2.073 0 3.526-.285 4.36-.854.862-.596 1.293-1.694 1.293-3.293 0-.759-.108-1.816-.323-3.17-.296-1.654-.808-3.022-1.534-4.106-.727-1.084-1.562-1.626-2.504-1.626-1.157 0-1.952.528-2.382 1.585-.404 1.03-.606 2.371-.606 4.024v5.895c0 .65.108 1.07.323 1.26.242.19.7.285 1.373.285ZM108.26 54.106c-.269 0-.498-.122-.686-.366-.161-.244-.242-.556-.242-.935 0-.407.081-.718.242-.935.188-.244.417-.366.686-.366.324 0 .593-.122.808-.366.242-.244.363-.61.363-1.097V29.715c0-.514-.121-.88-.363-1.097a1.032 1.032 0 0 0-.808-.366.876.876 0 0 1-.686-.325c-.161-.244-.242-.57-.242-.976 0-.38.081-.69.242-.935.188-.244.417-.366.686-.366.404 0 .754.014 1.05.041.296.027.552.054.767.081.889.136 1.885.204 2.988.204 1.562 0 3.608-.055 6.138-.163a166.08 166.08 0 0 1 6.622-.163c.7 0 1.184.57 1.454 1.708.296 1.11.444 2.29.444 3.536 0 .868-.283 1.301-.848 1.301h-.323c-.242 0-.444-.027-.606-.081-.161-.081-.283-.244-.363-.488-.189-.46-.592-.976-1.212-1.545a9.342 9.342 0 0 0-2.14-1.463c-.78-.407-1.494-.61-2.14-.61-1.103 0-1.951.23-2.544.691-.565.434-.847 1.342-.847 2.724v3.984c0 1.03.067 1.788.201 2.276.135.46.364.772.687.935.323.135.807.203 1.453.203.916 0 1.71-.406 2.383-1.22a8.59 8.59 0 0 0 1.575-2.642c.107-.27.242-.433.403-.488.189-.054.364-.08.525-.08h.364c.565 0 .848.433.848 1.3v8.374c0 .867-.283 1.3-.848 1.3h-.323c-.243 0-.445-.026-.606-.08-.162-.082-.283-.244-.363-.488a8.591 8.591 0 0 0-1.575-2.642c-.673-.813-1.467-1.22-2.383-1.22-.646 0-1.13.081-1.453.244-.323.135-.552.447-.687.935-.134.46-.201 1.206-.201 2.236v3.983c0 1.382.282 2.304.847 2.765.593.433 1.441.65 2.544.65.889 0 1.71-.258 2.463-.772a7.735 7.735 0 0 0 1.939-1.789c.511-.677.874-1.3 1.09-1.87.107-.27.242-.434.404-.488.188-.054.363-.081.524-.081h.364c.565 0 .848.434.848 1.3 0 1.356-.148 2.71-.444 4.066-.27 1.328-.754 1.992-1.454 1.992-1.777 0-3.984-.055-6.622-.163-2.53-.108-4.576-.162-6.138-.162-1.103 0-2.099.067-2.988.203-.215.027-.471.054-.767.081-.296.027-.646.04-1.05.04ZM155.611 49.065c.323 0 .485.217.485.65-.027 1.383-.458 2.48-1.292 3.293-.835.813-1.979 1.22-3.432 1.22-1.696 0-3.056-.38-4.078-1.139-1.023-.785-1.777-1.693-2.262-2.723-.484-1.057-.955-2.371-1.413-3.943-.35-1.247-.673-2.141-.969-2.683-.269-.57-.659-.854-1.171-.854-.834 0-1.373.366-1.615 1.098-.242.731-.363 1.856-.363 3.374v2.683c0 .488.107.853.323 1.097.242.244.525.366.848.366.269 0 .484.108.646.325.188.217.282.542.282.976 0 .38-.094.69-.282.935-.162.244-.377.366-.646.366-.404 0-.754-.014-1.05-.041a23.085 23.085 0 0 1-.767-.081 19.947 19.947 0 0 0-2.988-.203c-1.104 0-2.1.067-2.988.203-.216.027-.472.054-.768.081-.296.027-.646.04-1.049.04-.27 0-.498-.121-.687-.365-.161-.244-.242-.556-.242-.935 0-.407.081-.718.242-.935.189-.244.417-.366.687-.366.323 0 .592-.122.807-.366.242-.244.363-.61.363-1.097V29.756c0-.488-.121-.854-.363-1.098-.215-.27-.484-.406-.807-.406a.878.878 0 0 1-.687-.325c-.161-.217-.242-.529-.242-.935 0-.38.081-.691.242-.935.189-.271.417-.407.687-.407.457 0 .874.082 1.251.244.404.136.889.353 1.454.65.646.353 1.225.624 1.736.814.512.19 1.09.284 1.736.284a4.17 4.17 0 0 0 1.333-.203 11 11 0 0 0 1.413-.61c.808-.38 1.561-.664 2.261-.853.7-.217 1.588-.326 2.665-.326 1.562 0 3.015.326 4.361.976a7.557 7.557 0 0 1 3.23 2.805c.835 1.22 1.252 2.67 1.252 4.35 0 2.005-.552 3.712-1.655 5.121-1.104 1.41-2.706 2.453-4.805 3.13.996.272 1.776.8 2.341 1.586.593.786 1.185 1.843 1.777 3.17.431.976.808 1.694 1.131 2.155.35.46.767.691 1.251.691.404 0 .768-.095 1.091-.284.35-.19.592-.285.726-.285Zm-14.293-7.967c2.045 0 3.472-.285 4.28-.854.834-.596 1.251-1.68 1.251-3.252 0-.786-.107-1.856-.323-3.211-.296-1.654-.807-3.022-1.534-4.106s-1.561-1.626-2.503-1.626c-1.158 0-1.952.528-2.383 1.585-.404 1.03-.605 2.371-.605 4.024v5.895c0 .515.053.88.161 1.097.108.19.269.312.485.366.215.055.605.082 1.171.082ZM162.429 55a3.474 3.474 0 0 1-2.503-1.016c-.673-.678-1.01-1.504-1.01-2.48 0-.948.337-1.761 1.01-2.439.7-.705 1.534-1.057 2.503-1.057.943 0 1.75.352 2.423 1.057.673.678 1.01 1.49 1.01 2.44 0 .975-.337 1.801-1.01 2.479-.673.677-1.48 1.016-2.423 1.016ZM179.649 51.504c.269 0 .485.108.646.325.189.217.283.542.283.976 0 .38-.094.69-.283.935-.161.244-.377.366-.646.366-.404 0-.754-.014-1.05-.041a23.085 23.085 0 0 1-.767-.081 19.928 19.928 0 0 0-2.988-.203c-1.104 0-2.1.067-2.988.203-.215.027-.471.054-.767.081-.296.027-.646.04-1.05.04-.269 0-.498-.121-.686-.365-.162-.244-.243-.556-.243-.935 0-.407.081-.718.243-.935.188-.244.417-.366.686-.366.323 0 .592-.122.808-.366.242-.244.363-.61.363-1.097V29.715c0-.487-.121-.853-.363-1.097a1.035 1.035 0 0 0-.808-.366.876.876 0 0 1-.686-.325c-.162-.244-.243-.57-.243-.976 0-.38.081-.69.243-.935.188-.244.417-.366.686-.366.404 0 .754.014 1.05.041.296.027.552.054.767.081.888.136 1.884.204 2.988.204s2.1-.068 2.988-.204c.215-.027.471-.054.767-.08.296-.028.646-.042 1.05-.042.269 0 .485.122.646.366.189.244.283.556.283.935 0 .434-.094.759-.283.976a.765.765 0 0 1-.646.325c-.323 0-.606.122-.848.366-.215.244-.323.61-.323 1.097v20.326c0 .488.108.853.323 1.097.242.244.525.366.848.366ZM183.534 54.106c-.269 0-.498-.122-.686-.366-.162-.244-.242-.556-.242-.935 0-.407.08-.718.242-.935.188-.244.417-.366.686-.366.323 0 .592-.122.808-.366.242-.244.363-.61.363-1.097V29.35c0-.461-.107-.76-.323-.895-.188-.135-.471-.203-.848-.203a.876.876 0 0 1-.686-.325c-.162-.244-.242-.57-.242-.976s.08-.718.242-.935c.188-.244.417-.366.686-.366.377 0 .996.055 1.858.163.969.108 1.695.163 2.18.163.592 0 1.427-.055 2.503-.163.916-.108 1.535-.163 1.858-.163.242 0 .458.109.646.326.188.216.283.542.283.975 0 .488-.108.827-.323 1.017-.189.19-.391.284-.606.284-.215 0-.323.081-.323.244 0 .244.148.569.444.976l10.539 15.487c.296.407.565.61.807.61a.524.524 0 0 0 .485-.284c.134-.19.202-.461.202-.813V29.715c0-.487-.121-.853-.364-1.097a1.031 1.031 0 0 0-.807-.366.88.88 0 0 1-.687-.325c-.161-.244-.242-.57-.242-.976 0-.38.081-.69.242-.935.189-.244.418-.366.687-.366.296 0 .659.027 1.09.082a4.8 4.8 0 0 0 1.09.122c.404 0 .767-.041 1.09-.122.485-.055.848-.082 1.091-.082.269 0 .484.122.646.366.188.244.282.556.282.935 0 .434-.094.759-.282.976a.767.767 0 0 1-.646.325c-.323 0-.606.122-.848.366-.216.244-.323.61-.323 1.097v20.326c0 .46.107.826.323 1.097.215.244.498.366.848.366.269 0 .484.122.646.366.188.217.282.528.282.935 0 .434-.094.759-.282.976a.767.767 0 0 1-.646.325c-.431 0-1.05-.055-1.858-.163a22.729 22.729 0 0 0-2.463-.162c-.619 0-1.467.054-2.544.162-.969.108-1.615.163-1.938.163-.296 0-.525-.109-.686-.325-.162-.244-.243-.57-.243-.976 0-.407.081-.718.243-.935.188-.244.417-.366.686-.366.377 0 .565-.122.565-.366 0-.108-.067-.27-.201-.488l-10.62-16.016c-.296-.406-.579-.61-.848-.61-.188 0-.35.095-.484.285-.108.19-.162.447-.162.772v14.96c0 .488.108.853.323 1.097.242.244.525.366.848.366.269 0 .485.108.646.325.189.217.283.542.283.976 0 .38-.094.69-.283.935-.161.244-.377.366-.646.366-.35 0-.713-.041-1.09-.122a8.976 8.976 0 0 0-1.09-.082c-.243 0-.606.027-1.091.082a4.471 4.471 0 0 1-1.09.122ZM233.515 48.943c.323 0 .485.217.485.65-.027 1.383-.458 2.48-1.292 3.293-.835.813-1.979 1.22-3.432 1.22-1.427 0-2.625-.393-3.594-1.18a8.751 8.751 0 0 1-2.221-2.763c-.538-1.057-1.117-2.412-1.736-4.065a42.998 42.998 0 0 0-.767-2.033c-.162-.407-.39-.61-.687-.61-.188 0-.35.109-.484.326-.135.19-.202.447-.202.772v5.488c0 .488.108.853.323 1.097.242.244.525.366.848.366.269 0 .484.108.646.325.188.217.283.542.283.976 0 .38-.095.69-.283.935-.162.244-.377.366-.646.366-.404 0-.754-.014-1.05-.041a23.085 23.085 0 0 1-.767-.081 19.928 19.928 0 0 0-2.988-.203c-1.104 0-2.1.067-2.988.203-.215.027-.471.054-.767.081-.296.027-.646.04-1.05.04-.269 0-.498-.121-.686-.365-.162-.244-.243-.556-.243-.935 0-.407.081-.718.243-.935.188-.244.417-.366.686-.366.323 0 .592-.122.808-.366.242-.244.363-.61.363-1.097V29.715c0-.487-.121-.853-.363-1.097a1.035 1.035 0 0 0-.808-.366.876.876 0 0 1-.686-.325c-.162-.244-.243-.57-.243-.976 0-.38.081-.69.243-.935.188-.244.417-.366.686-.366.404 0 .754.014 1.05.041.296.027.552.054.767.081.888.136 1.884.204 2.988.204s2.1-.068 2.988-.204c.215-.027.471-.054.767-.08.296-.028.646-.042 1.05-.042.269 0 .484.122.646.366.188.244.283.556.283.935 0 .434-.095.759-.283.976a.767.767 0 0 1-.646.325c-.323 0-.606.122-.848.366-.215.244-.323.61-.323 1.097v7.399c0 .325.067.61.202.854.134.216.309.325.525.325.215 0 .417-.095.605-.285.97-.894 1.804-2.046 2.504-3.455.727-1.41 1.279-3.022 1.655-4.838.081-.379-.013-.718-.282-1.016-.243-.298-.525-.447-.848-.447a.778.778 0 0 1-.687-.366c-.161-.244-.242-.569-.242-.975 0-.38.081-.678.242-.895.189-.244.418-.366.687-.366.538 0 1.05.041 1.534.122.7.109 1.427.163 2.181.163.592 0 1.453-.068 2.584-.203.592-.055.969-.082 1.13-.082.27 0 .485.122.646.366.189.217.283.515.283.895 0 .433-.094.772-.283 1.016a.764.764 0 0 1-.646.325c-.376 0-.74.136-1.09.407-.35.27-.659.664-.928 1.178-1.104 2.141-2.275 4.025-3.513 5.65-1.212 1.6-2.208 2.697-2.988 3.294-.377.298-.566.541-.566.731 0 .109.068.203.202.285.135.054.323.081.566.081 1.13 0 2.086.312 2.866.935a6.818 6.818 0 0 1 1.898 2.236c.485.84.983 1.897 1.494 3.17.512 1.193.915 2.047 1.211 2.562.323.487.714.731 1.171.731.404 0 .768-.095 1.091-.284.35-.19.592-.285.726-.285Z" fill="#303C49"/><path fill-rule="evenodd" clip-rule="evenodd" d="M177.761 22.244c-7.603-4.614-10.841-7.382-13.61-9.92-3.895-4.49-4.152-9.011-.922-11.215 3.229-2.205 8.043-.45 11.303 3.142 3.921-4.844 7.628-5.02 10.38-3.142 3.092 2.123 2.785 6.725-1.153 11.216-1.416 1.614-5.306 5.074-5.998 9.919Z" fill="#FF9C08"/></svg>