<svg version="1.0" xmlns="http://www.w3.org/2000/svg" width="34" height="32.4" viewBox="0 0 1280 1149"><path d="M799.2 2.1c-10.4 5.2-13 18.4-5.2 27.2 1.6 1.8 8.2 6.2 14.7 9.7 98.3 52.9 149.7 97.2 200.5 173 18.1 27 61.8 100.4 61.8 103.8 0 .5-3.3 2.9-7.2 5.3-12.1 7.3-42.2 28.3-62.3 43.4-36.4 27.4-60.5 48.4-92.5 80.4l-23.5 23.6-82 55.4C491 735.1 244.2 907 104 1011c-50.9 37.8-103 78.3-103 80.2 0 1 3.2-.6 26-13 97.5-53 276.5-161.8 520.5-316.4 36.9-23.3 68.4-43.2 70-44.2l3-1.8-3 2.3c-32.3 25.6-54.9 64.2-65.6 112.4-12.1 54.8-4.9 113.7 20.2 163.6 28 55.9 75.7 97.1 143 123.7 39 15.4 69.9 24.1 103.4 29.3 12.7 2 46.2 1.7 57-.4 48.9-9.8 76.3-40.2 80-88.7 2.3-30.6-10.2-75.6-31.7-114.3-12-21.6-29.2-46.5-34.2-49.6-13.3-8.2-30.6 4.1-26.6 18.9.6 2.3 4.7 9.2 9 15.4 23.5 33.4 38.4 65 45.1 95.7 2.9 13.6 3.2 36.1.6 45.9-5.7 21.4-18.9 34.3-41.2 40.1-16 4.2-44 3.7-68.8-1.2-41.4-8.1-96.5-28.8-127-47.7-54.3-33.5-86.9-82.1-96.8-144.2-1.8-11.2-1.9-51.5-.1-63 8.4-54.4 35.1-99 69.7-116.3 16.1-8 32.7-9.2 51-3.5 7.3 2.2 46.6 21.8 71 35.3 89 49.2 118.8 63.9 155 76.4 78.5 27.2 151.5 21.5 223.7-17.5 15.5-8.3 27.4-17.2 38.3-28.6 54.6-56.6 58.3-150 11.5-284.4-11.8-33.8-33.3-85.2-46.9-112.1l-3-6.1 11.7-8.8c76.2-57.7 121.9-112.7 113.1-136.1-8-21.4-53.3-15.4-119.9 15.8-14.5 6.8-40.9 20.4-50.5 26.1-5.3 3.2-6.1 3.4-7.1 1.9-.6-.9-6.3-10.8-12.6-22.1-31-55.1-64.2-104.4-91.9-136.5C954.8 88.7 895.8 44.3 822.8 6.1c-13.2-6.8-16.6-7.4-23.6-4zM1238 272.6c2.9 3.4-7.3 17.8-22.9 32.6-19.2 18.2-74.5 61.8-76.2 60.1-.4-.4-5.1-9.1-10.4-19.3-5.4-10.2-10.1-18.9-10.5-19.3-.4-.4-7.5 3.3-15.8 8.3l-15.1 9.1 6.5 12.2c10 18.8 15.9 30.6 15.4 31.1-1.9 1.7-42.1 27.4-57.5 36.8-63.3 38.2-113.2 60.7-124.9 56.2-2.6-1-1.9-6.5 1.5-11.9 1.7-2.7 8.3-10.2 14.7-16.8 22.4-22.9 61.9-54 110.3-86.9 89.5-60.9 175.4-103.7 184.9-92.2zM1145.5 464c55.3 128.4 69.4 225.5 41.1 283.5-10.8 22.2-25.3 36.7-49.6 49.8-45.5 24.5-91.2 34.4-135.2 29.2-47.6-5.6-88.2-21.8-179.3-72-39.2-21.6-63.5-34.4-83-43.7-25.3-12.1-35.3-14.8-56.2-14.8-16.6 0-32.3 3.6-47.6 11-8 3.9-10.7 5.7 48.1-31.9 27.9-17.8 92.9-59.6 144.6-92.8 51.6-33.3 95.9-61.3 98.5-62.4 2.5-1 10.2-3.9 17.1-6.4 48.4-17.8 113.9-51.8 167.5-86.9l13-8.6 5.8 12.3c3.3 6.7 10.1 21.9 15.2 33.7z" fill="#FF9C08"/></svg>