<svg version="1.0" xmlns="http://www.w3.org/2000/svg" width="58" height="40" viewBox="0 0 1280 884"><g fill="#FF9C08"><path d="M310 .6c-1.4.3-5.2 1.4-8.5 2.6-20.8 7.2-25.2 23.3-9.5 33.9 5.5 3.8 8.2 9.1 11.5 22.7 5.2 21.5-2.8 39.8-23.3 53.5-7.1 4.7-24.4 13.7-35.2 18.2-3.6 1.5-12.7 5.6-20.2 9.2l-13.8 6.6-3.9 7.1c-4.3 7.7-9.9 14.7-28.9 36.2-12.3 13.9-17.7 22.3-17 26.5.2 1.2 1.6 3.1 3.1 4.3 2.4 1.8 4.8 2.2 16 2.7 11.4.5 14.8 1.1 24.8 4.2 19.4 6.1 35.1 13.2 48.1 21.9 14.3 9.5 28.5 25.2 34.8 38.3 2.1 4.4 5.6 11.1 7.8 14.9 2.3 3.7 5.3 10.3 6.8 14.6 2.6 7.2 3.1 7.9 6.3 8.9 2 .6 6 3.4 9 6.1 4.5 4.1 5.4 5.5 5.8 9.2.7 6.3-1.1 11.7-6.1 18.2-2.5 3.1-4.8 6.5-5.1 7.5-.9 3-10.9 9.1-14.7 9.1-1 0-11.7-11-11.8-12.1 0-.3 2.6.7 5.8 2.2 7.4 3.5 15.2 4.8 15.2 2.5 0-.9-.8-1.6-1.9-1.6-3.2 0-17.3-7.7-23.8-13-18.3-14.9-40.3-48.4-53.8-82-2.4-6-4.9-13.4-5.7-16.4-.7-3.1-1.6-5.6-2-5.6-1.2 0-1 11.1.3 17.2.6 2.9 3.1 11.5 5.5 19.2 2.5 7.6 4.3 14 4.1 14.3-.3.2-2.9-2.7-5.8-6.4-7.8-9.8-29.4-34.4-61.4-69.8-59.5-65.9-77.9-87.4-103.3-121.2C50.7 93 50 91.7 50 87.5c0-5.5-2.1-11-4.8-12.4C37 70.7 20.5 78.9 8 93.5c-13.2 15.4-9.6 25.3 8.9 24.4l6.7-.4L60.1 158c20 22.3 43.6 48.6 52.3 58.5 8.8 9.9 17.2 19.4 18.8 21.1l2.9 3.1-8 11.4C87.7 306.8 67.9 366.7 72 415.2c1.4 16.4 3.4 25 10.6 46.5 3.5 10.6 10.7 33.6 16 51 5.2 17.5 12 39.1 14.9 48 13.9 41.9 29 73.6 47.4 99.3l6.7 9.4 6.5 1.6c17 4.3 29.1 10.7 62.8 32.9 35.4 23.4 48.2 29.8 66.4 33.7 8.1 1.7 24.5 1.8 31.7.3 7.6-1.6 6.3-3.2-2.2-2.7-26.3 1.7-39.2-9.3-40.6-34.5-2.6-50.4 41.3-143.6 107.7-228.7 18.3-23.5 33.9-41.4 56.3-64.7 16.7-17.3 17.1-19.7 1.4-8.5-10.5 7.5-33.6 30.5-46.2 46.2-15.8 19.6-41.8 56.6-77.1 109.5-5.3 7.8-15.8 29-21.1 42.6-9.9 24.9-18.3 53.6-28.8 98.1-3.1 13.7-6.1 24.8-6.5 24.8-1.9 0-11.9-11-14.1-15.5-8.1-16.2-6.8-38.3 4-70.5 6.9-20.4 28.6-69.7 39-88.5 32.7-59.3 75.1-116.4 126.5-170.5l11.9-12.5 5 5.5c27.9 30.9 44.8 57.3 54.6 85.5 4.5 13 8.2 31.6 8.2 41.4 0 4.9-.1 5.1-2.7 5.1-5.3-.1-18.1-2.8-22.4-4.8-15.2-6.8-23-20.1-20-34.4.7-3.3 2.3-7.8 3.6-9.9 2.1-3.3 10.8-12.2 13.7-14 .6-.4.7-1.2.4-1.8-.5-.8-1.7-.4-3.9 1.1-6.3 4.5-60.8 59.8-71.7 72.8-39.9 47.4-66.3 92.5-81.3 138.5-11.1 34.2-12.2 40.1-11.3 58.5.6 12.2 2.7 23 4.6 23 2 0 2.4-3.3 2.6-21 .2-14.2.8-21.1 2.4-29.1 5-24.7 16.3-56.5 19.5-54.9 1.2.6 1.2 6.5-.5 50.5-1.2 35.3-.8 82.9 1 104.8 2.3 27.1 6.7 52.2 12.7 71.7 2 6.3 4.8 15.7 6.3 20.8 1.5 5.2 3.5 10.1 4.4 11 7.6 7.6 16.3-28.8 18.6-78.1 1-21.4.4-34.5-3-66.7-4-37.2-3.7-60.2.6-65.6 1.4-1.8 1.5-1.8.8.6-1.2 4.5-.7 17.8 1.1 25.2 2.6 10.7 7 20.1 9.2 19.6 2.3-.5 2-6.3-.7-16.6-3.2-11.6-2.4-17.8 2.7-20.1 4.4-2 11.2 1.3 34 16.5 11.9 7.9 24.7 16 28.6 17.9l7 3.5h-23.9c-36.7 0-54.4 2-55.2 6.2-.2.9.7 2.3 2 3.1 2.1 1.4 3.4 1.3 12.6-.8 33.3-7.6 65.5-5.6 91.6 5.6 26.5 11.4 44.5 28.8 58.5 56.8 5.1 10 13.1 20.1 25.7 32.1 17 16.2 35.8 29 42.7 29 3 0 5.7-2.4 5.7-5 0-3.3-3.8-12.2-9.1-21.5-2.9-5-6.8-13.1-8.9-18.2-6.6-16.4-17.2-31.3-46.5-65.3-23.4-27-31.3-38.8-36.6-54.3-3.8-11.3-4.7-25.8-5.9-93.7-1.3-75.5-3-103.6-8-132.5-1.8-10-2.7-12.5-10-27.2-8.7-17.4-21.7-37.7-34.4-53.8-10.5-13.2-41.3-43.8-54.9-54.5-15.5-12.2-32.1-23.8-45.2-31.7l-11.4-6.8-1.5-6.5c-5-22.1-3.9-40.2 2.9-44.6 2.8-1.8 7.8-1.3 13 1.3 4.8 2.5 43.9 32.1 56.1 42.5 43.1 37 77.2 79.5 100.4 125.3 17.3 34 25.9 60.7 28.4 87.5 4.7 51.6 6 77.3 5.3 110-.8 38.6-3.7 62.6-11.2 93.7-1.9 8-3.5 14.7-3.5 14.9 0 .2.9.4 1.9.4 9.7 0 18.7-49.7 19.8-109.5 1.6-87.6-6.2-142.6-26.7-188-6.5-14.3-13.2-25.3-29-47.5-41.9-59-73-91.6-112-117.2-11-7.3-32-18.1-43-22.1l-6.5-2.4-3.7-42.9c-2.1-23.6-6-68.1-8.8-98.9-2.7-30.8-5-56.7-5-57.5 0-.9 1.4-2.4 3-3.3 7.8-4.7 7.9-15.1.2-19.1-2.8-1.4-23.3-2.9-28.2-2zm15.9 10.3c2.8 1.6 2.7 2.6-.9 5.1-8.6 6.2-30 10-30 5.4 0-2 6.5-8.9 10.3-10.8 3.6-1.9 16.8-1.7 20.6.3zm-8.3 25.8c2.3.3 5 0 6.2-.6 2.8-1.5 2.6-2.4 5.2 27.9 1.2 13.5 5.2 58.2 9 99.5 13.2 143.1 20.7 244.2 18.2 246.7-1 1-7.7.4-9.9-1-.8-.5-.8-2.1.3-6.2.8-3 1.4-8.2 1.4-11.5.1-12.1-3.7-50.9-10.9-112-2.8-23.1-6.6-56.2-8.6-73.5-6.2-54.3-13.5-113.4-17.6-142.5-2.1-15.4-3.9-28.2-3.9-28.4 0-.2 1.5-.1 3.3.3 1.7.4 5 .9 7.3 1.3zM38 88.3c0 7.8-11.8 16.7-22.1 16.7-5.3 0-6.3-1.2-4.3-5 1.2-2.3 8.5-9.8 12.8-13 1.8-1.4 11.2-3 12.9-2.2.4.2.7 1.8.7 3.5zm11.5 18.9c26 34.5 63.3 78.2 128 150.3 64.3 71.6 89 99.9 115.2 132.3 10.3 12.6 13.9 17.8 13.6 19.3-1 3.6-6.3 1.6-6.3-2.3 0-4.9-7.2-15.4-20.2-29.6-3.9-4.2-9.4-10.6-12.3-14.2-6.1-7.6-38.5-42.6-118.5-128-31.7-33.8-70.7-75.6-86.7-92.9l-29.2-31.4 5.7-4.3c3.1-2.3 5.9-4.3 6.2-4.3.3-.1 2.4 2.3 4.5 5.1zm253.3 11c.1 5.1 1.1 15.3 2.3 22.8 1.1 7.4 2.9 19.6 4 27 2.6 17 2.3 32.9-.6 37.7-4.1 7-11.8 6.9-27-.5-5.5-2.7-12.6-5.3-15.8-6-9.5-1.8-21.9-8-46.5-23.2-7.5-4.6-10.6-6-11.4-5.2-1.4 1.4 16.6 18.9 21.5 21 1.8.8 14.4 5.2 28.1 9.8 13.7 4.6 28.6 10.2 33 12.3 24.2 11.9 33 28.1 29.6 54.2-1.3 9.4-1.2 11.2 1.3 30.2 2.6 19 3.5 33.7 2.1 33.7-.3 0-1.9-1-3.4-2.3-1.6-1.2-3.9-2.9-5.3-3.9-3.5-2.4-12.4-16.4-20.5-32.2-5.6-10.8-7.2-14.9-7.2-18.2 0-8.8 6.4-11.2 20.6-7.6 4.3 1.1 8.5 2.2 9.3 2.4.7.1 1.5-.2 1.8-.8.2-.7-8.2-4.3-20.4-8.9-53.6-20-75.7-28.9-95.4-38.3-10.5-5.1-25.9-14.5-25.9-15.9.1-1.6 9.3-18 13.6-24 9.2-12.9 22.2-25 37-34.6 7-4.5 27.4-15.7 28.7-15.7.4 0 .7 1.3.7 2.8 0 4.2 5.4 11.6 12.2 16.7 11.2 8.4 33.3 17.4 36 14.7 1.7-1.7-3.3-5.6-15.6-11.8-6.1-3.1-14.3-8.1-18.3-11.1-7.3-5.5-13.4-12.4-11.7-13.1.5-.2 10.1-5 21.4-10.6 11.3-5.6 20.7-10.3 21-10.4.3-.1.6 4 .8 9zm-160 132.4c7.6 9.1 12.4 22.6 17.2 47.9 6.9 36.7 13.2 52.9 26.3 67.1 4 4.3 8.5 9.7 10.1 11.9 10.6 14.5 56.1 55.4 64.5 58l2.3.7-1.8-3.2c-2.1-3.5-15.1-16.3-22.9-22.5-23.5-18.6-44.7-45.7-60.4-77.3-10.2-20.5-15.1-36.4-15-48.7.1-11.8.4-11.9 9.3-2.4 9.4 10.2 17.8 22.5 31.6 46.8 12.8 22.4 18.8 29.2 41 46.5 27.8 21.6 36 31.7 34.7 42.6-.5 4-1.7 6.2-6.9 12.7-3.5 4.3-9.3 10.7-12.9 14.3-3.7 3.6-8.5 9.3-10.7 12.6-5.2 7.9-16.4 27.7-23.6 42.2-21.9 43.8-41.5 64-70.7 73-9.1 2.8-20.9 8.9-20.9 10.7 0 2.2 2.4 1.9 15.4-2.5 13.4-4.5 35.3-14.8 43.5-20.4 2.9-2 5.5-3.6 5.8-3.6.3 0 .2 1-.1 2.2-3 10.8-4.7 29.6-6.1 68.3-.5 13.7-1.3 18.8-3.6 25-2.2 6-7.6 11.5-11.3 11.5-3.3 0-13-10.7-21.3-23.2-13.1-19.9-22.2-41.1-35.3-81.8-4.4-14-9.6-29.9-11.4-35.3-2.7-8.1-3-9.7-1.7-9.7.9 0 7.5.5 14.8 1 14.5 1.1 34-.4 46.9-3.6 6.7-1.7 12.4-5.4 12.4-8 0-.8 5.4 2.9 12 8.1 6.6 5.3 12.5 9.3 13.1 9 1.8-1.1-5.1-8.5-39.7-43-33.7-33.6-42-43-51.8-59.1-5.8-9.6-11.6-24.1-13.8-34.4-1-5.2-2.6-11.5-3.4-14-4.8-14-5.4-22-2.9-36.6 3.6-20.6 15.6-47.9 24.8-56.4 2.8-2.7 4-2.5 3.3.3-.3 1.3-1.1 7.9-1.7 14.7-2.7 29.5 4.3 62.8 19.1 92 10.5 20.6 21.9 36.2 39.1 53.7 12.4 12.7 20.8 19.6 37.9 31.2 12.4 8.5 16 10.3 16 8.3 0-1.2-12.9-13.4-33.6-31.9-31-27.7-44.9-44.2-54.8-65.3-16.2-34.8-21.1-82.5-12.5-120.5 1.2-5.2 4.7-12.5 6-12.5.4 0 2.1 1.6 3.7 3.6zm230.7 49c2.2 1.3 6.9 5.2 10.5 8.6 3.6 3.5 10.2 9.2 14.5 12.8 10.6 8.6 26.1 22 36.4 31.7l8.4 7.8-8.9 6.5c-15.6 11.3-37.2 34.3-57 60.5-15.7 20.8-47.9 66.5-56 79.5-46.4 74.5-65.6 126-67.1 179.7-.3 10.6-1 19.3-1.4 19.3-.5 0-4.2-3.3-8.2-7.3-12.9-12.7-18.7-28.3-18.7-50.4 0-25.2 6.2-49.7 24.6-96.9 8.7-22.2 10.5-26 24.5-50 17.9-30.5 24.5-41.1 34.2-54.8 8.4-11.9 20.5-24.3 26.5-27.3l4.4-2.1 5.1 2.4c9.6 4.4 16 2.5 19.1-5.9.9-2.3 2.5-10.8 3.6-18.9 1.9-14.4 4.7-25 7.2-27.4 4.4-4.2 14.4-11.4 15.7-11.4 1.5 0 8.1-6.3 18-17.1 1.9-2.2 2.9-3.9 2.2-4.3-.5-.4-5.6 3.6-11.3 8.8-5.6 5.2-12.6 10.7-15.6 12.2-2.9 1.5-6.7 4.4-8.4 6.4-2.9 3.8-10.2 7.9-11.5 6.6-.4-.3-.8-3.9-1-7.9-.1-3.9-.9-13-1.8-20.2-2.1-17.9-2-19 .9-19.1 6.2-.4 12.9-9.3 12.4-16.4l-.3-4.2-7.7 7.5-7.8 7.6v-4.2c.1-10 3.7-16.5 8.4-15.1 1.2.4 3.9 1.7 6.1 3zm-142.8 48.5c12.6 14 23.3 26.2 23.8 27 1 1.6-8.8-6.7-18.2-15.4-10.6-9.9-29.3-33.5-29.3-37.1 0-.5.2-.7.3-.5.2.2 10.7 11.9 23.4 26zm-138.3 25c8 39.5 34.4 80.2 76 116.9 5.3 4.6 9.6 8.8 9.6 9.1 0 1.5-11.6 5-22.4 6.9-6.1 1-19 2.6-28.6 3.5-9.6.9-18.3 2.1-19.2 2.6-1.3.7-2 .6-2.3-.3-.3-.7-1.4-3.8-2.4-6.8-1.1-3-3.8-10.2-6.1-16-2.2-5.8-5.6-16.8-7.5-24.5-7.3-29.3-10-53.2-9.2-81.3.5-20.3 2.3-30.1 6.9-37.7l2.3-4 .6 11.6c.4 6.4 1.4 15.4 2.3 20zm244-6.1.5 3.5-1.4-4c-.7-2.2-1.3-6.9-1.3-10.5l.1-6.5.8 7c.4 3.8 1 8.6 1.3 10.5zm-6.1-8.3c1.4 4.3 3.1 23.5 3 33.9-.1 7.6-6.9 22.6-16.4 35.7-2.7 3.7-10 13.2-16.2 21-12.7 16.2-19.1 25.5-30.4 44.7-26.9 45.4-42.2 88.2-47.8 133.5-1.6 13.1-2.3 51.3-1 55.4 1 3.4-1.2 2.5-6.6-2.6-9.4-8.8-15.5-20.1-18.6-34.8-1.2-5.8-1.3-10.1-.4-25.5.9-16.3 1.4-20.3 4.9-34 4.9-19 11.5-37.5 23.9-66.9 5.9-14.1 11.4-25.6 14.7-30.6 2.9-4.4 9.7-15.9 15.1-25.5 6.8-12 11.6-19.4 15.5-23.5 3.1-3.3 7.1-8.1 8.8-10.6 5.9-8.8 17.2-12.7 30.1-10.4l4.4.7-.7-6.3c-2.6-25.3-1.8-39.6 2.5-43.5 1-.9 3.3-4 5.1-6.8 3-4.8 6.4-8.5 8-8.6.3 0 1.3 2.1 2.1 4.7zM260.5 370c2.1 2.2 3.7 4 3.4 4-.3 0-2.3-1.8-4.4-4-2.1-2.2-3.7-4-3.4-4 .3 0 2.3 1.8 4.4 4zm79.3 24.8c.4 3.9.5 6.9.1 6.5-1.7-2-2.9-8.3-2.8-15.2.1-7.1.2-7.3 1-3.1.4 2.5 1.2 7.8 1.7 11.8zm120.3 84c2.4 1.7 9.1 7.4 14.9 12.7 12.7 11.7 20.7 16.1 27.2 15.1 2.3-.4 5.7-1.8 7.4-3.1l3.2-2.4-.1 27.7c0 19.6.6 36.8 2.2 58.7 3.7 49.8 3.2 76.2-1.4 82.8-1.1 1.6-1.5 1.4-4.7-3-1.9-2.6-9.2-11.8-16.3-20.3-12.8-15.5-16.2-20.7-14.5-22.4 1.6-1.6 11-.8 20.5 1.8 8.9 2.4 12.3 2.3 14-.4 1.5-2.5-2.5-3.8-17.5-6-31.8-4.6-45-11.9-45-24.9 0-2.1-1.8-4.8-6.5-10-22.5-25.2-32-39.2-34.1-50.2-.7-3.3-.5-3.2 3.8 2.6 18.3 24.6 62.1 49.7 89.7 51.2 11.7.7 12.1-.9 1-4.2-32.1-9.6-60.8-26.4-85.6-49.9-11.6-11-11.5-10.9-6.5-21.4 2.9-5.9 13.3-16.5 20.1-20.3 3.1-1.7 5.1-3.9 7.3-8.2 1.7-3.2 4.3-6.7 5.7-7.9 3.6-2.8 9.5-2 15.2 2zm-59.5 69.9c3.5 4.7 25.7 33 65.4 83.3 60.3 76.4 91.1 117.9 120.3 162.3 11.8 17.9 30.1 48.6 29.4 49.3-.2.2-3.5-2.9-7.4-6.9-5.1-5.2-8-9.3-10.5-14.8-4.1-8.9-8.2-15.1-23-34.9-23.5-31.4-43.5-56.7-86.4-109.5C427.2 602.3 388 553.2 388 551.7c0-.7 8.1-6.6 9.1-6.7.4 0 1.9 1.7 3.5 3.7zm-13.4 7.9.4 3.5-1.7-2.3c-1.3-1.6-1.5-2.6-.7-3.5 1.5-1.8 1.5-1.7 2 2.3zm8 26.4c6.5 8.5 18.8 24.5 27.4 35.5 20.1 25.7 31.1 41.9 30.2 44.5-.3 1-29.6-17.7-40.5-26-25.2-19-35.4-37-33.9-60 .3-5.2.9-10.6 1.3-11.9l.6-2.5 1.6 2.5c.9 1.3 6.9 9.4 13.3 17.9zm-23.4 18.3c.3 24.6 1.4 49.6 3.9 96.7 2.1 39 2.4 123.6.5 140.7-1.4 12.3-3.2 18.8-5.3 18.8-2 0-5.5-10.5-8.5-25.2l-2.5-12.4 2.3-6.7 2.2-6.7-.2-108.4-.2-108.3 3.2-5.4c1.8-3 3.5-5.4 3.8-5.4.3 0 .6 10 .8 22.3zm14.6 21.6c9.9 11.2 22.8 21 52.1 39.7 29.9 19 41.4 28.5 44.9 36.9 1.8 4.3 2 6.4.6 9.9l-.9 2.5-6.8-2.3c-13.6-4.6-33.7-12.9-43.8-18.1-15.1-7.8-24.9-14.7-34.8-24.6-10.7-10.8-16.2-21-17.5-32.4-.9-7.6-.5-17.8.7-17.3.4.2 2.9 2.7 5.5 5.7zm-31.2 110.6c.2 25.8 0 44.5-.3 41.5-.4-3-.8-10.5-.9-16.5-.3-17.2.2-75.2.6-73.5.1.8.4 22.6.6 48.5z"/><path d="M435.7 491.6c-1.5 1.5-.6 10.9 1.3 15 5.6 11.6 26.6 24.9 51.7 32.7 11.3 3.6 16.3 4.3 16.3 2.3s-3-3.5-18-8.6c-8.6-3-14.5-5.7-18.8-8.8-7.9-5.5-19.2-16.6-25.6-25.2-6.3-8.4-6.1-8.1-6.9-7.4z"/><path d="M359.6 79.1c-10.2 1.5-19.4 7.4-15.6 10 1.8 1.2 11.2.4 18.5-1.4l5-1.3 8.6 6.2c12.7 9.1 32.3 21.4 59.4 36.9 63.3 36.3 77.6 46.1 102 69.3 66.8 63.6 119.6 134.6 146.9 197.4 13.1 30.2 24.6 66.8 24.6 78.5 0 6 2.2 25.2 6.1 53.3 1.6 11.8 3.5 28.4 4.1 36.8 1.9 25.8-1.3 48.6-9.2 64.2-4.4 8.7-16.3 26.3-24.2 35.6-8.9 10.6-21.8 21.7-23.5 20.1-1-1.1.6-7 3.7-13.6 7.6-15.9 12.7-70 10.9-114.4-1.2-29.3-4.3-54.5-10.5-84.7-3-14.7-9-29.7-25.4-62.9-46.1-93.1-104-168.7-173.7-226.6-5-4.2-9.9-7.1-16.5-9.9-5.1-2.1-28-13.4-50.8-25.1-44.8-23.1-49.1-25.1-51.7-24.1-1.4.6-.9 1.4 2.7 4.6 12.7 11.1 30.9 21.3 62.8 34.9 51.4 22 58 26.7 95.4 67.9 71.9 79.1 120.3 155.6 147.7 233.7 2.8 7.9 4.7 15.6 5.6 22.5 13.1 99.1 10.7 149.3-9.1 196.5-2.2 5.4-3.2 6.4-8.9 9.8-12.2 7.4-22.3 9.6-27.3 6.1-8.9-6.2-9.4-24.1-2-73.9 2.8-19 3.2-23.9 3.6-51 .6-43.1-1.6-66.5-9.3-98-6.1-25.4-13.8-46.1-26.5-72-21.6-44-43-73.3-86.9-119-45.9-47.8-76.3-73.1-105.3-87.9-10.7-5.4-26.8-11-35-12.2-6.7-.9-6.2 1.1 1 4.2 74.8 33 144.7 97.8 202 187.6 24.7 38.6 33 56.4 41.1 88 12.8 49.6 13.9 86.5 6.1 197.8-1.1 15.7-2 30.9-2 33.9 0 4.7-.4 5.7-3.2 8.5-4.4 4.3-15.4 7.8-34.4 11.1-8.1 1.4-15 2.8-15.3 3-1.4 1.5 2.7 1.8 20.6 1.6 30.9-.3 38.1-2.2 74.8-19.8 33.4-16 42.3-19.1 54.6-19.4 3-.1 32.9-1.9 66.4-4 33.6-2.1 73.4-4.5 88.5-5.4 31.3-1.7 99.3-3.7 101.2-3 .7.3 27 .7 58.3.9 31.4.2 66.9.7 79 1.1 44.2 1.5 67.6-4.2 87.9-21.6 7.3-6.2 14.3-9.4 39.3-17.9 26.7-9.1 41-16 48.6-23.6 9.1-9 11.5-18.1 8.2-30.9-1.9-7-3.4-8.8-13.2-15.6-12.7-8.8-25.9-13.9-44.8-17.5-7.4-1.4-16.4-1.8-52-2-48.9-.3-57.7-.7-69.3-2.9-17.6-3.4-31.8-9.5-45.2-19.6-8-6.1-8.2-6.3-7.6-9.7.8-5.2 5.5-12.2 10.9-16.3 14.2-10.7 38.7-12.4 89.3-6 13.2 1.7 28.1 3.3 33 3.7 4.9.3 20.6 2.1 34.9 4 29 3.9 49.8 5.3 50.9 3.6.4-.6-.4-1.8-1.8-2.7-3.6-2.4-25.4-8.3-38.1-10.4l-11-1.7 5.9-1.5c6.4-1.5 7.9-3.1 4.7-4.9-5.8-3.1-58.3-6.3-100.6-6.2-93.6.4-120.1 3.8-142.7 18.8-11.1 7.4-19.8 18.5-24.3 31.3l-1.4 4.1 7.2 5.4c25 18.7 55.4 24 117.2 20.6 9.4-.5 41.1-1 70.5-1.1 45.9-.2 55 .1 64.3 1.5 36 5.6 48.5 18.2 41.5 41.8-1 3.5-1.5 3.8-12.7 8.1-54.3 21-106 31.3-215 42.7-21.2 2.3-48 5.2-59.6 6.5-62.5 7.2-115.7 8.7-233.2 6.6l-35.2-.6 6.5-9c9.8-13.5 16.9-25.3 25.9-43 14.3-28.3 25.2-58 42.5-115.9l8.6-28.9-2.3-13.6c-2.9-16.9-10.6-46.8-17.1-66.6-9.7-29.5-19.6-54.8-44.4-113-20-47-21.8-51.4-26.9-66.4-4.7-13.3-8.2-20.6-15.3-31.6-20.2-31-53.2-52.4-91.1-59-4.9-.9-17.1-1.8-27-2-34.3-.9-41.8-2.1-90.5-14-19-4.6-39.7-9.3-46-10.4-10.2-1.8-53-6.3-56.9-6-.9.1-4.3.5-7.5 1zM424 92.5c36.4 3.4 50.4 6.2 63.5 12.8 11.3 5.6 18.7 13.3 22.7 24 1 2.7 2.7 11.7 3.7 19.9s2.1 15.2 2.5 15.5c1.6 1.6 1.7-1.8.2-17.4-.9-9.2-1.6-21-1.6-26.1v-9.3l4.3.5c2.3.4 12.1 1.3 21.7 2.1 26.8 2.4 45.9 4.7 57.5 7.1 2.8.6 2.7.7-2.3 2-21.9 5.6-70.2 34.4-70.2 41.9 0 3.4 3.1 2.5 9.5-2.7 9-7.5 18.3-12.6 41.5-22.8 11-4.9 22.9-10.4 26.5-12.4l6.4-3.5 7.2 2.4c8.9 3.1 14.9 6.5 18.3 10.6 3.3 3.9 3.5 7.9.4 7.9-7.9 0-30.3 10.9-51.9 25.1-21.5 14.2-32 22.6-29.7 24 1.6 1 4.7-.7 24.8-13.9 21.7-14.2 30.8-19.2 43-23.4 8.3-2.8 10.8-3.2 20-3.3 9.2 0 11.2.3 16 2.6 11.7 5.5 20.6 18.8 25.4 37.9 2.7 10.6 6.8 21.6 15.8 42 4.8 10.8 5.7 13.6 4.6 14.5-16.1 12.6-27.4 20-38.8 25.4-20.7 9.9-38.1 9.7-51.4-.5-5.4-4.1-12.6-13.9-16.1-21.9-4.4-9.9-34.2-42.3-58.5-63.8-29.9-26.3-65.5-49.4-95.9-62.2-4.1-1.7-14.1-8.4-28.1-18.8-11.9-8.9-23-17.2-24.6-18.3l-2.9-2.2 5 .9c2.8.5 16.9 2.1 31.5 3.4zm297.2 192c15.2 33.8 22.7 53.5 27.3 71.7 2.9 11.2 4.7 26.6 3.8 32.1l-.6 3.8-4.1-.6c-12.8-2.1-26.9-8.8-46.6-22.1-32.1-21.8-35.1-24.1-38.8-30.1-5.7-9.3-11.1-16.2-13.9-18-1.4-1-4.6-4.4-7-7.6-5.3-7.3-5.9-12.8-1.8-17.4 2-2.3 2.4-2.5 2.5-1 .1 6.2 9.4 16.7 22.5 25.2 23.5 15.5 68.1 32.5 72.8 27.9 1.3-1.3-1.4-4.3-4.5-4.9-15.1-3.2-41.2-14.7-56.5-24.8-10.2-6.7-28.4-22.2-30.3-25.7-1.4-2.6 0-3.4 21.6-13.1 25.9-11.5 32.4-15.7 36.5-23.5l2.4-4.3 2.8 6.2c1.6 3.4 6.9 15.2 11.9 26.2zm-25.8 90.4c5.3 2.9 17.3 8.7 26.8 12.7 32.7 14.2 44 21.8 50.6 34.1 5.8 10.9 7.8 30.3 4.1 40-.5 1.5-6 19.2-12 39.3-15 49.6-23 73.3-29.5 86.3-2.9 5.9-8.6 14.7-9.5 14.7-.3 0-.9-13.6-1.2-30.3-1.2-57.8-6.7-100.9-17.5-136.8l-2.9-9.7 7.1 5.4c12.5 9.5 44.2 23.9 57.4 26 3.5.5 4.2.4 4.2-1 0-1.9-9.1-6.6-23-12-28.2-10.9-38.8-19-52.5-39.6-5.5-8.4-24.5-43.6-24.5-45.5 0-.4 2.9 2 6.4 5.2 3.6 3.3 10.8 8.3 16 11.2zm349.5 110.9c-11.6 6.1-14.5 16.4-8.1 29.3 5.4 11.2 21.4 24.1 34.6 28.1l4.1 1.3-5.7.5c-9.2.8-42.2-.7-54.3-2.5-21-3.1-33.8-7.7-39.9-14.5-3-3.3-3.6-4.8-3.6-8.3.1-6.2 3.1-11.9 10.2-19.1 5.3-5.4 7.6-6.8 14.6-9.5 13.2-5 28.3-7.6 46.1-8l7.3-.1-5.3 2.8zm183 133.6c-.6.6-57.7 27.2-74.9 34.9l-13.5 6-27.5.8c-35.6 1.1-157.5-.5-144.5-1.8 1.7-.2 23.9-2.4 49.5-4.9 73.2-7.1 112.2-12.2 148.1-19.4 16.8-3.4 51-12 57.4-14.4 4-1.5 6.2-2 5.4-1.2zm-520.7 43.5c12.8 3.3 30 4.4 60.3 3.9 27.4-.4 27.7-.4 15.2.8-23 2.3-50.8 4.4-58.6 4.4-13.6-.1-30.1-3-30.1-5.3 0-1.2 4-5.7 5-5.7.4 0 4.1.9 8.2 1.9z"/><path d="M655.5 178.4c-20.4 5.4-54.2 21.5-70.3 33.5-4.4 3.3-5.8 5.9-4 7.7 1.1 1.2 2.3.7 7.3-3.2 8-6 26.2-14.8 47.5-22.9 20.9-7.9 35.2-14.4 34.7-15.9-.6-1.9-5.9-1.6-15.2.8zM678.5 216.8c-9.5 3.3-25 11.3-39.3 20.3-20.5 12.7-34 24.6-25.8 22.5 2.9-.7 19-9.8 27.5-15.5 10.2-6.8 12.6-8.1 24.6-12.8 17.1-6.6 22.4-10.2 22.5-15.1 0-2.7.2-2.8-9.5.6z"/></g></svg>