<svg version="1.0" xmlns="http://www.w3.org/2000/svg" width="22.54" height="40" viewBox="0 0 721 1280"><path d="M404.3 1.5c-7.9 1.4-18 4.6-26.1 8.2-4.1 1.8-7 2.3-13.5 2.3-4.6 0-10.9.7-14.2 1.5-12.1 3.2-26.5 13.3-26.5 18.7v2.6l-4.7-1.5c-6.9-2.2-26-2.2-34.3 0-9.8 2.6-23.6 9.8-32.2 16.9-4.2 3.5-7.7 6.8-7.7 7.4-.1.7 2 1.7 4.5 2.3 4.6 1.2 16.4 6.7 16.4 7.6 0 .3-2.3-.6-5.1-2.1-2.8-1.4-5.5-2.2-6-1.7-.4.4-.2 2.7.6 5s1.7 6.2 2.1 8.5l.6 4.3-5.7-5.7-5.6-5.7-5 1.9c-8.2 3.3-12.8 5.9-17 9.7-3.6 3.3-7.9 9.8-7.9 12.1 0 .5 3 2.1 6.7 3.6 11.3 4.6 11.8 5.5 2.6 4.9-9.6-.7-15.3 1.3-15.3 5.3 0 1.9 1.6 3.5 7.5 7.3 4.1 2.7 8.9 5.2 10.5 5.6 1.7.4 3 .8 3 1 0 .2-1.1 2.5-2.5 5.2-2.8 5.5-5.5 15.2-5.5 19.9 0 2.4-.5 3.4-2 3.9-1.1.3-2.5 1.6-3.1 2.7-.9 1.6-.7 2.6 1.1 5 4.5 6.1-.5 16.5-17.8 36.8-6.7 7.9-8.9 12.2-10.2 20.3-1.6 10.2.3 21.6 7.6 45.7 5.1 17.2 7.7 27.7 10.4 43 3.3 18 8.4 25.1 20.3 28.2 7.2 1.8 59.4 1.8 69.1 0 5.5-1 7.1-1.1 7.7-.1 1.3 2.2 6 28.4 5.4 30.1-.4.9-2.5 2.4-4.7 3.3-8.8 3.5-17.2 10.8-26 22.6-7.4 9.9-13 15.3-27.8 26.7-27.1 21-35 33.4-32 50.4 1.8 9.7 6.1 17.9 12.7 23.7 5.6 5 5.7 5.1 2.7 5.1-6.5 0-99.3 14.2-101.5 15.6-.5.3-.9 1.2-.9 2 0 1.9.1 2-8.6-3.8-6.9-4.6-32.6-18.8-33.9-18.8-1.9 0-24.6 21-28.6 26.4-3.6 4.9-3.9 11.9-.8 20.1 2.4 6.4 8.2 11.5 13.1 11.5 1.5 0 2.8.4 2.8.9s-1.2 4.9-2.6 9.7c-1.4 4.9-3.1 11.8-3.8 15.4l-1.2 6.5-12 2.7c-6.5 1.4-18 3.9-25.6 5.3-11.9 2.4-13.7 3-14.2 4.9-1.9 6.8-8.5 93.8-13.1 173.6-.9 14.6-2.5 41.3-3.6 59.5C1.8 843.6.6 870.1.3 884.2c-.5 23.2-.4 25.8 1 26.4.9.3 6.7-.6 12.9-2 6.2-1.5 12.2-2.9 13.4-3.1 1.6-.4 3.1 1 7.1 6.8 2.8 3.9 7 9.4 9.3 12.1 3.9 4.3 4.7 4.8 7.7 4.3 4.1-.7 39.3-15.5 65.3-27.5 46.7-21.5 72.7-35.1 88.1-46.2.4-.3.2-5.3-.6-11-2.5-19.7-4.5-41.5-8.5-94.5-7.8-103.6-9.1-119.2-13.1-157.5-1.2-11.3-2.5-21.4-3-22.6-.7-1.9-1.2-2-5.6-1.3-7.3 1.2-7.2 1.2-7.5-3.4l-.3-4.2-4 .3c-3.8.3-33 5.7-36.7 6.8-1.3.4-3.4-2.1-8.7-10.3l-7-10.8 2.7-.3c7-.8 10-2.2 11-5.1 1.1-3.2 3-4.5 7.9-5.4l3.2-.6-.6 6.4c-.7 7.6-.3 7.8 9 4.6 3.1-1.1 10.2-2.9 15.9-4 17.5-3.5 67.2-9.1 80.9-9.1h7.6l2.2 7.2c1.2 4 4.9 16.3 8.1 27.3 5.2 17.5 9.3 30.3 11.4 35.6.5 1.2-.1 2-2.3 2.9-3.9 1.6-3.9 2.1 0 20.6 3.3 16 5 21.1 7.3 22 1.2.4 1.3 1.1.4 2.9-.8 1.7-.6 6.4.7 17.7 2.2 19.6 3.1 55.2 1.6 63.2-.7 3.6-.7 6.4-.2 6.9.5.5 3.3 1.2 6.2 1.5 6.5.8 5.3-4.1 10.8 45.3 5.8 51.3 7.9 74.9 8.6 93.9 1.3 36.6 3.9 55 11.1 78.6 10.9 35.9 17.8 78.4 22.4 136.9.6 7.7 1.3 15.8 1.6 18.1.6 4.6-1.1 6.3-4.6 4.4-3.8-2-4.3 1.7-3.6 23.9.3 11.3 1.2 24.3 1.9 28.9 1.2 7.4 1.8 8.7 5.2 12.2l3.8 3.9-1.7 4.3c-1 2.4-2.4 5-3.2 5.9-2.5 2.7-2.7 7.1-.5 11.3l2.1 3.9-3.7 4.5c-2 2.4-6.6 6.9-10.2 9.9-13.9 11.6-24.8 15.8-39 15.1-7.7-.4-9.4-.8-15.4-4.1-3.7-2-7.3-3.7-8-3.6-1.1 0-16.1 17.1-18 20.5-1.3 2.2 7.4 10.7 15.1 14.7 12.9 6.8 28.7 9.7 52.3 9.7 16.9 0 20.6-.7 33.6-6.1 5.1-2.2 9.6-3.9 10.2-3.9.5 0 1.1 2.4 1.3 5.2l.3 5.3 12-.4c6.6-.2 14-.6 16.5-1l4.5-.6.5-25.5c.6-24.7.7-25.7 3.3-32.4 3.3-8.4 3.4-13.5.5-24.8l-2.2-8.6 2.8-7.9c5.3-14.9 5.6-16.7 5.6-36.4 0-16 .3-19.6 2-25.3 1.2-3.7 1.8-7.1 1.5-7.6-.3-.6-3.1-1-6.2-1h-5.6l.6-6.3c2.6-26.1 3.9-52.3 3.4-72.7-.5-24.9-1.4-29.6-9.2-50-6.9-17.9-12.4-35-14-43.1-1.9-10.3-1.9-29.6 0-50.4 1.4-15.7 3.4-31.7 4-32.3.1-.1 3.7 5.9 8 13.5 13.5 23.8 44.2 72.2 69.1 108.8 26.6 39.3 51.2 82.2 64 111.9 3.9 9.2 4.1 10.1 2.6 11.2-1 .7-2.9 1.4-4.2 1.6-4.4.6-3 5.6 6.7 24.7 11.9 23.7 22.5 41.5 27.8 47.2 4.8 5.1 5.2 6.7 4.6 17.2-.2 4.1.1 5.1 2.6 7.5 1.6 1.5 3.7 3.2 4.7 3.7 1.6.9 1.7 1.9.7 12.1-1.6 17.3-5.7 26-14.5 30.7-3.7 2-5.6 2.2-18.9 2.2-12.2 0-15 .3-15.6 1.5-.4.8-1.6 5.3-2.6 9.9-2 9.8-2.1 9.7 7.5 13.6 13.1 5.2 21.5 6.9 35 6.9 14.8-.1 21.6-2.1 28.6-8.6 5.1-4.7 7.5-8.7 13.9-23.7 2.6-6.1 5.1-11.4 5.6-11.6.4-.3 2.4 1.7 4.4 4.5 2 2.7 4.1 5 4.7 5 1.1 0 22.3-16.6 25.1-19.8 1.7-1.9 1.5-2.3-7.3-15.6-14-21.2-15-23.3-16.6-34.2-1.7-11.1-2.6-13.2-8.7-20-6.1-6.8-6.4-7.5-8.2-20.8-1.9-13.8-3-17.1-9.4-29.1-5.8-10.8-8-16.4-8.9-23-.8-5.3-1.4-5.7-7.3-4.1-2.4.7-2.6.4-5.8-8.1-20.2-53.9-36.1-88.8-49.9-109.8-8.9-13.6-13.9-20-26.2-33.5-16.4-18-22-26-28.1-40.3-1.7-4-8.4-25.7-14.9-48.2-6.5-22.6-16.9-57.7-23-78-6.2-20.4-11.5-37.9-11.7-39-.4-1.7.7-2.4 7.4-4.9 15.5-5.7 38.3-18.2 38.3-21 0-.7-4.1-5.3-9.1-10.2-15.8-15.4-32.1-37-45.9-60.8-3.5-5.9-8.5-13-11.2-15.7-9.1-9.1-22.6-14.2-37.3-14.2h-9l-3.2-4.1c-1.8-2.2-4.9-6-7-8.4-3.5-4.1-4-4.3-6.6-3.3l-2.8 1.1.6-6.8c.3-3.7 1.2-15.9 2-27.2 2.3-30.4 5.5-52.8 9.6-67.4l1.1-3.9 4.2 7.9c11.5 21.4 34.9 60.6 54.4 90.8 36.3 56.5 54.2 89.2 62.2 114.1 5.4 16.8 5.6 17 8.9 10.7l2-3.7.1 6.6c0 5.5.6 7.8 4 14.8 2.2 4.5 4 8.7 4 9.3 0 .6-3.9 5-8.7 9.7-9.1 8.9-14.3 17-14.3 21.8.1 7.2 4.7 13 21.1 26.7 17.5 14.7 29.6 20.6 44.1 21.4 13.8.7 26-3.9 37.6-14.3 16-14.4 40.4-52.1 47.7-73.9 4.9-14.6 2.9-27.7-5.1-32.7-2-1.2-6.8-2.6-11.5-3.3l-8.1-1.1 3.2-2.3c1.8-1.3 3.8-3.9 4.6-5.8 1.7-4.1 1.7-4.6.1-6.8-1.2-1.6-1.6-1.6-8.7.3-9.7 2.7-24.6 4.7-50.6 6.7l-21 1.6-3.8-3.4c-13.5-11.8-44.9-63-74.9-122.4-4.8-9.3-8.5-15.2-13.2-20.5-10.1-11.4-19.1-30.7-25-53.5-2.1-8.2-15.5-73.2-15.5-75.3 0-.3 2.9 5.8 6.4 13.7 10.5 23.2 26.2 52.4 45.1 83.9l4.9 8.2 6.2.6c9.3 1 109.2-.1 122.4-1.4 6.3-.6 14.4-1.6 18-2.2 7.1-1.1 16-4.6 16-6.2 0-.5-4.9-6.1-10.9-12.3-16.5-17-31.4-36.3-43.3-55.9-7.4-12.3-17.1-30.5-16.5-31.1.2-.2 1.2.8 2.2 2.3 6 9.2 37.5 38.2 57.5 53 18.5 13.7 46.2 29.5 48.2 27.5.7-.7-3.3-6-11.4-15.4-22.2-25.7-39.4-48.3-56.1-74-15.6-23.8-15.6-23.8 2.9-5.8 33.3 32.6 65.8 55 86.4 59.6 3.8.9 8.1 1.3 9.4 1 1.3-.3 4-2.6 6-5 5.5-6.7 29.6-42.7 29.6-44.1 0-.8-3.5-2.5-8.2-4.1-42.4-14-81.2-32.9-106.7-52.2-8.9-6.7-24.4-20.3-23.8-20.9.2-.1 4.2 2 8.8 4.8 40.9 24.7 96.7 41.5 126.2 37.9 13.2-1.6 17.2-3.6 20.3-10.4 2.7-5.9 5.1-16.3 5.6-24.1l.3-4.9-12.5-1.3c-21.6-2.3-42.1-7-63-14.5-18.7-6.6-47-22.1-58-31.7-3.3-2.9-2.7-2.7 11.5 3 39.8 15.9 57.5 20 100.2 23.5 14.3 1.2 20.8 1.3 21.5.6 1.9-1.9 2.1-21.9.4-34.5-2.2-15.6-2.7-16.7-7-16.7-1.8 0-9.2-1.3-16.3-2.9-64.5-14.7-101-36.5-124.5-74.3-6.6-10.6-10.7-19.6-22.8-49.3-12-29.5-17.6-40.9-27.9-56.1-16-23.7-35.2-42-55-52.3-20.3-10.6-41.8-14.2-61.8-10.6zM239.4 110.4c.4.1 0 .8-1 1.6-1.4 1.2-1.6 1.2-.9.1.6-1.1.1-1.3-2.6-.9-1.9.3-5 0-6.9-.7-3.3-1.2-3-1.2 3.5-.8 3.9.3 7.4.6 7.9.7zm115.9 208.5c-.7 9.5.8 20.9 4.8 35.8 1.6 6.2 2.9 11.4 2.9 11.8 0 .3-1.6-1.3-3.7-3.6-2-2.2-5.6-5.2-8-6.6l-4.3-2.5v-10.5c0-12.7 3-27.3 6.3-30.3 1.1-1.1 2.2-2 2.3-2 .1 0 0 3.5-.3 7.9zM100.5 551.7c.4 3.2 1.3 8.9 2.1 12.7.7 3.8 1.1 7.2.8 7.5-.3.3-3.8 1.3-7.9 2.2l-7.2 1.6-.7-6c-.3-3.3-.6-9.7-.6-14.3v-8.3l5.8-.4c3.1-.2 6-.4 6.4-.5.4-.1 1 2.4 1.3 5.5zm6.5-3.5c.5 1.3 3.4 6.3 6.4 11.3l5.6 9-3.8 1.2c-6.7 2.1-6.9 1.9-7.7-4.9-.4-3.4-1.5-9.1-2.5-12.5-1.4-5.2-1.5-6.3-.3-6.3.7 0 1.8 1 2.3 2.2zm-24.3 28.4c-.2.2-1.9.7-3.7 1-3 .7-3.3.5-2.5-1.2.5-1 2-6.4 3.4-11.9l2.6-10 .3 10.9c.1 6 .1 11-.1 11.2z" fill="#FF9C08"/></svg>