<svg version="1.0" xmlns="http://www.w3.org/2000/svg" width="32.88" height="40" viewBox="0 0 1049 1280"><g fill="#FF9C08"><path d="M419.4 1c-1.2.4-2.4 1.5-2.7 2.4-.4.9-1.7 1.6-3 1.6s-4.2 1.3-6.4 2.9c-2.2 1.6-5.5 3.7-7.4 4.6-11.3 5.7-10.8 9.1 4.9 33.3 15.4 23.6 16 25.8 8.5 29.6-2.7 1.3-7.9 3.6-11.8 5.1-12.5 4.9-28.9 13.1-33.8 16.9-2.6 2-6.1 3.8-7.8 4-1.6.2-3.7 1-4.7 1.9-.9.8-4.7 2.8-8.3 4.5-3.9 1.7-7.4 4.1-8.7 5.9-1.2 1.8-3.7 3.4-6 4.1-4.1 1.3-11 6.1-22.2 15.8-3.6 3-10.3 7.8-15 10.6-13 7.7-24.8 17.8-44.5 38.4-30.1 31.3-36.2 38.3-47 53.9-5.7 8.2-11.8 16.5-13.6 18.2-4.5 4.7-5.9 4.7-17.5-.3-9.4-4-12.8-4.2-31.4-1.9-31.8 3.9-50.7 12-56.1 24-3.1 6.7-2.5 18.5 2 41.8C94.3 356 99 385.6 99 394.6c0 5-.8 7.6-5.9 18.4-3.2 6.9-7.9 18.2-10.4 25.1-5.3 14.7-10.9 27.4-21.2 47.9L54 500.9l-4.2 1.1c-25 6-40.4 15.5-46.5 28.5-4 8.5-3.8 19.4.5 36.1 1.7 6.6 3.9 16.3 4.7 21.5.9 5.2 4 18.6 7 29.9 11.1 42 14.6 57.2 20.4 88 1.1 5.8 3.8 18.8 5.9 29 2.2 10.2 5.7 26.4 7.7 36 4.7 22.4 17.8 75.7 20.5 83.5 1.1 3.3 3.2 10.9 4.6 17 1.3 6 3.8 15.3 5.4 20.5 1.6 5.2 4.3 14.8 6 21.3 3.4 12.9 14.2 47.5 21.5 68.7 7.8 22.8 23.1 52.7 28.3 55.4 1.5.7 5.3 1.9 8.5 2.6 6.7 1.3 8.6 3.6 6.8 8.3-.7 1.9-2.8 3.4-7.4 5.5-10 4.6-10.4 8.7-2.4 22.1 3.6 6.1 8 16.4 9.2 21.6.4 1.6 2.1 6.1 3.7 9.9 3.5 7.9 7.2 22.1 8.7 32.6 1.1 8.3 2.8 10.6 12.1 17 6.1 4.1 12.1 10.3 14.4 14.7 2.1 4.1 10.6 11.7 16.2 14.6 2.7 1.4 8.3 3.5 12.4 4.7 4.1 1.2 7.9 2.6 8.4 3.1 2 1.8-3 2.2-9.3.6-8.5-2.2-9.8-2.1-11.2.4-.9 1.7-.7 2.6.8 4.8 1.5 2 4.8 3.5 14.9 6.8 25.3 8.1 26.9 8.8 26.9 10.3 0 2.3-3.6 2.3-14.6.1-10.7-2.2-28.3-2.9-29.4-1.1-1.1 1.8 1.4 4.7 5.7 6.8 5.6 2.6 33.6 8.8 45.8 10.1 5.2.6 17.2 1.6 26.5 2.1 18.7 1.2 21.8 1.7 21.2 3.4-.5 1.6-4.8 3.6-7.8 3.6-2.9 0-7.9 3.4-7.9 5.5 0 1.9 3.8 2.2 40.5 3.5l33 1.2 4.7 4.5c4.3 4.3 5.1 4.6 13 5.8 4.5.8 11.5 2.1 15.3 2.9 3.9.9 9.7 1.6 13 1.6 7.7.1 22.7 2.2 38 5.3 28.8 6 69.4 8.5 110.7 6.9 15.8-.6 29.5-1.5 30.4-2 1.4-.8 1.3-1.3-1.4-4.3-2.8-3.1-3.4-3.3-11.3-3.9l-8.4-.6 5.7-1.7c6.4-2 38.1-3.9 44.8-2.7 2.1.4 5.3 1.9 7 3.4 2.1 1.7 4.3 2.6 6.5 2.6 4.3 0 44.2-7.8 67.4-13.2 27.8-6.4 57.1-16.5 64.8-22.4 4.3-3.3 7.3-8 7.3-11.7 0-2.3-.4-2.7-2.7-2.7-1.6 0-7.3 1.6-12.8 3.6-21.5 7.7-32.7 11.4-34.5 11.4-1.1 0-4.3.9-7.2 2.1-2.9 1.2-13.7 4.3-23.9 6.9-10.3 2.7-22.2 6.3-26.5 8-6.9 2.9-9.4 3.3-20 3.7-8.5.4-15.6.1-24-1.1-8.9-1.3-13-1.5-16.4-.7-2.5.5-11.5 1.4-20 2.1-43.5 3.1-46 3.6-49.9 9.1-1.4 2-3.5 4-4.5 4.3-3.8 1-59.7-2.4-66.3-4-1.3-.4-2.3-1-2.3-1.4 0-1.1 4.8-1.8 19.7-2.9 12.1-1 14.9-1.7 17.1-4.4 1.7-2-.2-3.4-5.8-4-5.7-.6-51.2 1-69 2.4-7.4.6-15.2 1.1-17.2 1-4.9-.1-13.8-3.3-19.6-7-2.6-1.6-6.7-3.4-9.2-4-2.5-.5-6.5-1.7-8.9-2.5-2.4-.9-10.5-2.1-17.9-2.6-13.6-1.1-26.7-3.6-31.9-6.4-1.5-.7-5.1-2.9-7.9-4.8-2.8-1.9-9.2-4.9-14.2-6.7-5-1.8-12.6-5.3-16.9-7.8-4.3-2.4-9.3-5.1-11.1-5.9-1.9-.8-3.2-1.9-2.9-2.6.7-2.1 7.2-1.1 14.9 2.3 6 2.6 7.8 3 12.2 2.5 4.1-.5 8.6.2 23.1 3.8 27.7 6.8 29.7 7.1 37.5 4.7 9-2.9 18.3-2.7 47.3.9 30.4 3.7 45.8 4.9 52.2 4.1 4.2-.5 5.1-1 5.3-2.8.4-2.7-3.2-9.4-5.9-11.1-2.3-1.4-15.1-2.8-34.4-3.7-7.7-.3-22.7-1.8-33.2-3.2l-19.3-2.6-7.9 3.2c-4.4 1.7-9.7 3.1-11.8 3.1-3.6 0-12.9-2.1-33.3-7.6-17.4-4.7-25.2-9.4-13.2-8 13 1.5 31.8 1.9 34 .7 4.9-2.6.8-6.5-8.6-8.3-15.6-2.9-19.8-5.3-12.1-7 4.8-1 13.1.1 21.7 2.8 4 1.3 13.4 3.6 21 5.1 15.5 3.1 15.4 3.1 95.2 1.5l43.6-.9 10.9-5c6.1-2.7 12.9-5.8 15.3-6.8 5.8-2.5 7.1-4.9 3.7-7.1-3.4-2.2-7.2-1.5-19 3.6-14.7 6.3-17.2 6.4-57.4 3-11.4-1-21.3-1-46.5-.1-42.5 1.6-56.6.3-61.8-5.6-2.1-2.3-4.8-9.6-4.8-12.9 0-1.2.8-3 1.7-4 1.5-1.5 3.8-1.6 21.3-1.2 10.7.3 20.1.3 20.8.1 1.7-.6 1.5-3-.4-3.7-.9-.3-3.3-.6-5.4-.6-2 0-5.7-.7-8.1-1.6-2.4-.9-8.3-2-13.1-2.4-9.1-.8-15.8-2.5-15.8-4.1 0-.5 1.6-2.6 3.5-4.8 1.9-2.1 3.5-4.5 3.5-5.4 0-3.3-7-3.6-15.6-.7-7.1 2.5-20.3 3.7-23 2.2-1.7-1-1.3-1.3 3.1-3.2 11.3-4.7 14.1-6.8 11.8-9.1-.5-.5-9.2-1.6-19.3-2.4-22.2-1.8-31.5-3.5-46.1-8-6.1-1.9-12.3-3.5-13.7-3.5-4.6 0-10.1-2-11.2-4.1-.9-1.5-.7-2.1.5-2.6 3.4-1.2 17.5.6 30.5 4.1 12.6 3.3 15.3 3.6 40.5 5 14.9.9 30 1.8 33.6 2.2 5.3.5 6.8.3 7.9-1 2.1-2.6-.3-6.4-5.3-8.6-5.6-2.5-13.7-3.7-33.2-5-38.8-2.6-48.2-3.8-50.6-6.6-2-2.4 1.8-2.9 23.6-2.8 14.7.1 26.4.7 39 2.2 21.8 2.7 25.4 2.7 26.2.6 1.2-3.2-1.6-6.5-8.1-9.4-8.4-3.8-21.8-6.5-45.6-9-42.1-4.5-47.9-5.5-52.1-8.9-5.1-4.1 2.2-5.3 15.4-2.6 14.9 3 35.7 5.7 49.4 6.2l14.1.6 4.8-3.2c2.6-1.7 5.9-3.1 7.3-3.2 14.2-.3 22.1-2.7 22.1-6.9 0-3.5-2.8-4.3-18.3-5.2-33.2-1.9-85.3-13.5-96.6-21.4-17.4-12.3-49-26.4-59-26.4-6.3 0-13.3-3.1-18.2-8-2.9-2.9-4.9-5.8-4.9-7.1 0-1.9.4-2.1 3.8-1.6 6.1 1 65.6 23.5 108.7 41.1 17.8 7.3 41.1 12.8 67.5 16.1 16.6 2 21.2 1.9 24.1-.4 4-3.3 1.6-6.2-9.8-11.6-5.4-2.6-12.1-6.4-14.8-8.5-6.7-5.1-8.6-5.8-21.7-7-6.2-.6-18-2.5-26.2-4.1-8.2-1.7-21.5-3.9-29.4-5-8-1-16.4-2.4-18.6-3-4.9-1.3-15.6-6.8-15.6-8 0-1.7 8.1-.9 21.3 2 16.2 3.6 28.9 5.4 56.2 8.2 11.6 1.1 25.3 2.9 30.5 3.9 26.2 5 36.2 5 36.8-.2.4-3.6-2.4-5.3-11.7-7.3-12.8-2.7-27-6.4-47.6-12.5-29.5-8.8-36.6-9.3-38-3-.5 2.3-1.2 3-3 3-4 0-14.9-3.8-18.5-6.6-1.9-1.4-5.5-3.5-8-4.6-10.5-4.6-37.2-12.4-59.5-17.4-28.2-6.3-31.5-7.4-34.9-11.8-3.3-4.4-6.1-10.4-5.3-11.3.4-.3 15 4.1 32.5 10 19 6.4 41.5 13.1 56.1 16.7 32.1 8 92.2 19.1 105.1 19.3l9.5.2v-3c0-2.4-.5-3.1-3-3.9-6.8-2-8.7-3-10.2-5.3-2.1-3.2-.3-5.3 4.8-5.3 4.8 0 9.2-1.6 8.7-3.2-1.3-3.8-12.9-7.5-26.3-8.4-7.2-.5-9.4-.3-11 .9-1.9 1.5-1.9 1.6-.1 3.6 1.1 1.2 2.5 2.1 3.2 2.1.8 0 3.2.7 5.4 1.6 6.4 2.6 3.9 3.7-6.9 3.1-16.2-.9-37.6-7.6-37.6-11.7 0-1.3 3.1-1.6 19-2.1 16.1-.4 19.8-.8 24.3-2.6 6.8-2.7 14.7-7.8 17.3-11.1l2-2.7-2.1-1.7c-3.5-2.8-14.8-5.9-23.5-6.5-6.9-.5-8.3-.3-10.4 1.4-3.2 2.6-2.2 3.9 3.5 4.8 6.4.9 9.4 2.2 9.4 3.9 0 .8-1 1.8-2.2 2.2-4.9 1.7-40.6-.6-58.3-3.7-7.6-1.3-16.8-6.4-24.5-13.6-11-10.1-8.4-10.7 24.4-5.8 31.5 4.7 36.6 5.1 43 2.8 4.8-1.7 7.7-4.5 6.3-5.9-.3-.4-4.6-1.1-9.4-1.6-21.4-2.2-32.1-3.9-51.8-8.3-21.2-4.7-26.3-5.7-45.9-9.5-5.9-1.1-13.8-3.1-17.5-4.4-8.3-3-26.1-11.2-26.1-12.2s8.5.3 24.8 4.1c8.3 1.9 22 4.4 30.4 5.5 20.5 2.7 42 6.5 54.8 9.7 9.8 2.4 12.4 2.6 38 3 28.9.5 33 0 33-3.6 0-4.1-18.7-13.5-31.1-15.7-4.5-.8-10.1-1.9-12.3-2.5-2.3-.6-9.5-2.1-16.1-3.3-6.9-1.2-11.8-2.5-11.5-3.1.7-1.4 19.7-1 30.7.5 4.8.7 11.2 2.1 14.2 3.1 6.8 2.4 7.6 2.4 10.1-.1 2.9-2.9 1.4-5-5.9-8.9-7.7-4.1-12.5-8.1-11.3-9.3.5-.5 5-1 10-1.1 7.3-.2 9.4-.6 11.1-2.1 3.1-2.8 2.6-4.1-2.8-7.5-6.1-4-23.3-12.4-28.4-14.1-8.4-2.7-1-4.7 18-4.9 9.8-.1 11.6-1 8.7-4.2-2.5-2.8-10.4-4.8-23-5.9-11.9-.9-39.1-6.6-51.4-10.7-5-1.7-11.5-5.2-19.3-10.4-6.5-4.4-12.3-7.9-12.8-7.9s-.9-.7-.9-1.5c0-2.3 8.3-1.9 17.7.9 4.5 1.4 14.1 3.6 21.5 5.1 7.3 1.5 18.6 4 25 5.5 22.6 5.5 43.9 6.5 49.5 2.4 3.7-2.8 4.2-6.1 1.1-7.3-1.3-.4-6.8-1.1-12.3-1.5-25.6-1.8-69.1-11.3-75.9-16.7-2.6-2.1-3.4-5.3-1.6-6.4.6-.4 5 .5 9.8 1.9 17.5 5 54.6 11.6 65.8 11.6 4.8 0 6.5-.4 7.9-2 4-4.5.8-5.6-34.7-11.6-11-1.8-24.8-3.9-30.7-4.5-10.3-1.2-14-2.6-12.7-4.8 1.1-1.6 8.6-1.3 24.1 1 10.3 1.5 21.2 2.2 41.3 2.6l27.2.6v-8.1l-7.2-.6c-4-.3-14.3-1-22.8-1.6-34.2-2.3-70.5-9.7-86.1-17.6-2.6-1.3-13.6-5.3-24.5-9-19.7-6.5-23.3-8.2-22-10.3 1.1-1.6 3.5-1.4 11.2 1.3 18.7 6.6 66.8 16.7 107.9 22.8 12.6 1.8 50.1 1.8 53.4-.1 2.4-1.3 2.4-1.4.5-2.8-3.5-2.6-12.6-4.5-24.2-5.2-12.2-.8-11.9-.6-15.4-7.1-4.7-8.5-53-24.4-64-21.1-2 .7-4 1.7-4.4 2.3-1.2 1.8 4 5.4 10.8 7.6 24.2 7.6 30.4 9.6 30.8 9.9.2.2-.2.9-1 1.4-4.2 2.8-42.5-4.5-80-15.2-12.2-3.5-15-5.1-15-8.2 0-5.3 3-5.7 20.5-2.7 15.5 2.6 25.2 2.5 24.2-.3-.5-1.5-11-7.2-16-8.6-2.3-.7-6.1-2.1-8.4-3.1-2.3-1.1-9-2.6-15-3.5-5.9-.9-13.5-2.2-16.8-3-3.3-.8-11.2-2-17.5-2.5-8.2-.8-13.9-1.9-20-4.1-4.7-1.7-11.2-3.9-14.6-5-7.4-2.3-14.4-8-14.4-11.5 0-3.9-1.6-6.1-6.5-9-5.6-3.2-12.2-5.8-25-9.6-5.5-1.6-11.8-4-14-5.2-2.2-1.3-6.9-3.3-10.5-4.6-7.6-2.6-10-4.9-10-9.9-.1-2-.8-5.4-1.6-7.6-3.3-8.6-3.8-11.3-2.5-12.9 1.9-2.3 4.8-2 6.5.6.8 1.3 1.9 5.2 2.5 8.8.8 5.3 1.6 7 4 9.1 4.1 3.4 20.3 10.2 38.2 16 15.9 5.1 17.8 5.9 25.7 11.3 3.1 2 9.5 4.9 15.2 6.6 5.4 1.7 16.7 6.5 25.1 10.8 17.2 8.7 41.5 17.3 61.4 21.7 6.6 1.4 21.7 5.1 33.6 8.1 23.8 5.9 51.8 11.7 64.6 13.3 5.6.7 12.7.7 22.5 0 17.1-1.3 40.6-.4 61.8 2.2 19.8 2.4 22 2.4 22 .1 0-3.5-3.1-6.1-10.8-9-9.6-3.7-16.6-4.8-41.3-6.3-19.2-1.2-19.8-1.2-26.3.9-12 3.9-29.2 2.5-53.6-4.3-4.7-1.3-17.9-5.4-29.5-9-20-6.3-21.7-6.6-35.4-7.5-8-.6-15.4-1.3-16.5-1.6-5.9-1.8-8.8-9.1-4.5-11.4 2.9-1.6 8.7-.8 50.9 7.7 43.9 8.7 58.4 11.1 73.6 11.9 13.4.8 16.4.3 16.4-3 0-3.6-1.8-4.4-12.6-6.2-41.3-6.6-48.1-8.1-60.1-13-4.5-1.9-12.3-4.6-17.5-6-5.1-1.4-10.4-3.3-11.7-4.2-2.3-1.4-2.4-1.5-.6-2.8 2.6-1.9 8.6-1.7 20.7.5 18.4 3.5 42.4 6.3 64.3 7.6 11.3.7 17.1-.3 16.3-2.8-.7-2-4.7-3.5-18.2-6.7-7.1-1.6-13.2-3.2-13.4-3.5-1-.9.6-1.7 4.8-2.2 6.3-.9 4.2-2.7-4.1-3.5-4.1-.4-10.3-1.6-13.9-2.8-6.9-2.2-17.3-3-65.5-5-40.7-1.7-63.5-5.6-63.5-10.6 0-2.9 5.3-3.8 23-3.8 16.4-.1 18.1.1 26.5 2.7 10.9 3.3 21.4 4.2 78 6.2l40 1.4 13.1 6c16.8 7.6 32.3 12.5 65.1 20.7 29.3 7.2 34.6 7.8 35.1 3.3.4-3.1-.5-3.9-12-10.4-5.1-2.8-9.4-5.7-9.6-6.3-.5-1.6 4.8-1.5 17.3.3 5.5.8 11 1.5 12.1 1.5 3.5 0 3.8-2.9.5-5.8-7.2-6.7-48-17.8-80.1-21.7-21.1-2.5-27.3-3.6-32.5-5.8-4.4-1.8-7.2-2.1-23-2.1l-18-.1-4.4 3.5-4.3 3.5-13.2-.1c-13.4-.1-38.5-3-67.1-7.9-19.6-3.3-89-16.1-98.2-18.1-12.6-2.7-24-9.5-29-17.1-3.2-4.8-.8-5.1 20.2-2.7 14.4 1.7 22.2 3.5 42.9 9.8 10.8 3.3 40.6 9.9 59.6 13.1 4.1.8 11.3 2.8 16 4.6l8.5 3.3 48.5.7c36.1.6 51.2 1.2 58.9 2.4 13.1 2 36.1 3.5 42.3 2.8 4.8-.6 7.9-2.5 5.9-3.8-2.6-1.5-18-3.6-33.1-4.5-9.1-.5-19.1-1.6-22.4-2.4-3.2-.9-9.8-2.1-14.5-2.6-10.4-1.4-15.6-2.9-14.4-4.1.9-.9 5.8-1.6 27.7-3.8 10.1-1 11.6-2.1 11.6-8 0-2 .6-4.5 1.3-5.7.6-1.2 2.7-4.9 4.5-8.3 3.5-6.6 4.9-7.1 7-2.8 2 4 4.9 5.5 17.1 8.7 6.1 1.6 16.1 5.2 22.3 7.9 15.4 6.8 25.2 9.4 46.7 12.5 10.1 1.5 20.8 3.5 23.9 4.6 7.3 2.6 12.2 6.4 12.2 9.6 0 5.7 7.6 9.4 24.2 11.6 7.6 1 9.6.9 14.1-.4 12.7-3.9 32.9-6.1 48.1-5.1 8.5.5 10.3.3 11.4-1 4.4-5.3-2.8-7.9-22.3-7.9-15.3-.1-27 1.6-39.9 5.6l-7.9 2.5-9.9-3.9c-11-4.3-13.8-6.2-13.8-9.6 0-1.8.8-2.5 3.8-3.3 6.6-1.8 19.2-3 41.7-4.1 24.6-1.2 40.3-2.6 45.5-4.1 1.9-.6 27.2-1.4 56.3-1.9 46.4-.9 53.9-1.2 62.5-3 5.3-1.1 19.8-2.9 32.1-4 29.1-2.7 83.4-12.5 119.2-21.5 11.8-3 36.8-10.1 40.2-11.4 1.2-.5 6.7-2.6 12.2-4.7 5.5-2 17.1-7 25.8-11 8.7-4.1 21.1-9.2 27.5-11.3 13.4-4.5 42.3-16 49.7-19.8 2.8-1.4 7.9-4.7 11.5-7.3 7.9-5.8 18.1-11 21.5-11 1.4 0 2.5.3 2.5.7 0 2.4-14.7 15.5-26.5 23.7-3.8 2.7-13 9.4-20.4 14.9-7.3 5.5-15 10.8-17 11.8-5.3 2.6-10.9 8.9-12.9 14.5-1.6 4.5-2.3 5.2-8 8-10.5 5.1-13 9.4-5.6 9.4 3.9 0 6.9-1.1 30.9-10.8 9.4-3.8 23-9 30.3-11.6 7.3-2.5 15.6-5.6 18.5-7 2.9-1.3 7.8-3.2 11.1-4.2 3.4-1.1 7.5-3.3 9.8-5.4 3.3-3 3.9-4.1 4.1-8l.2-4.5-3.5.1c-2.1.1-6.6 1.9-11.3 4.7-9.7 5.6-39.5 18.5-44.7 19.3-4.9.8-5.9-.9-2.1-3.5 1.6-1.2 14.8-8.3 29.3-15.8 26-13.4 26.4-13.6 32.5-13.4 7.1.2 7.3 0 9.4-9.2 1-4.5 1-6.8 0-10.9-1.7-7.6-2.6-8.2-6.9-5.3-3.8 2.6-7.6 3.2-10.2 1.5-2.4-1.5-.3-3.8 10.1-11 13-9 14.3-13.3 4.8-15-5.6-1-7.9 0-13.2 5.5-3 3.1-4.9 4.4-6.1 3.9-2.3-.9-2.1-1.7 1.9-6.5 3-3.5 3.5-4.7 2.9-7.3-1-5-5.2-15.5-7.2-18.4-1.1-1.5-4.7-8.2-8.2-15-3.4-6.8-8.9-16.4-12.2-21.4-3.3-5-7.7-12.7-9.7-17.2-2.3-4.7-7.3-12.5-12.2-18.8-4.6-5.8-12.5-15.9-17.6-22.5-5-6.5-12.1-14.9-15.7-18.6-3.6-3.8-8.1-9.2-10-12-1.9-2.9-6.2-8.4-9.5-12.2-3.4-3.9-6.5-8.4-7.1-10-.5-1.7-1.6-9.4-2.4-17.1-.9-7.8-2.1-15.4-2.7-16.8-2.4-5.2-15.2-8.5-33.2-8.6-7.4 0-9.3-1.3-15.7-10.6-2.8-4.1-6.9-8.9-9.2-10.7-2.2-1.7-5.8-5.8-7.9-8.9-6.2-9-31.8-30.7-42.9-36.3-3.6-1.8-8.9-5.2-11.8-7.4-2.8-2.3-9.1-6.7-13.9-9.8-26.9-17.3-38.3-25-42.3-28.8-3.2-3.1-9.9-6.8-23.5-13.3-26.9-12.8-24.3-11.9-60.5-21.5-12.8-3.3-39.1-6.5-64.4-7.7-11.4-.5-23.5-1.5-26.7-2.2-5.2-1.1-6.8-1-12.7.6-3.7 1.1-7.9 2.1-9.4 2.4l-2.8.4V56.4c0-23.2-2.5-38.3-7.3-45.5-4-5.9-10.5-5.2-17.7 2-6.7 6.7-8.6 12.5-9.3 28.5-.7 14.2-1.4 16-7.1 16.9-1.8.3-7.7 2.4-13 4.7-10.4 4.4-16.7 5.4-19 3-2.3-2.4-7.7-17-8.7-23.5-.6-3.3-1.9-7.8-3-10-2.7-5.5-14.4-21.7-19.9-27.6-4.8-5.1-7.6-5.9-12.6-3.9zm120.4 91c-.3 5.7-.8 7.5-2.3 8.7-2.5 1.7-6.5 1.3-7.8-.9-1.6-2.5 1-9.7 5-13.7 4.5-4.5 5.7-3.3 5.1 5.9zm40.7 4.1c3.3.6 20.2 3.9 37.5 7.5 55.6 11.5 70 15.6 86.5 24.4 14.9 7.9 16.7 8.8 25.5 12.9 4.7 2.2 15.3 8.7 23.5 14.6 14.7 10.5 26.8 18.2 35.2 22.4 6.5 3.2 50.7 44.4 50 46.5-.2.6-3.6 2.9-7.7 5.1-4 2.2-7.8 4.7-8.3 5.6-.7 1.2-.6 3.9.3 8.7.7 3.9 1 7.7.7 8.6-.8 2-4.8 3.6-8.7 3.6-5.2 0-6 1.9-6 14.9 0 6.5.9 20.8 2 31.7 3.3 33.9 5 57 5 70.5 0 12.8 0 12.9-2.6 14.6-2.4 1.5-3.8 1.6-15.8.5-7.2-.7-14.1-1.5-15.2-1.8-1.6-.4-4.1-4.6-9.5-16.1-4.1-8.6-9.5-18.8-12.1-22.8-4.5-6.8-6.8-8.9-16.5-14.9L740 330v-6.3c0-8.1-2.6-13.5-11.8-25.2-3.9-5-9.1-12.5-11.4-16.8-14-25.6-24-38.8-46.8-62.2-11.3-11.5-18.7-20.1-20.8-23.7-11.4-20.4-76.9-83.1-96.9-92.9-5.4-2.6-6.8-4.3-4.9-5.8 3.6-3 18.6-3.4 33.1-1zm-146.8 4.2c-.3 1.8-3.6 10-7.5 18.2-3.8 8.3-8.4 19-10.2 24-1.8 4.9-6.4 16.2-10.1 25-9 21.3-12.9 31.3-14.1 35.5-1.6 5.9-14.8 41.9-17.8 48.4-3.5 7.9-5.2 9.3-13.6 11.2-6.8 1.5-19.7 5.5-28.4 8.9-3 1.1-8.8 1.9-17.7 2.2l-13.1.6-2.6 7.1c-4.2 11.8-4.9 16.1-4.2 25.4 1.1 14.3 5.4 47.3 9.3 70.2 2.7 16.3 3.6 24.6 3.7 34.4l.1 13-8.5.2c-10.3.2-21.9 3.1-46 11.4-9.6 3.3-18.6 6-20 6-1.4 0-5.6-2.1-9.4-4.5-3.8-2.5-7.3-4.5-7.9-4.5-.5 0-2.2-.9-3.8-2.1-2.1-1.4-3.3-3.7-4.5-7.7-.9-3.1-3.1-10.4-4.9-16.2-4.3-13.7-5-18-8.5-53.5-1.7-16.5-3.3-31.4-3.5-33-.7-3.8 0-4.7 5.2-7.4 5.3-2.7 6.1-3.9 11.6-18.1 5.8-15.1 9.5-22.4 15.5-30.1 2.6-3.5 6.9-9.6 9.4-13.4 4.9-7.5 10.7-14.6 29-35.7 6.4-7.4 12.5-14.8 13.5-16.5 1-1.7 4.5-5.2 7.8-7.9 3.3-2.6 10.8-9.4 16.7-15 8.9-8.5 11.9-10.7 17.7-13.1 6.1-2.4 6.9-3.1 6.5-4.9-.7-2.8 4.1-6.8 19.2-16.3 6.1-3.9 13.9-9.5 17.3-12.6 7.1-6.3 11.5-8.8 20.9-11.7 3.7-1.1 8.5-3.1 10.7-4.4 2.2-1.2 9.2-3.7 15.5-5.5 11.8-3.3 20-6.5 23.5-9.3 3-2.3 3.8-1.9 3.2 1.7zm25.1 20.9c-1.6 4.6-15.7 26.8-17 26.8-.4 0-.8-.8-.8-1.8 0-2.4 10.1-23.1 14.1-28.9 3-4.4 3.3-4.5 4.2-2.6.6 1.5.5 3.5-.5 6.5zm78.1 14.7c10.3 6.1 25.2 18.6 54.4 45.6 17.3 16 22.2 20 28.5 23.2 2.9 1.5 5.1 3.1 4.9 3.7-.3.8-10.1 1.1-31.3 1.1-29.3 0-31.1.1-35.4 2.1-3.8 1.7-5.1 3.2-7.9 8.3-2.6 5-3.8 6.3-6.3 6.8-3.6.7-4.8 3.4-4.8 10.6 0 8.3 6.6 58.4 10.5 80.2 4.9 27 5.3 33.4 2.6 40.7-2.7 7.1-14.2 26.3-18.1 30.2l-2.9 3-20.3 1.2c-30.1 1.8-65.7 7.9-79.5 13.6-4 1.6-8 2.8-9 2.6-2.7-.5-3.1-6.5-3.3-48.8-.1-20.6-.5-45.4-.9-55-.9-20-1.6-22.2-8.5-26.9-6.7-4.7-6.8-3.7 2.9-28.1 10.5-26.4 15.2-37.4 23.3-54 4.7-9.6 10.7-22.5 13.4-28.5 6.1-13.7 10-19.9 14.3-22.5 2.1-1.3 7-2.5 14.1-3.5 12.5-1.7 16-2.6 26.4-6.7 16.2-6.6 20.3-6.4 32.9 1.1zm-100.6 22.8c-.9 3.7-4.2 11.3-5 11.3-1.1 0 .5-9 2.1-11.5 2.2-3.4 3.8-3.2 2.9.2zM424 186.2c-1.1 2.9-2 5.4-2 5.5 0 1-1.9 0-2.4-1.3-.6-1.6.7-4.8 3.2-7.7 2.8-3.1 3.2-1.8 1.2 3.5zm181.5 40.2c1.6 2.2 1.1 5.8-1.8 13.1-2.4 6.1-2.6 21.6-.7 48 1.8 23.6 1.9 49 .2 53.8-1.7 4.6-4 5.9-16.9 9.2-10.6 2.8-13.8 2.7-14.8-.6-1-3.2 1.2-6.5 6.3-9.1l4.5-2.3-.7-24.6c-.7-28.9-1.6-39.3-5.6-62.7-3.5-20.3-3.7-24.7-1.2-26.2 1-.6 7.1-.9 15.5-.8 12.2.3 14 .5 15.2 2.2zm44.6 7c3.3 6.9 3.6 8.6 1.4 8.6-2.1 0-7.5-8.7-7.5-12 0-6 2.2-4.8 6.1 3.4zm224.4 4.1c5.5.8 12.3 1.5 15.2 1.5 10.9 0 13 3.4 6.8 10.8-4.3 5-5.9 5.5-11 3.8-2.8-1-4.5-1.1-5.9-.4-2.3 1.2-2 4.5 2 29.8l2.8 17.5.1 58.2V417H901v4.2c0 6.5-1.1 7.6-5.3 5.3-3.1-1.6-4.1-1.7-7.5-.7-2.2.7-5.5 1.2-7.4 1.2-3.5 0-15.9-3.4-23.4-6.4l-4.1-1.7-.7-29.2c-.6-28.7-3-80.4-4.1-92.2-.4-3.3-2-16.5-3.7-29.3-1.6-12.8-2.7-24.3-2.4-25.6.7-2.8 4-4.2 13.1-5.5 8.3-1.2 7.9-1.2 19 .4zm-212 30c5.1 7.7 11.9 18.7 15.1 24.5 3.1 5.8 7.9 13.9 10.4 18 2.6 4.1 6.4 10.7 8.3 14.6 5.8 11.5 14.7 26.6 18.3 31.1 4.8 5.9 12.4 20.3 12.4 23.5 0 5.1-1.9 5.8-15.7 5.8-7 0-15.5-.5-19-1.1-6.2-1.1-6.5-1.3-13.8-9.3-17.7-19.4-27.3-31.7-28.4-36.5-2.3-9.8-3.2-22.7-3.8-53.8-.6-35.7-.4-37.6 4.5-33.1 1.3 1.3 6.6 8.6 11.7 16.3zm-496.8-.4c3.5 1.3 8 5.5 10 9.3 1 1.8 2 9.5 2.9 22 .8 10.5 2.1 22.2 2.9 26 1.1 5.2 1.2 7.3.3 9-1 1.9-1.3 1.4-2.4-4.4-.7-3.6-2.6-11.2-4.4-17-3.2-10.9-6-26.4-6-33.8V274l-7.2-.1c-4 0-8.1-.4-9.1-.8-1.7-.6-1.6-.8.5-2.8 2.3-2.2 6.2-4.1 8.5-4.2.6-.1 2.4.4 4 1zm-25 4.7c1.2 1.9 2.4 5.2 2.7 7.5 1.6 14.2 3.7 37.6 4.6 52.2 2 31.1 7.6 73 11 82 .9 2.4 1.2 2.5 2.7 1.4 1.7-1.5 13.7-1.9 15-.5.5.4.8 4.7.8 9.4 0 6.8-.4 9.3-1.9 11.4-2.6 3.9-12.5 8.5-22.5 10.5-8.1 1.6-8.4 1.6-9.7-.2-.8-1-1.4-3.1-1.4-4.6 0-1.5-1.2-6.7-2.6-11.5-1.5-4.9-3.5-11.8-4.6-15.4-1-3.6-2.3-11.1-2.9-16.8-.5-5.7-1.8-14-2.8-18.5-3.8-16.5-8-45.7-10.6-74.2-1.9-20.7-2-31.9-.1-33.4 1.9-1.6 9.2-3 15.1-2.8 4.4.2 5.2.6 7.2 3.5zm59.3 3c0 2.5-3.5 5.8-4.5 4.2-.8-1.2 2-6 3.5-6 .6 0 1 .8 1 1.8zm163.4 2.8c2.3.9 2 5-1.3 16.7-7.2 25.3-14.3 51.2-17.1 62.4-4.4 17.9-5.5 20-8 15.3-2.2-4-12.6-62-13.7-76.2l-.6-7.6 4.4-2.3c11.9-6.1 30.8-10.4 36.3-8.3zm561.3 35.8c3.6 5.5 8.6 12.3 11.2 15.1 2.7 2.7 7.8 9.5 11.6 15 3.7 5.5 10.7 14.9 15.5 21 4.7 6 10.6 13.9 13 17.5 2.4 3.6 6.9 9.9 10.1 14 7.9 10.5 8.6 12 6.3 13.7-3.6 2.7-13 .9-27.6-5.2-20.8-8.6-33.9-8.5-41.5.4-4.6 5.5-7.9 5.6-9 .3-.4-2-.8-25.1-.8-51.2 0-37.2.3-48 1.3-49.8.7-1.2 1.8-2 2.3-1.6.6.3 4 5.2 7.6 10.8zm-528.3-1.8c.3.9.2 2.2-.2 3-.7 1.3-1 1.3-2.1 0-1.4-1.6-.9-4.6.8-4.6.5 0 1.2.7 1.5 1.6zm5 48.9c.3 12.6 1 25 1.5 27.5 3.7 19.4 4 22 3 27.2-1 4.9-.8 6.1 2.5 16 2 5.9 3.6 12 3.6 13.6 0 6-8.2 12.1-16.2 12.2-2.1 0-6 .9-8.8 2-10.4 4.1-12 2.6-12-11.3 0-5.6.6-13.6 1.4-17.7.8-4.1 2.2-14 3.1-22 3.1-27.1 5.9-37.3 11.6-42.4 3.4-3 3.7-4.3 4.2-16.2.2-6.7.8-9.9 2.1-11.9 1.4-2.2 2-2.5 2.6-1.4.4.8 1 11.7 1.4 24.4zm216.4-16.9c-.4 2.3-2.6 3-3.4 1-.8-2 1.5-5.1 2.9-3.7.5.5.7 1.7.5 2.7zm11.1 22.5c12 6.2 15.7 9 14.8 11.2-.9 2.5-3 2.1-13.4-2.4l-9.5-4.2-6.8 1.7c-3.7.9-8.2 1.6-9.8 1.6-1.7 0-3.3.4-3.7 1-.3.5 2.3 4.1 5.9 7.9 5.3 5.8 6.6 8 7.5 12.3 1.4 6.5 4.1 10.7 25 38.1 19.7 25.9 26.3 35.3 29.7 42.6 2.5 5.2 2.5 5.6 1 8.2-.9 1.5-1.6 3.2-1.6 3.9 0 2.7 10.7 13.3 16.2 16.1 6 3 7.3 5.4 4.4 7.8-.8.7-9.2 1.8-19.3 2.6-21.5 1.7-39.4 3.8-60.8 7-8.8 1.3-25.5 2.9-37 3.5-23.2 1.3-29.7 2-29.8 3.5-.1 2.1 5.3 4.7 12.1 5.7 3.9.6 7.9 1.6 8.9 2.3 1.5 1.1 1.1 1.5-3.6 2.9-7.9 2.3-16.9 3.8-19.2 3.1-1-.4-2.6-1.9-3.4-3.4-.8-1.6-6.5-8.3-12.8-14.9-6.3-6.6-12-13.4-12.7-15.2-1.1-2.6-1-4.4.4-11.2.9-4.5 1.4-8.3 1.2-8.6-1-1-2.4 1-3 4.3-.4 2-1.6 4.5-2.7 5.6-4.4 4.4-10.1 1.5-27-13.3-5.3-4.7-11.8-10-14.5-11.8-6.8-4.6-10.4-8.1-10.4-10.1 0-3.4 13.2-7.6 29.8-9.5l6.2-.7 15-15.3c8.2-8.5 15.2-15.4 15.5-15.4 1.5 0 0 4.7-4.4 13.7-5.4 11-9.9 23.8-8.8 25 1 1 19.7-17.7 25.8-25.7 2.7-3.6 7.6-11.7 11-18.2 9-17 17.9-27.6 19.5-23.3.9 2.3-1.9 9-8.5 20.2-3.2 5.4-7.9 13.5-10.5 18-4.4 7.6-7.4 10.9-15.7 17.2-8.1 6.2-9.3 21.9-1.3 16.6 8.2-5.4 7.2 5.4-2.7 28.1-2.8 6.4-4.9 11.8-4.6 12 .2.2 2.2-1.2 4.5-3.3 2.2-2.1 6.2-5.8 8.9-8.3 3.8-3.6 5.5-6.3 8.4-13.5 3.5-8.6 15.4-35.5 20.3-46 1.3-2.8 4.9-7.9 8-11.5 3.1-3.6 6-7.9 6.6-9.5 1.5-4.5 4.9-29.5 4.3-31.1-.3-.8-1.8-2.1-3.4-3-6.7-3.4-7.9-11.4-2.2-14.6 3.4-2 22-4.5 35.2-4.7 7-.1 7.8.1 17 5zm-76 14.1c-1.2 2-1.4 2.1-1.7.5-.2-1 .2-2.5.9-3.4 1.8-2.1 2.3 0 .8 2.9zm283.6 18.2c0 17.8-.6 20-5.4 19.4-3.7-.4-4.9-4.6-2.8-9.5 1-2.1 2.2-8.2 2.7-13.5 1.1-10.6 2.7-15.5 4.4-13.8.7.7 1.1 7.1 1.1 17.4zM629.6 392c3.4 1.3 10.4 6.8 10.4 8.2 0 2.5-14.6-2.2-16.5-5.2-.7-1.1 1.2-4 2.6-4 .4 0 2 .5 3.5 1zm-293.7 4.4c1 1.2.6 2.2-2.3 5.3l-3.5 3.8-.1-3.3c0-6 3.2-9.1 5.9-5.8zm-149.2 7.8c1.2 1.9 4.9 21 4.5 23-.2 1-1 1.8-1.8 1.8-1.5 0-2-1.8-2.8-9.7-.3-2.9-1.4-7.3-2.5-9.7-1.4-3.2-1.6-4.7-.8-5.5 1.4-1.4 2.4-1.4 3.4.1zM327.5 415c.4.6.1 2.7-.6 4.8-1.1 3.4-1.3 3.5-2.2 1.5-1.7-3.8.8-9.5 2.8-6.3zm424.3 9.3c.4 2-2.5 3.4-4 1.9s-.1-4.4 1.9-4c1 .2 1.9 1.1 2.1 2.1zm67.5 7.2c-.3 1.3-5.3 2-5.3.7 0-1.5 1.3-2.3 3.5-2 1.1.2 1.9.7 1.8 1.3zm35.6 3.4c8.8 2.3 11.2 4.4 15.8 13.6 5.2 10.4 10 18.2 16.1 26 5.4 6.9 12.3 19.6 13.5 24.6 1.2 4.7-1.6 6.4-20.3 12.9-29 10.1-75.5 21-113.2 26.5-13.3 1.9-18.3 2.3-19.8 1.5-1.1-.6-2-1.4-2-1.9 0-1.3 11-10.1 12.7-10.1.8 0 2.7.7 4.4 1.5 1.7.9 3.5 1.2 4.4.8 2.5-1.4 14.1-15.6 16.3-20 2.8-5.4 9-12.8 24.2-28.8 16.9-17.8 20.7-24 16-26.5-3.5-1.9-2.4-5.1 3.8-10.8 7.9-7.4 13.9-11.2 17.6-11.2 1.7 0 6.4.9 10.5 1.9zm-423 1c1.9 1.2.7 3.9-2.5 5.3-2.3 1.1-2.8 1-4-.7-2.5-3.4 2.6-7 6.5-4.6zM895 438c0 4.5-5.4 9-11 9-7.8 0-9.6-4.9-2.7-7.4 7.2-2.6 13.7-3.4 13.7-1.6zm-686 4.6c7.7 4 12.9 8.9 11.4 10.4-.7.7-4.5-.6-11.7-4-11.2-5.4-12.2-6.2-11.3-8.5.9-2.4 4.3-1.8 11.6 2.1zm458-1.6c.5 1 3.4 3.5 6.3 5.4 6.4 4.3 24.1 22.3 32.7 33.3 3.5 4.6 6.8 8.3 7.2 8.3 1.1 0 4.8 6.2 4.8 8.1 0 2.1-2.1 4.6-4.7 5.3-1.8.6-3.5-.9-10.6-9.1-12.4-14.5-21.3-25.8-27.3-34.8-2.9-4.4-6.6-10-8.3-12.4-1.7-2.4-3.1-4.8-3.1-5.3 0-1.5 1.9-.8 3 1.2zm69.7 4.5c4 4 4.3 7.8.5 8.3-3.1.5-6-2.3-6.8-6.4-1.2-6.3 1.2-7 6.3-1.9zm-31.6.5c2.1 1.2 2.5 3.5.8 4.5-1.8 1.2-5.9-.4-5.9-2.4 0-3.2 1.7-3.9 5.1-2.1zm221.3 2.7c.7 1.9-.1 3.3-1.9 3.3-1.5 0-3-3.5-2-4.9.8-1.3 3.2-.3 3.9 1.6zm-473.6 3.5c-.3.7-1.3 1.3-2.3 1.3-1 0-2-.6-2.2-1.3-.3-.7.5-1.2 2.2-1.2 1.7 0 2.5.5 2.3 1.2zm-342 5.1c.2 1.1-.3 1.7-1.6 1.7-2 0-3.6-2.3-2.4-3.4 1.1-1.2 3.7-.1 4 1.7zm702.7-1.3c.3.6-2.6 4.2-6.5 8.2-3.9 3.9-9.3 10.8-12 15.2-8.4 14-13.6 19.7-21.5 23.6-7.6 3.8-8.9 6-6 10.3 1.5 2.3 1.4 2.6-1 5.5-3.9 4.6-10.1 7.2-17.4 7.2-7.6 0-9.5.9-12 5.9-4.4 8.5-11.6 14-16.3 12.5-1.8-.5-1.9-1.1-1.4-4.7 1.4-8.7 4.1-12.3 24.3-33 19.9-20.3 45.4-42.3 56.6-48.7 5.2-3 12-4 13.2-2zM426 460.4c0 1.8 7.3 8.4 20.7 18.5 6.7 5 13.6 10.8 15.3 12.8 3.6 4.1 8.7 13.9 7.7 14.9-.4.4-2.6-.6-4.9-2.1-7.3-4.8-33.1-26-37-30.3-3.5-3.9-3.8-4.7-3.8-10.3 0-3.7.4-5.8 1-5.4.6.3 1 1.2 1 1.9zm540.9 4.9c2.5 4.9 3.1 7.1 2.3 7.9-1.7 1.7-3.8.3-8.6-5.9-5.8-7.4-6-9.5-.8-9.1 3.5.3 3.9.7 7.1 7.1zm19.1-5.8c1.6 2-.3 4.5-3.4 4.5-2.7 0-6.6-2.7-6.6-4.6 0-2 8.3-1.9 10 .1zm-89.4 3.6c1.6 1.6 5.6 7.4 8.9 12.7 5.5 8.7 7.4 10.7 14.1 14.8 3.1 1.9.2 3.8-5.8 3.9-4.4 0-5.3-.3-6.7-2.6-.9-1.4-3.4-5.2-5.6-8.5-3.9-5.8-10.5-19.7-10.5-22.2 0-2.1 2.5-1.3 5.6 1.9zM181 464c0 3.3-.1 3.4-4.9 2-4.2-1.2-5.7-.2-7.2 5-1.7 5.5-.6 8.2 6.4 16.3 10.3 11.8 15.4 18.4 21.2 27.2 5.1 7.8 9.8 12.5 12.4 12.5 1.5 0 1.4-2.1-.2-4.5-2.2-3.2-3.6-8.1-2.7-9.5.6-1 3.2.2 10.4 4.6 5.3 3.2 9.6 6.1 9.6 6.5 0 1.7-5.5 7.1-9 8.9-2 1-7.4 4.8-12 8.4-10.2 8.1-13.7 9.2-24 7.7-4.1-.6-12.4-1.6-18.5-2.2-6-.5-16.2-1.6-22.5-2.4-6.3-.8-20.5-2.2-31.5-3-33.8-2.6-48.5-4.9-56.4-8.8-8-3.9-7.8-6.3.9-16 5.2-5.8 9.1-7.7 15.9-7.7 6 0 6.3-.2 25.6-19.1 7.8-7.5 15.9-14.8 18-16.2 6.6-4.2 37.2-10.6 51.9-10.8 4.5-.1 9.5-.5 11.1-.9 5.1-1.3 5.5-1.2 5.5 2zm88 1.8c4.6 2.2 5 4.6 1.1 6.6-3.8 2-6.1 2-8.9 0-3.8-2.6-4.5-5.1-2.2-7.4 2.3-2.3 3.7-2.1 10 .8zm498 .2c0 1.3-3.9 6-10.3 12.3-5.7 5.6-12.2 13-14.5 16.4-2.3 3.4-5.1 6.5-6.3 6.8-2.5.8-7.2-2.2-7.8-5.1-.2-1-2.1-3.9-4.3-6.5-2.6-3.1-3.9-5.5-3.6-7 .3-2.1.8-2.3 7.8-2.4 6.2-.1 8.7-.7 14.4-3.3 3.8-1.8 8.4-4.4 10.3-5.8 2.6-1.9 12.8-7.3 14.1-7.4.1 0 .2.9.2 2zm-527.9 4.6c1.7.8 5.8 3.7 9.1 6.4 7.3 5.9 13 7.5 22.9 6.6 8.7-.9 9 .3 1.6 7-6.1 5.6-35.8 26.2-39.9 27.8-3.6 1.3-5.6-.5-6-5.3-.3-3.3-.1-3.6 3.7-4.6 8.4-2.4 6.5-10.3-5.6-22.4-10.2-10.4-9.3-13.1 2.1-6.1 7.9 4.8 10 5.2 7.4 1.2-3.4-5.1-5.3-9.4-4.7-10.8.7-1.9 5.7-1.8 9.4.2zm171.1 1.1c2.2 2 2.3 4.2.1 8.7-1.5 3.3-1.5 3.7 0 5.4 2.6 2.8 2.1 4.8-2.4 9.7-3 3.2-3.9 4.9-3.4 6.4.6 1.9 4.6 5.7 9.8 9.3 1.3.9 2.7 3.1 3.1 4.9.9 4.7 5.5 11.5 9 13.3 1.7.8 4.3 2.3 5.7 3.2 2.5 1.6 2.7 1.6 5.7-.6l3-2.2 5.5 2.5c4.3 1.9 6.1 3.5 8.1 7 1.7 2.8 5.8 6.9 10.7 10.7 8.2 6.3 9.7 9.2 5.1 9.8-1.2.2-4.7-.9-7.8-2.5-5.4-2.7-5.7-2.7-6.8-.9-.6 1-1.8 2.8-2.7 3.9-2.6 3.3-6.5 1.5-14.4-6.8-7.8-8.2-12.1-11.3-13.5-9.9-.6.6.5 2.8 3 5.8 7 8.4 5.1 11.2-6.7 10.1-11-1-17.3-2.9-27.5-8.1-10.1-5.3-13.6-8.9-17.2-18-3.3-8.1-4.5-16-4.8-31.4-.3-11 0-13 1.8-16.4 2.9-5.7 8-9.3 17.5-12.7 9.5-3.3 16.3-3.7 19.1-1.2zm515.3.4c.8 2.3.1 3.4-1.4 2.4-1.3-.8-1.5-4.5-.2-4.5.5 0 1.3.9 1.6 2.1zM194 481.5c1 1.2.9 1.6-.5 2.1-1.7.7-3.8-1.3-2.9-2.8.8-1.2 2-1 3.4.7zm227.2 6c4 3.6 12.3 10.7 18.3 15.9 12.8 10.8 13.9 12 13.1 14.1-.9 2.3-2 1.9-8.8-3.5-3.5-2.8-8.6-6.6-11.4-8.5-3.8-2.5-6.1-5.1-8.6-9.7-1.9-3.5-4.8-7.2-6.5-8.3-3.2-2-6.1-6.5-4.3-6.5.5 0 4.2 2.9 8.2 6.5zm-104.8 11.1c2.2 2.1 2 9.2-.4 23.9-3.8 23.3-5.5 26.9-14 30.8-6.4 2.9-40.3 3.7-54.2 1.4-5.1-.9-13.8-2.2-19.3-2.8-9.1-1-16.5-2.9-16.5-4.3 0-.3 1.9-1.5 4.3-2.7 2.3-1.2 9.4-5.7 15.8-10.1 8.2-5.6 12.6-8 14.9-8.1 3.2-.2 3.4 0 4.5 4.3.9 3.8 1.5 4.5 3.8 4.8 3.4.4 8-2.2 15.6-8.7 3.1-2.7 11-8.4 17.6-12.7 6.6-4.2 13.8-9.2 16-11 3.3-2.6 9.2-6.4 10.2-6.4.1 0 .9.7 1.7 1.6zm385.4 6.6c-.5 1.5-4.2 2.2-6.4 1.4-2.5-1-.5-2.6 3.2-2.6 2.4 0 3.4.4 3.2 1.2zM502.2 525c10 3.7 18.1 10.1 16.4 12.9-.3.5-3.3 1.2-6.6 1.6-3.2.4-6.4 1.3-7.1 2.1-1.5 1.8-4.9 1.8-7.6-.1-2.5-1.7-4.9-7.9-5.8-14.7l-.6-4.8 3.3.7c1.8.3 5.4 1.4 8 2.3zm208.4-1.7c.3.8-1.1 4.7-3.1 8.8-1.9 4-3.5 8.4-3.5 9.6 0 4.4-10.2 4-10.8-.5-1.1-7.1 15.1-23.8 17.4-17.9zm-679.6 1c0 2-5.4 4.7-9.3 4.7-3.8 0-6.7-2.3-4.6-3.6 3.7-2.2 13.9-3.1 13.9-1.1zm430 .7c1.4 1 2.2 2.1 1.9 2.5-.4.3-2-.5-3.5-1.9-3.4-3-2.1-3.5 1.6-.6zm223.3-.4c1.4 1.5-2.6 6.5-8.3 10.3-10.8 7.1-18.7 8-28.9 3-6.9-3.4-8.9-3.4-29.8-1.3-5.2.5-6.3.4-6.3-.9 0-2.1 1.2-2.4 19.3-4.7 8.9-1.1 22.3-3.1 29.7-4.4 13.5-2.4 23.1-3.2 24.3-2zm-68.9 22c4.6.7 5.8 1.7 3.1 2.8-8.3 3.1-89.3 9.8-100 8.1-4.3-.6-6.7-2.6-5-4.3.3-.4 11.3-1 24.4-1.3 18-.5 25.1-1 29.6-2.4 8.9-2.6 37.5-4.3 47.9-2.9zm-577.1 5.9c12.7 3.5 23.2 7.9 25.6 10.9 2.2 2.6-1.8 2-15.6-2.4-6.9-2.2-14.5-4-16.9-4-5.3 0-9.3 3.1-10.3 8-.5 2.8-1.2 3.6-3.3 3.8-4.6.5-7-2.9-6.6-9.6.3-5.2.6-5.8 3.7-7.9 4.6-3.1 8.3-2.9 23.4 1.2zm629.8-2.5c2.3 1.3 2.5 3.6.3 4.4-3.8 1.5-11.4.4-11.4-1.6 0-3.1 7.1-4.9 11.1-2.8zm-452.8 16.5c2.3 1 2.2 3.2-.4 4-4.4 1.4-17.9-2-17.9-4.6 0-1.3 14.8-.8 18.3.6zM46 570.4c7.3 2.2 13 4.7 13 5.7 0 1.6-8.4.9-12.5-1-4.5-2-8.8-6.1-6.4-6.1.8 0 3.4.6 5.9 1.4zm30.8 9.8c-.4 3.2-8.6 8.4-15.4 9.8-8 1.7-17.4-.3-17.4-3.7 0-1.3 1.5-1.8 9-2.8 2.5-.3 5.5-1.2 6.6-2 3-2 8.2-3.3 13.2-3.4 3.9-.1 4.3.1 4 2.1zM102 587c12.9 2.4 16.4 4.4 9.5 5.2-8.2 1-25.5-2.6-25.5-5.3 0-1.2 9.5-1.1 16 .1zm-28.8 20.4c7.9 3 40.7 18.3 42.5 19.7 1.9 1.7.6 2.9-3.2 2.9-5.6 0-15.3-3.6-32-11.9-19.7-9.8-19.2-9.5-17.6-11.5 1.8-2.1 2.9-2 10.3.8zm75.5 14c5 1.9 10.1 2.9 32.3 6.7 10.2 1.7 20.1 3.7 22 4.5 3.6 1.5 11 8.1 11 9.7 0 2.4-33.5-3.7-62.8-11.3-25.6-6.7-28.3-7.8-22.9-10 3.5-1.4 16.3-1.1 20.4.4zM40.5 634.3c4.1 2 6.6 4.9 5.4 6.4-3.3 3.9-15.3-2.5-13.5-7.2.6-1.6 3.9-1.3 8.1.8zm37.1 14.8c2.4 2 0 3.2-5 2.5-4.7-.7-6.2-1.8-5-3.7.8-1.4 7.9-.6 10 1.2zm21 21c1 1.7-1.3 3.6-2.7 2.2-1.2-1.2-.4-3.3 1.1-3.3.5 0 1.2.5 1.6 1.1zM90 680.5c8.6 2.9 15.6 6.8 17 9.5 2.6 4.9.1 10-5 10-4.5 0-5.8-.9-8.7-6.1-1.8-3.4-4.2-5.9-7.7-8.1-5.6-3.5-7.8-5.6-7-6.9.9-1.4 3.6-1 11.4 1.6zM58.7 699c8.6 3.9 12 4.8 23.7 6 16.8 1.7 30.9 8.2 28 12.8-1.4 2.1-5.8 2.1-13.4 0-10-2.8-39-7.3-40.4-6.3-5.1 3.8-6.7 4.7-7.3 4.1-.4-.4-.9-4.9-1.1-10.1-.4-9.2-.4-9.5 1.7-9.5 1.2 0 5.1 1.3 8.8 3zm15.9 30c3.8 1 10.1 3.2 14 4.8 4 1.7 8.6 3.3 10.3 3.7 3.6.8 10.1 6.5 10.1 8.9 0 2.1-3.1 1.6-24.3-3.5-17.4-4.3-21.5-4.7-22.4-2.3-1.1 2.8 1.6 6.3 7.1 9.4 7.6 4.3 8.4 5.4 6.3 9-3.5 5.8-1.8 8.9 8.4 15.8 6 4 9.6 8.3 10.9 13 1.4 5 1.3 9.2-.2 9.2-.7 0-5.5-3.6-10.6-8-5.2-4.4-9.5-8-9.7-8-.2 0-.1 4.5.2 10 .4 7.3.3 10.3-.7 11.5-1.9 2.3-2.6 1.9-4.8-3.3-3.7-8.7-13.2-50.3-15.7-68.6l-.7-4.9 7.5.7c4.1.4 10.6 1.5 14.3 2.6zm86.2 1.4c.2.9-.4 1.9-1.3 2.2-2.1.9-6.5-1.2-6.5-3 0-3.1 7.2-2.3 7.8.8zm-16.3 6.5c9.9 4 16.7 7.9 16 9.2-.4.5-4.4.9-9 .9-7 0-10-.6-18-3.4-20.1-7.2-21.7-10.8-4.5-10.2 5.7.2 9.4 1.1 15.5 3.5zm-22.6 16.7c4.7 1.9 5.7 3.8 3.6 7s-9.9 3.5-11.5.5c-2.1-4-.6-9.1 2.7-9.1.7 0 3 .7 5.2 1.6zm42.6 16.1c6.1 1.4 12.1 3.1 13.5 3.8 1.4.7 4.8 1.6 7.5 1.9 14.2 2 4.9 4-11.5 2.6-11.7-1.1-18.2-3.1-25.1-8-6.3-4.5-3.1-4.6 15.6-.3zm-26 11.9c7.7 2.9 19.4 7.3 26 9.9 14.5 5.7 30.5 10.9 52.4 17.2 15.8 4.5 16.5 4.9 21.6 9.7 2.9 2.7 9 7.3 13.6 10 4.5 2.8 8.1 5.5 7.8 6.1-.7 1.7-12 .8-22.4-1.9-25.3-6.4-44.4-13.8-81.5-31.5-37.4-17.9-41.4-20.5-38-24.6 1.6-1.9 3-1.5 20.5 5.1zm1.9 33.5c9.9 5.6 13.1 8.2 12.1 9.8-1.1 1.8-10 1-15-1.4s-12.5-9.6-12.5-12c0-2.9 6.8-1.3 15.4 3.6zm-45 14.9c11.4 3.9 10.9 6.1-1.6 6.8-7.4.3-8.5.7-10.4 2.9l-2.1 2.5-2.6-6.4c-3.2-8.1-2.5-9.3 5.3-8.5 3 .4 8.2 1.5 11.4 2.7zm38.4 7.1c9.4 4.8 10.2 5 13.8 4 9.1-2.5 17.4-.3 23.2 6.3 11.7 13.3-10.7 12.6-38.5-1.2-11.2-5.5-17-10-16-12.5 1.2-3.1 6.9-2 17.5 3.4zm120.7 13.1c2.8.6 5.8 1.5 6.8 2 2.2 1.2 2.2 4.5-.1 5.2-2.3.8-31.1-4.9-32.5-6.3-3-3 13.6-3.6 25.8-.9zm-147.7 28.9c5.3 1.7 13.8 4.9 18.7 7.2 9.7 4.5 9.7 4.5 32.5 3.6 5-.2 8.3.4 14.5 2.6 10.7 3.7 20.2 8 24.7 11.1 3.7 2.6 7.4 8.6 6.3 10.4-1.2 2-8.6.9-19.2-2.9-5.9-2.1-14-4.6-17.8-5.4-3.9-.9-8.7-2.3-10.8-3.2-2.3-.9-9.3-1.8-18.9-2.4-13.7-.7-16.1-1.2-23.1-4-4.3-1.7-11-3.7-14.8-4.3-9.1-1.6-10.9-3.3-10.9-10.2 0-2.9.3-5.6.8-6 1.1-1.1 7.1 0 18 3.5zm169.1 4.5c.2.2-2.5.4-6 .3-4.2 0-5.7-.3-4.4-.8 1.8-.8 9.4-.3 10.4.5zM110.2 915c9.6 4.6 10 7.1 1 6.9-7.8-.1-10.4-1-12.1-4.1-1.3-2.2-1.3-2.8-.1-4.3 1.6-2 4.8-1.6 11.2 1.5zm56.7 6.6c8.5 1.2 34.4 6.3 45.9 8.9 1.7.4 2.2 1.2 2.2 3.5 0 6.1-5.8 6.5-22 1.5-6.3-2-16.9-4.9-23.5-6.6-6.6-1.6-13-3.4-14.2-3.9-3.3-1.4-2.9-4.2.6-4.9.2-.1 5.1.6 11 1.5zM127 939.5c1.5 1.9.9 4.9-1.1 5.3-2.2.4-7.4-4.1-6.5-5.6 1-1.7 6.1-1.5 7.6.3zm-4.4 22.6c2.2 1.5 4.6 3.4 5.3 4.3 2.1 2.5-2 2.1-7.7-.8-5.4-2.7-7.7-5-6.7-6.6.9-1.4 4.1-.4 9.1 3.1zm49.8 7c8 2.3 9.5 3.4 7.9 5-1.4 1.4-9.6-.3-16-3.3-8.7-4.1-3.5-5.1 8.1-1.7zM134.7 991c11.6 5.9 20.3 13 20.3 16.5 0 1.3-.5 2.7-1.1 3.1-1.2.7-22.8-9.5-27.5-13.1-5.1-3.9-7.1-11.5-3-11.5.8 0 5.9 2.3 11.3 5zm47.2 28.6c9.1 2.5 21.6 6.5 27.6 9 20.5 8.5 24 9.6 39.6 12.5 24.7 4.5 29.9 7.2 15.2 7.7-10.4.4-25.7-2.7-33.8-6.8-4.1-2-9.1-3.4-16-4.5-22.9-3.4-46.5-13-50.6-20.8-1.3-2.4-.9-2.3 18 2.9zm-38.4 1.8c5.1 2.2 4.6 4.6-.9 4.6-5.2 0-10.2-3.2-7.6-5 2.1-1.4 4.5-1.2 8.5.4zm37 25.6c3.6 1.8 8.3 4.9 10.6 6.8 3.7 3.1 3.9 3.6 2.5 5s-1.9 1.4-5.6-.7c-2.2-1.2-6.9-3.1-10.3-4.1-10.6-3-16.1-6.9-14.1-10.1 1.2-2 10.1-.3 16.9 3.1zm119 6c.8 1.2-8.1 1.2-11 0-1.4-.6-.2-.9 4.2-.9 3.4-.1 6.5.3 6.8.9zm-144.2 10.3c1.8.8 3.8 2.1 4.5 2.9 1.6 2-.3 3.7-5.1 4.5-2.7.4-3.9.1-5.6-1.6-2.5-2.5-2.6-3.5-.5-5.5 1.9-1.9 2.6-2 6.7-.3zm34.4 6.3c13.9 5.5 19.3 8.1 19.3 9.4 0 1.6-10.1 1.2-16.1-.6-10.5-3.1-20.1-9.7-18.3-12.5.9-1.5 2.9-1 15.1 3.7zm8.5 25.8c2.5.7 9 3.9 14.4 7.1 5.5 3.2 13.6 7.6 18.2 9.7 4.5 2.1 8.2 4.2 8.2 4.7 0 1.8-6.5 2.3-14.3 1.2-9.6-1.4-12-2.3-23.6-9.9-5.1-3.4-9.8-6.2-10.4-6.2-1.7 0-4.7-3.2-4.7-5.1 0-3.1 4.9-3.7 12.2-1.5zm1.6 20.8c-.2 1.3-.7 2.3-1.3 2.3-.5 0-1.1-1-1.3-2.3-.2-1.5.2-2.2 1.3-2.2s1.5.7 1.3 2.2zm-17.8.7c1.7 3.2 1.3 13.1-.5 13.8-3.1 1.1-7.4-8.1-6.1-13.1.8-3.2 5-3.6 6.6-.7zm58.3 17.2c7.3 2.8 19.2 7.3 26.6 10 19.2 7.1 25.5 10.8 23.5 14-1.1 1.9-6.9.7-19.3-4-7-2.7-17.3-6.3-22.7-8-11.7-3.7-25.7-10.9-26.2-13.5-.4-1.9 1.3-3.6 3.6-3.6.7 0 7.2 2.3 14.5 5.1zm-29 .8c6 2.6 12.7 6.9 12.7 8.1 0 .6-1.2 1.5-2.7 2.1-2 .7-4 .5-8.7-1.1-3.4-1.1-8.7-2.3-11.9-2.7-7.1-.7-8.4-2.6-4.1-6 3.6-2.8 8.6-3 14.7-.4zm85.2 1.7c1.7.9 7.2 2.7 12.3 4 13.6 3.5 17.7 5.9 15.2 8.9-2.7 3.2-14.8 1-27.8-5.1-10.2-4.6-12.3-6.1-11.6-7.9.8-2 8-2 11.9.1zm-84 33.6c5.6 3.2 10.5 8.1 9.3 9.3-.3.4-3.4-.1-6.9-1-11.3-3-16.6-6.8-13.8-10.1 1.8-2.2 5.3-1.6 11.4 1.8zm342.4 97.4c4.4.9 3.8 2.2-1.4 3-4.8.7-9.5-.1-9.5-1.6 0-.7 1.5-1.2 6.6-1.9.6 0 2.6.2 4.3.5z"/><path d="M126.4 299.1c-1.1 1.9-.8 11.3.6 13.8 1.8 3.4 3 1 3-6.1 0-7.7-1.5-11-3.6-7.7zM132.4 353.6c-1.3 7.2 1.4 17.8 3.7 14.2 1.9-3 .2-17.8-2.1-17.8-.5 0-1.2 1.6-1.6 3.6zM393.6 394.2c-.6 4.1-3.3 28.4-4.8 44.1-1.4 14-.9 15.3 4.9 12.2 5.7-3.1 7.8-7.6 7.8-16.5 0-5.1-.6-8.9-1.9-12-1.5-3.5-1.9-6.7-1.8-14.5.1-10.6-.6-15.6-2.5-16.2-.7-.3-1.4 1-1.7 2.9zM612 417.3c0 .8.9 2.2 2 3.2 1.9 1.8 2 1.7 2-.1 0-2-1.7-4.4-3.2-4.4-.4 0-.8.6-.8 1.3zM621 427.4c0 .8 2 3.6 4.5 6.3 3.4 3.6 4.4 4.3 4.5 2.9 0-2.3-4.3-8.1-7-9.6-1.6-.8-2-.8-2 .4zM575.2 432c-3.2 3.5-15.4 28.5-19.3 39.8-2.3 6.9-2.9 9.6-2.1 10.4 2.7 2.7 8.4-6.5 14.1-22.6 1.7-4.9 4.7-12.5 6.7-16.9 1.9-4.4 3.4-9.2 3.2-10.6l-.3-2.6-2.3 2.5zM638 447.4c0 2.5 1.2 4.6 2.5 4.6 2.1 0 2.7-1.7 1.5-4-1.2-2.3-4-2.7-4-.6zM578.3 457.5c-2.5 1.7-6.4 11.1-8.8 21.4-1.8 7.1-1.5 10 1 10.4 3.1.6 11.9-19.4 11.9-27.2.1-5.9-.8-6.9-4.1-4.6zM644.6 456.9c-1.3 2 19.2 26.1 22.2 26.1 1.9 0 1.4-3.7-.6-5.2-1.1-.7-2.6-2.9-3.6-4.8-.9-1.9-4.5-6.5-8-10.3-6-6.3-8.7-7.9-10-5.8zM504 468.6c-1.9 1.3-6.9 3-11 3.9-8.8 1.9-10 2.7-7.5 5.5 4.7 5.2 18.9.2 21.5-7.5.7-2 1-3.8.8-3.9-.1-.2-1.9.7-3.8 2zM804.3 495.5c-.3.9-.3 1.9.1 2.2.7.7 3.6-1.6 3.6-2.8 0-1.5-3-1-3.7.6zM398.7 493.4c-.9 2.2 1.9 5.4 3.3 4 .9-.9.9-1.7.1-3.3-1.3-2.4-2.7-2.7-3.4-.7zM410.4 528.4c-1 2.6 2.2 8.3 5.1 9 3.9 1 5-.5 3.1-4.2-1.5-2.9-5.1-6.2-6.9-6.2-.4 0-1 .6-1.3 1.4zM440 537.9c0 1.2 2.9 3.5 3.6 2.8 1.1-1-.5-3.7-2.1-3.7-.8 0-1.5.4-1.5.9zM446.6 547.5c.8 2 4.3 3 5.7 1.6 1.5-1.5-.7-3.1-4-3.1-1.6 0-2.1.4-1.7 1.5zM303.6 513.1c-3 2.4-3.4 3.9-.8 3.9 1.8 0 4-1.9 5.6-4.8 1.1-1.9-1.8-1.4-4.8.9zM291.7 521.7c-1.5 1.4-.6 2.4 2 2.1 3.4-.4 4.3-2.8 1.1-2.8-1.4 0-2.8.3-3.1.7zM988 534.1c-20.6 10.3-38.3 19.8-39.2 21-1 1.2-1.8 2.9-1.8 3.9 0 4.1 6 3.3 18.8-2.7 4.2-1.9 18.3-8.4 31.2-14.2 13-5.9 26-12.4 29.1-14.4 6.3-4.2 8.9-7.9 7.3-10.5-2.6-4.1-6.6-2.6-45.4 16.9zM1017 540.7c-.8.3-4.2 2.5-7.5 4.8-6.8 4.8-16.9 10-33 17-6 2.6-15 6.7-19.8 9.2-4.8 2.4-11.1 5.3-14 6.4-4.9 1.9-10.7 6.3-10.7 8.1 0 .5 1.1 1.3 2.3 1.9 2 .9 4.3.3 14.3-3.8 6.5-2.7 14.2-5.5 16.9-6.3 8.2-2.2 37.4-15.3 47.6-21.2 11-6.5 13-8.5 13.2-13 .2-3.2.1-3.3-3.8-3.5-2.2-.1-4.7.1-5.5.4zM899.2 546.1c-5.7 1.6-22.1 7.6-36.5 13.4-14.4 5.7-29.8 11.4-34.2 12.6-6.7 1.8-14.7 5-16.4 6.5-.3.3 1 2 2.8 3.8 3.1 3.2 3.3 3.8 2.7 8-1.1 7.3-1 7.3 21.4-1.4 5.8-2.2 20.5-7.2 32.7-11 24.5-7.7 33-11.1 33.9-13.5.4-1-.5-2.8-2.5-4.9-1.7-1.7-3.1-3.7-3.1-4.4 0-1.3 5.1-4.2 7.3-4.2 2.3 0 6.7-4 6.7-6.1 0-2.6-2.3-2.4-14.8 1.2zM1017 567c-2.5 1.6-7.4 5.1-11 7.6-8.4 5.9-21.5 12.1-36.5 17.3-24.4 8.5-37.6 14.2-37.3 16 .3 1.3 1.5 1.6 6.8 1.5 4.9-.1 11.2-1.6 26-6.3 21.4-6.8 30.9-9.3 32.2-8.5 4.1 2.5-19.8 14.2-48.7 23.9-11.7 3.9-18.5 7.6-18.5 10 0 1 1.1 1.5 3.4 1.5 4.8 0 24.5-5.2 40.2-10.5 12.5-4.3 20.4-5.6 20.4-3.5 0 1.2-6.6 4.6-19.5 10-11.3 4.7-17.7 8.5-22 13.1l-3 3.2 6-.7c20.4-2.3 46-13.7 51-22.8 1.7-3.1 1.7-3.8.5-5.3-1.1-1.3-2.5-1.6-6.2-1.3-2.6.3-4.8.4-4.8.3 0-.1 2.2-1.6 5-3.4 6.7-4.4 11.6-10.4 13.5-16.5.8-2.8 3.1-7.1 5-9.6 7.6-9.8 8.7-11.7 8.3-15.2-.3-2.9-.7-3.3-3.3-3.6-2-.2-4.4.7-7.5 2.8zM715.5 569.7c-4.5 1.1-4.8 2.6-1 4.5 3.1 1.6 3.5 2.2 2.4 3.4-1.6 1.9-15.3 8.9-23.7 12-9.5 3.6-20.2 9.3-20.2 10.7 0 2.3 2.3 3.7 6.1 3.7 2 0 12.9-2.7 24.3-5.9 11.4-3.3 26.6-7.2 33.9-8.6 17.7-3.6 38.9-8.8 46.1-11.5 5.4-2.1 5.7-2.3 4.2-3.9-2.4-2.3-19.8-1.9-34.5.8-13.1 2.4-20 2.7-20.5.8-.3-.6-.7-2.4-1-4-.6-2.6-.8-2.7-7.4-2.6-3.7.1-7.6.4-8.7.6zM684.3 574.7c-1.9.7-1.6 2.1.7 3.3 2.6 1.4 10-.5 10-2.5 0-1.1-1.2-1.5-4.7-1.4-2.7 0-5.4.3-6 .6zM899.4 579.5c-15.4 4-31.5 9.5-39.9 13.5-13.1 6.2-21.8 17-17 21 1.9 1.6 4.7.6 12.2-4.2 6.4-4.1 33.1-15.6 47.3-20.3 8.9-3 14.3-6.2 14.8-8.9.8-4.2-4.2-4.5-17.4-1.1zM641.5 580c-1 1.7.5 3 3.4 3 3.5 0 9.1-1.9 9.1-3.1 0-1.2-11.7-1.1-12.5.1zM392.8 587.7c-.9.2-2 1.4-2.4 2.6-1 3.1 2.4 5.3 10.3 6.6 3.8.7 14.4 3.2 23.6 5.7 18.5 5 25 5.5 25.5 1.8.4-2.6-5.9-6.1-18.7-10.3-13.7-4.5-33.2-7.8-38.3-6.4zM726.5 605c-22.3 2.6-69.5 9.1-72.7 10-7.7 2.2-10 6.8-4.5 8.9 2.3.9 13.6 0 24.7-1.9 3-.5 10.9-1.4 17.5-1.9s14.7-1.7 18-2.5c6.7-1.8 13.1-2.1 14-.7.7 1.3-.9 2.1-13 6.6-12.9 4.8-26.5 11.6-30.9 15.5-4.2 3.8-5.7 8.7-3.1 10.7 2.4 1.7 4.8 1 18-4.7 17.2-7.6 29.6-12.3 48.5-18.5 9.6-3.2 20.9-7 25-8.5 4.1-1.5 10.1-3.5 13.3-4.4 6-1.8 6.8-3.1 4-6.4-1.7-1.9-3.3-2-26.8-2.5-13.7-.2-28.1-.1-32 .3zM522.8 606.5c-5.4.8-16.6 2.1-25 2.9-18 1.9-27.8 4-30.7 6.7-2.4 2.3-2.5 2.9-.8 5.3 3.1 4.2 15.2 4.6 43.3 1.1 24.8-3 58.6-5.7 60.7-4.9 1.8.6 7.3-2 8-3.8.7-2.1-1.1-4.6-4.6-6.5-2.7-1.5-6.3-1.8-22.2-2-11.8-.1-22.7.4-28.7 1.2zM899.2 608.5c-6.2 2-17.3 5.7-24.5 8.4-35.5 13.1-50.7 22.3-50.7 30.5 0 3.6 3.3 3.4 9.5-.5 5.4-3.4 24.2-11.3 52-21.8 29.2-11.1 34.1-13.7 33.3-17.8-.6-3-7.2-2.6-19.6 1.2zM790.1 621.5c-16.3 3.6-70.1 21.5-83.6 27.9-9.5 4.5-15.5 8.8-15.5 11.2 0 3.1 7.2 1.5 33.2-7.5 8-2.8 24.3-8 36.1-11.5 24.4-7.4 39.8-12.8 43.3-15.1 2.7-1.8 3.2-5 .8-5.9-2.4-.9-7.2-.6-14.3.9zM617.5 643.1c-19.5 3.1-26.6 3.3-43.6 1.3-8.5-1-20.1-1.7-25.9-1.7-18.6.1-55 7-59.4 11.3-3.3 3.2.9 8.2 5.6 6.5 4.3-1.5 40.7-3.7 67.3-4.1 36.1-.5 53.7-2 74-6.6 12.1-2.7 18.5-6.4 13.9-8.2-3.1-1.2-20.1-.4-31.9 1.5zM938.3 644.5c-5.4 2.7-8.8 6.7-7.9 9.1.8 2.2 3.8 1.7 8.8-1.5 6.7-4.3 10.2-10.1 6-10.1-1 0-4.1 1.1-6.9 2.5zM372.1 647.3c-3.6 4.4 0 6.8 25.5 16.5 19 7.3 25.7 9.2 33 9.2 5 0 10.2 1.8 12.3 4.3 1.8 2.3 6.4 2.1 9.2-.3l2.4-2-2.3-2c-2.4-2-8.1-4-11.7-4-1.1 0-3.9-1.6-6.3-3.4-5.4-4.3-14.6-8.2-33.7-14.1-17.1-5.3-26.3-6.6-28.4-4.2zM993.5 648.4c-7.5 2.4-31.2 17.8-39.1 25.3-2.8 2.7-5.8 5.2-6.8 5.8-1 .5-1.8 1.9-1.9 3-.3 3.5 4.5 2.1 22-6.4 9.1-4.5 16.9-8.1 17.4-8.1s.9 1.1.9 2.4c0 3.7-4.5 8.4-9.3 9.7-2.3.6-6 2.4-8.3 3.9-4 2.9-8 7.7-7.1 8.7.3.3 4.7-.2 9.8-1.1 11.2-1.9 10.9-1.9 10.9-.3 0 1.9-12.2 10.7-22.5 16.2-21.1 11.2-29.4 19.5-19.6 19.5 7.5 0 46.3-21.4 56.4-31.1 5.7-5.5 6.2-9.2 1.4-11.9-2.5-1.4-3-1.3-5.8.2-7.1 4.1-7.7 1.1-.8-3.7 5.5-3.9 7.3-7.3 5.9-11-.6-1.5-1.9-2.9-3-3.2-2.9-.8-2.5-1.9 2.4-7.4 5-5.6 6-8.3 3.9-10.4-1.7-1.7-1.6-1.7-6.8-.1zM902.2 650.5c-9.5 3.3-49.6 23.3-58.7 29.4-7.2 4.7-9.4 8.4-6 9.7 3.9 1.6 14.2-2.5 43.6-17.2 35-17.4 37.2-18.9 33.3-22.8-2.1-2.1-3.6-2-12.2.9zM774.9 653c-16.8 2.6-75.8 19.9-83.8 24.6-3.3 2-4.1 4.8-1.5 5.8 3.3 1.3 8.1.5 20.6-3.4 7.2-2.2 23.9-6.7 37.1-9.9 26.9-6.6 32.9-8.4 37-11.3 2.7-2 3.7-5.8 1.5-5.8-.7 0-2.2-.2-3.3-.4-1.1-.2-4.5 0-7.6.4zM620 663.1c-2.5.5-7.3 2.3-10.7 3.9-8.7 4.3-12.4 9.5-9.1 12.8 1.8 1.8 3.7 1.5 13.2-2.3 4.8-2 14.2-4.9 20.9-6.6 22.2-5.6 23.2-8.3 2.9-8.6-7-.1-14.7.2-17.2.8zM345.4 668c-6.9 2.7-2.1 7.1 10.6 9.8 3 .6 13.2 2.3 22.5 3.7 9.4 1.4 22.7 4 29.7 5.7 13.2 3.2 17 3.1 19.2-.5 3.5-5.6-17.3-14-44.7-18.1-11.4-1.7-33.7-2.1-37.3-.6zM479.4 669c-11.1 1.2-19.4 4.5-19.4 7.6 0 3.5 3.8 3.9 33 3.6 25.2-.3 38.5.4 52.7 2.4 3.3.5 4.5.2 6.2-1.5 2.5-2.5 2.6-3.5.6-5.5s-6.8-3.2-19.1-5.1c-11.8-1.8-44.1-2.7-54-1.5zM892 680.1c-13.8 5.6-55.5 26.8-59.5 30.2-3.5 3-3.8 3.6-2.6 5.1 2 2.3 6.2 2 16.5-1.5 9.5-3.2 55.7-26.4 59.5-30 1.3-1.2 2.1-3 1.9-4.2-.5-3.5-6.8-3.3-15.8.4zM646 683.7c-15.9 1.1-33.4 4.6-40.5 8-5.2 2.5-7.5 10.3-3.2 11.1 1 .2 8-1.5 15.5-3.9 7.5-2.3 19.3-5.6 26.1-7.3 8.4-2.1 12.8-3.7 13.5-4.9 1.4-2.2-.6-3.8-4.4-3.5-1.4.1-4.5.3-7 .5zM729.5 687c-40.8 7.4-47.5 9.1-51 13-1 1.1-1.5 2.6-1.2 3.5.8 2 9.7 2 16.3 0 4.4-1.4 9.2-2.5 32.9-7.1 3.9-.7 10-1.3 13.6-1.4 10.3 0 14.9-2.3 13.2-6.6-1.4-3.8-8.4-4.2-23.8-1.4zM490.5 694.6c-8.5 1.2-14.5 4.1-14.5 7 0 1.8 7.9 3.1 26.5 4.4 8.7.7 18.4 1.6 21.5 2.2 10.9 1.9 14 2.1 17 .8 2.1-.9 3-1.9 3-3.6 0-3.2-5.9-6.1-17.2-8.4-8.6-1.8-30.4-3.2-36.3-2.4zM900.5 701.9c-7 2.6-81 39.2-86.8 43-4 2.6-4.8 3.6-4.5 5.8.2 1.4 1 3 1.9 3.6 1.7 1.1 3.7.3 29.9-11.5 9.1-4.1 22.6-10.1 30-13.4 21.8-9.6 38-19.6 39.5-24.5.8-2.3-1-4.9-3.4-4.9-.9.1-3.8.9-6.6 1.9zM746 709.1c-18.4 2.4-47.9 9.3-52.6 12.3-4.4 2.9-2.5 7.6 3 7.6 1.7 0 8.1-1.2 14.1-2.6 6.1-1.3 19.3-4.3 29.5-6.5 20.4-4.4 24-5.5 24-7.5 0-2.1-4.2-4.4-8-4.3-1.9.1-6.4.5-10 1zM372 710.4c-16.2 2.9-26 6.3-26 9.1 0 1.9 2.7 4.4 5.6 5.1 1.4.4 6.5.1 11.3-.5 13.8-1.7 24.1-1.4 31.5 1 7.2 2.4 11.1 2 12.1-1.2.9-2.9-3.4-7.3-10.9-11.1-7.1-3.6-13.3-4.2-23.6-2.4zM984.5 714.7c-1.6.8-4.8 3.2-7 5.3-4.1 3.8-12.2 9.5-20.7 14.3-5.4 3.1-10.8 7.5-10.8 8.8 0 1.7 4.3.9 8.5-1.6 2.3-1.3 7.4-3.1 11.3-3.9 9.2-1.9 17.3-6 23.8-11.8 5.8-5.4 6.8-7.7 4.7-10.7-1.7-2.5-5.6-2.7-9.8-.4zM481.5 719.9c-1.2.5-2.7 1.6-3.4 2.5-3 3.7-.3 4 29.9 3.9 38.1-.1 43.9-1 35.4-5.3-2.3-1.2-8.5-1.5-31.4-1.7-15.7-.2-29.4.1-30.5.6zM750.5 731.5c-11.9 1.9-40.8 9.1-46.8 11.7-4.7 2.1-7.4 4.9-6.2 6.8 1.1 1.8 9.6 1.1 25.5-2.1 8.5-1.6 16.6-2.9 18-2.7 2.3.3 1.9.8-4 4.9-3.6 2.6-9.2 6.3-12.5 8.2-6.9 4.1-15.4 10.9-18.6 15-1.9 2.6-2 3-.6 4.4 3.5 3.5 16-1.8 45.7-19.7 8-4.8 17.7-10.4 21.6-12.4 8-4.1 11.9-7.7 11.1-10-1.9-4.9-16.7-6.7-33.2-4.1zM516.5 738.7c-7 .5-27.2 3.2-29.1 4-.9.3-1.4 1.5-1.2 3.2l.3 2.6 18.5-.2c29.6-.2 55.6-4.1 54.8-8.1-.3-1.5-2.3-1.7-19.3-1.8-10.5 0-21.2.1-24 .3zM364.1 741.5c-14 3.1-20.4 6.4-17 8.6.8.6 10.5.8 24.4.6 23.9-.4 29.5-1.3 29.5-4.6 0-.9-1.5-2.5-3.2-3.6-4.3-2.6-24.1-3.2-33.7-1zM869.5 756.8c-6 2.1-14.6 5.7-18.9 8-4.4 2.3-8.4 4.2-9 4.2-.6 0-7.5 3-15.3 6.6-12.1 5.7-14.4 7.1-15.2 9.6-.8 2.2-.7 3 .2 3.4 1.7.6 35.4-10.7 48.6-16.3 15-6.4 26-12.2 27.2-14.5 1.4-2.6-.5-4.8-4-4.8-1.4.1-7.5 1.8-13.6 3.8zM614.8 758.7c-2.8.4-6.8 4.5-6.8 6.9 0 2.2 4.9 2.4 31.8 1.1 20.9-1 26.5-1.6 27.3-2.7 1.3-2.3.6-3.4-2.8-4.1-3.9-.8-45.9-1.8-49.5-1.2zM785 759.7c-36.2 13.2-64.9 27.7-69.2 35-2.1 3.6-.8 6.3 3 6.3 1.5 0 8.6-2.9 15.7-6.4 18.9-9.5 35.5-16.9 47.5-21.1 14.8-5.3 17.6-7.6 15-12.5-.9-1.6-2-2-5.8-1.9-2.6 0-5.4.3-6.2.6zM507.5 762.1c-8.9 1.2-12.8 2.5-15.1 5-1.6 1.7-1.6 2.2-.4 2.9 3.1 2 48.7.2 55.7-2.1 3.9-1.2 4-1.9 1.2-4.5-1.9-1.7-3.9-1.9-18.3-2.1-8.8 0-19.2.3-23.1.8zM952.9 765.4c-19.1 7.8-50.9 30.3-50.9 36 0 1.1 1.4 2.3 3.9 3.3 2.2.9 4.2 2.2 4.5 2.9.3.7-1.1 3.2-3 5.5-4.1 5-4.1 7.3.1 7.7 2.2.2 5.3-1.1 11.3-4.8 4.6-2.7 8.6-5 8.9-5 .7 0 21.1-12.8 24.8-15.6 1.7-1.2 5.5-3.5 8.5-5.1 3.1-1.6 6.4-4.3 7.7-6.2 2.7-4 2.7-4.1.9-6.6-1.3-1.8-1.6-1.8-7.2 1.1-13.2 6.8-33 17.6-34.4 18.8-1.4 1.3-7.4 3.6-9.1 3.6-2.2 0 .9-3.4 5-5.4 2.5-1.3 7.5-4.6 11.1-7.2 3.5-2.7 10.9-7.6 16.5-11 10.5-6.4 13.8-10.1 11.5-13-1.7-1.9-3.5-1.8-10.1 1zM374 770.5c-10.3 1.6-14 2.9-14 5 0 2.6 4.5 3.5 16.8 3.5 16.8 0 22.5-2.2 20.7-8-.6-1.8-1.5-2-7.8-1.9-4 .1-11 .7-15.7 1.4zM514.6 780.6c-17 2.6-26.9 5.7-26.4 8.3.6 2.9 8.2 3.4 33.3 2.2 25.2-1.2 30.9-2 32-4.9 2.3-6.1-17.3-9-38.9-5.6zM834 788.9c-10.7 2.6-26.7 6.5-35.5 8.6-20.7 4.9-64.5 17.9-70.5 21-5.5 2.8-6.8 5-4.4 7.6 2.1 2.3 7 2.4 14.4.4 3-.8 10.1-2.6 15.7-4 5.7-1.4 17.8-5.2 27.1-8.5 10.1-3.5 25.2-7.7 37.8-10.5 37.3-8.4 51.3-14.3 43.5-18.5-3.3-1.7-7.9-1.1-28.1 3.9zM642.3 791c-13.2 3.5-22.1 9.7-16.4 11.5 2.2.7 19.5-2.9 26.8-5.6 6.4-2.5 8-4.1 5.8-6.3-2.1-2.1-7.2-2-16.2.4zM953 804.5c-2.9 1.9-10 7.5-15.9 12.3-14 11.6-18.7 15.2-19.8 15.2-1.5 0-7.3 6.5-7.3 8.2 0 .8.7 2.1 1.5 2.8 4.7 3.9 48.3-26 52.5-36 2.8-6.8-2.7-8.1-11-2.5zM375.2 804.7c-4 1.9-9.2 7.7-9.2 10.2 0 5.1 4.6 5.9 46.7 9.1 35.2 2.6 33.6 2.6 37.5-1l3.3-3-2.6-2.4c-3.4-3-12.1-5.1-29-7.1-9.3-1-16.3-2.5-22-4.5-9.8-3.4-19.4-4-24.7-1.3zM844.5 807.4c-26 7.7-37.6 15.1-32.3 20.4 2.2 2.2 7.1 1.2 19.8-3.8 7.1-2.9 17-5.9 23-7.1 15.8-3.1 20.1-5.7 15.8-9.6-3.2-2.9-16.2-2.9-26.3.1zM484.6 813.1c-4.9 1.2-7.6 3.5-7.6 6.4 0 5.1 3.9 6.3 30.5 9.5 20.8 2.5 34.7 4.8 35.9 6 .6.6-.2 1.4-2 2.2-2 .9-9.6 1.3-25.4 1.3-22.7 0-27 .5-27 3 0 1.8 6.5 7.3 9.6 8.1 1.4.4 10.8.4 20.7.2 20.4-.6 24.9-1.6 26.8-6.5.6-1.5 2-4.7 3-7.1 2.6-5.8 2.4-7.6-1.1-11.5-6.2-7.1-22.6-11.5-45-12.2-8-.2-16.3 0-18.4.6zM636.1 818.4c-1.6 1.9-.3 4.5 2.6 5.2 3.4.9 14.3-.2 17.6-1.7 3.3-1.5 3.5-3.5.5-4.3-4.6-1.2-19.5-.7-20.7.8zM675.3 817.7c-2 .7-1.5 3.3.5 3.3 1.9 0 4.2-1.8 4.2-3.2 0-.9-2.7-.9-4.7-.1zM620.9 819.8c-2.4 2-2.1 5.2.5 5.2 2.4 0 6-3.5 5.3-5.3-.8-2.2-2.9-2.1-5.8.1zM961.1 824.1c-3.5 1.4-10.8 6.8-24.1 17.8-6.4 5.4-16.2 13-21.8 17-18.9 13.3-25.4 21.1-17.7 21.1 7.7 0 47.7-26.4 63.7-42.1 7.3-7.2 9.3-11.3 6.3-13.6-2.2-1.5-3.1-1.5-6.4-.2zM374.4 830.4c-7.9 1.8-14.1 5-14.9 7.7-.4 1.1-.5 2.3-.2 2.5.2.3 5.6.7 11.8.9 12 .4 26.3 2.5 33.9 5.1 5.7 2 11.4 2.2 13.4.5 2.4-2 2-7.4-.7-9.9-6.6-6.2-29.8-9.9-43.3-6.8zM756.5 844.7c-8 1.9-37.5 9.9-43.9 12-11.5 3.6-18.6 7.5-18.6 10.3 0 .5 1.1 1.6 2.3 2.5 2.2 1.4 3.1 1.3 10.8-1 4.6-1.4 20.5-5.6 35.3-9.5 14.8-3.8 27.5-7.5 28.3-8.1.8-.7 1.3-2.4 1.1-3.8-.3-2.5-.6-2.6-6.8-2.8-3.6 0-7.4.1-8.5.4zM849.5 856.9c-6.1 2.2-20.7 9.6-37.4 19-12.7 7.2-18.5 9.1-27.1 9.1-6.4 0-26.2 4.1-42 8.6-18.7 5.3-30 11.9-30 17.5 0 3.9 4.9 3.4 18.8-1.9 12.5-4.8 39.5-10.9 53.4-12.2 11.2-.9 14.7-2.4 51.5-21.8 17.8-9.4 22.4-12.2 23.4-14.5.9-2.1.9-3-.1-4.2-1.6-1.9-4.2-1.8-10.5.4zM775.3 863.5c-26.9 8.3-53 18.8-60 24.1-4.7 3.5-4.3 6.9.7 6.8 3.6-.1 48.6-14.3 62-19.6 12.6-4.9 18.6-10.1 15.8-13.6-1.6-1.9-6.5-1.3-18.5 2.3zM382.5 863.5c-7.3 1.9-10.1 3.6-10.9 7-1.5 5.9 2 7.7 17.9 9.5 5.5.6 14.4 2 19.7 3 5.3 1.1 10.9 2 12.4 2h2.7l-.7-8c-.3-4.4-.9-8.6-1.2-9.4-1.6-4.1-28.8-6.9-39.9-4.1zM521.5 863.6c-12.6 1.3-20.6 2.8-25.2 4.9-2.9 1.3-5.3 2.8-5.3 3.3 0 2.1 6.3 3.5 18.5 3.9 14.8.6 29.1-.8 34.4-3.4 3.9-2 5.1-5.2 2.7-7.2-1.6-1.3-17.5-2.3-25.1-1.5zM659.5 865.6c-20.9 6.4-45 16.6-44.2 18.8.6 1.8 14.5 1.1 22.8-1.2 13.7-3.8 28.8-10.1 30.6-12.9 1.2-1.8 1.4-2.9.6-4.2-1.4-2.2-3.8-2.3-9.8-.5zM959 865.2c-1.9.5-14.7 6.4-28.5 13-53.4 25.7-55.5 26.9-54.2 30.1 1.5 3.9 10.1 1.5 33.9-9.2 8.4-3.7 23.8-10.6 34.1-15.2 19.5-8.6 23.7-11.5 23.7-16.4 0-3.5-2.6-4.1-9-2.3zM865.5 881.7c-1.1.2-7.3 2.9-13.9 6-6.5 3-19.1 7.9-28 10.7-24.1 7.9-28.9 11-26.6 17.1 1 2.7 1.2 2.8 6.8 2.2 3.2-.2 7.6-1.4 9.8-2.5 2.1-1.1 12-4.6 21.9-7.8 9.9-3.1 19.9-6.5 22.2-7.5 5.3-2.3 12.7-9 14.4-13.1 1.1-2.7 1-3.2-.6-4.4-1.9-1.4-2.5-1.5-6-.7zM525.5 886.5c-10.7 2.3-28.5 10.5-28.5 13.1 0 .7 1.7 1.5 3.9 1.9 3.9.6 6 .4 18.6-2 3.9-.8 12.4-2.1 19-2.9 11.3-1.5 15.5-2.4 19.8-4.1 2.3-1 2.2-5.2-.2-6.5-2.7-1.4-25.4-1.1-32.6.5zM946.3 887.5c-1.7.7-5.7 3.4-8.8 6-9.8 8-17.7 12.3-38 21.2-7.7 3.4-16.2 6.8-19 7.6-7.1 2.1-13.8 5.2-15.3 7-1.1 1.3-.9 1.8 1 3.1 3.6 2.6 7.6 1.9 28.3-4.5 13.7-4.3 20-5.8 20.7-5.1 1.5 1.5.2 2.9-5 5.2-5 2.3-29.8 10.9-39.8 13.9-10.7 3.3-14.2 5.9-12.8 9.6 1.5 3.8 4 3.7 18.6-1.1 17.4-5.6 45.8-16.7 51.4-19.9 4.7-2.8 7.4-7.5 7.4-13.1 0-3.5.7-4.6 8.5-12 10.2-9.9 12.4-14.3 8.9-17.8-1.8-1.9-2-1.9-6.1-.1zM647.3 901c-7.2 1.5-15.6 5.4-22 10.4-3.5 2.6-6.3 5.1-6.3 5.6 0 2.1 2.3 1.9 6.2-.3 2.4-1.4 6.6-2.8 9.3-3.2 6.4-.9 23.5-7.4 24.2-9.2 1.2-3.2-4.3-4.7-11.4-3.3zM851.5 911.9c-11.9 4.4-35.8 15.2-40 18.1-6.7 4.6-8.1 9-3.5 10.5 3.7 1.2 17.4-3.9 38.5-14 13.7-6.6 19.7-11 19.3-13.9-.2-1.7-1.1-2.1-4.8-2.3-2.5-.2-6.7.5-9.5 1.6zM532.5 918.4c-15.7 4.2-26.8 9.7-25.1 12.4 1.1 1.9 7.6 1.4 18.3-1.2 5.4-1.3 13.1-3 17.1-3.6 5-.8 8.2-1.9 10-3.5 2.5-2.2 2.6-2.5 1-4.1-2.7-2.8-11-2.8-21.3 0zM735.5 921.1c-28.5 7.7-50.3 14.7-58.5 18.8-2.1 1.1-2.5 5-.5 5.7 2.3.9 18.4-1.3 25.8-3.6 3.6-1.1 10.3-2.7 15-3.5 11-1.9 33.4-9.2 35.9-11.7 1.3-1.3 1.8-3 1.6-5.1-.3-3-.6-3.2-4.3-3.4-2.2-.1-8.9 1.1-15 2.8zM638.5 930.2c-1.1.6-3.2 2.2-4.6 3.5-1.5 1.4-4.4 3.1-6.5 3.8-2.1.7-4 1.8-4.2 2.4-.5 1.5 3.4 1.4 6.6-.3 1.5-.7 4.7-1.7 7.2-2.1 6.8-1 7.8-1.4 8.5-3.6 1.3-3.9-2.7-6.1-7-3.7zM365 942.5c-3.6 4.4 3 8.4 23.6 14.4 17.4 5 50 13.1 52.9 13.1 1.1 0 4.2 1.3 6.8 3 5.9 3.7 9.3 3.9 10.9.5 1.8-3.9-1.3-10.6-6.4-14-5.2-3.5-14.1-6.5-18.9-6.5-2.1 0-10.9-1.5-19.6-3.4-23.1-5-41.9-8.6-45.2-8.6-1.6 0-3.4.7-4.1 1.5zM838.5 944.5c-2.7.8-10.1 3.3-16.4 5.7-10.5 4-11.6 4.7-13.4 8.1-2.2 4.3-1.2 6.7 2.8 6.7 3.5 0 15.3-3.9 22-7.2 11.5-5.8 16.4-10.9 12.9-13.5-2.1-1.5-1.6-1.5-7.9.2zM750 949.6c-3.6.7-16.8 4.5-29.5 8.3-24.2 7.3-23.8 7.1-28.8 15.1-2.9 4.4-6.4 5.4-24.2 6.9-16.2 1.4-24 2.7-27.1 4.8-1.2.8-5.3 1.9-8.9 2.4-7.4 1-8.8 1.6-8 3 1.7 2.6 28-.1 58.3-6.1 16.4-3.3 19.9-4.6 24.7-9 2.4-2.3 5.3-3.4 14.7-5.5 28.3-6.3 46.9-15 42.7-20.1-1.4-1.7-5.4-1.7-13.9.2zM502 954.8c-4.3 2.1-6.2 6.5-3.8 8.8 3.7 3.7 12.9 4.7 47.2 4.8 25.9.1 33-.2 33.3-1.2.8-1.9-2.4-4.9-6-5.6-1.8-.4-6.7-2-11.1-3.7-6.5-2.5-10.1-3.2-21-3.9-21.8-1.5-34.6-1.3-38.6.8zM937.5 954.4c-2.2.7-10.3 4.1-18 7.6-7.7 3.4-17.9 7.7-22.7 9.6-17 6.5-21.8 9.9-21.8 15.8 0 5.4-2.8 6.8-22.7 11.6-9.8 2.3-23.2 5.5-29.8 7.1-15 3.6-22.9 6.6-26.6 10.1-3.4 3-3 5.5 1 6.5 3.2.8 15.4-1.6 30.4-6.1 6.2-1.8 13.9-3.8 17.2-4.4 3.3-.7 15.2-4.1 26.5-7.6s22.1-6.7 24-7.1c1.9-.4 7.9-2.5 13.5-4.7 20.3-7.8 21.8-8.9 24-16.7.7-2.2 2.2-4.3 4.2-5.6 1.7-1.1 5.9-3.7 9.2-5.8 6.4-4 8.4-7.4 6.1-10.2-1.5-1.8-8.9-1.9-14.5-.1zM834.9 972c-16.8 3.5-30.1 8.4-31.3 11.5-.8 2.2.3 4.3 2.6 5.1 2.6.8 6.4 0 23.8-4.7 12.5-3.4 15-4.4 17.9-7.3 4.1-4.2 3.7-6.6-1.1-6.5-1.8 0-7.2.9-11.9 1.9zM543.5 982.6c-6 .7-17.1 1.7-24.5 2.4-16.2 1.3-16.8 1.4-17.6 4.7-1.1 4 2.3 6.6 9.5 7.1 11.5.8 44.2-3.7 52.8-7.3 6.4-2.7 2.7-8.6-5.2-8.4-2.2.1-8.9.7-15 1.5zM367.8 982.7c-2.7.7-3.3 4.2-1.2 6.3 2.8 2.6 15.6 6.9 24.3 8.1 4.2.6 12.1 1.9 17.6 3 5.5 1.1 14.8 2.3 20.8 2.6 10.4.6 10.7.5 10.7-1.5 0-5.8-16.8-11.4-48-16-16.3-2.5-22-3-24.2-2.5zM693.5 994.1c-41.8 7.8-62.5 12.5-64.6 14.6-.6.6-1.1 2.3-1.2 3.9l-.2 2.9 7.5-.2c4.6-.1 12.1-1.4 19.5-3.3 6.6-1.7 20.7-4.9 31.2-7 10.6-2.2 20.2-4.4 21.4-5 1.4-.8 1.9-1.9 1.7-3.8-.3-2.5-.7-2.7-5.3-2.9-2.7 0-7.2.3-10 .8zM902 1000.5c-3 .8-8.2 2.5-11.5 3.9-12 4.9-38.9 17.7-40.7 19.3-4.7 4.2.2 7.2 9.1 5.6 7.3-1.4 15.8-4.7 33-12.9 16.6-7.9 20.1-10.5 20.1-14.5 0-3.4-1.2-3.6-10-1.4zM734 1009.1c-3.9 1.6-32.7 8.4-52.3 12.4-19.2 3.8-30.4 7.4-32.4 10.2-.7.9-1.3 2.8-1.3 4.1 0 2.5.1 2.5 7.3 1.9 15.3-1.1 76.6-16.4 87.4-21.8 4.9-2.4 6.6-5.4 4.1-7-1.8-1.2-9.7-1-12.8.2zM489.8 1010.6c-2.5.8-3 3.2-.9 5.3 3.4 3.4 12.2 4.5 37.7 4.5 22.4.1 24.3 0 26.3-1.8 1.1-1.1 2.1-2.7 2.1-3.7 0-3.9-3.3-4.3-34-4.6-16.2-.1-30.2 0-31.2.3zM371.3 1014.1c-7.8 2.3-2.4 5.1 18.8 9.9 22.6 5.1 24.9 5.8 24.9 7.4 0 .8-1.5 1.7-3.3 2-4 .7-7.9 4.1-7.5 6.4.5 2.4 5.9 3.1 26.5 3.1 17 .1 18.3 0 19.3-1.8 1.5-2.9 1.3-18.1-.2-18.6-.7-.3-10.5-1.8-21.8-3.4-11.3-1.7-25-3.7-30.5-4.6-11.1-1.7-21.3-1.8-26.2-.4zM914.5 1016.2c-1.6.6-7.7 3.7-13.5 6.9s-17.7 9-26.5 12.9c-8.7 3.9-16.7 7.8-17.7 8.7-2.1 1.9-2.3 4.6-.5 6.2 1.5 1.2 15.8-1.9 28.6-6.4 7.8-2.6 10.8-2.2 8 1.1-2.8 3.5-16.8 11.8-34.6 20.5-10 5-18.7 9.7-19.3 10.4-.7.8-.9 2.2-.6 3.1.5 1.4 1.7 1.6 6.4 1.1 8.2-.7 20.4-5 36.1-12.8 21.9-10.7 26.9-15.1 28-24.7.8-7 1.3-7.7 6-10.1 4.6-2.4 12.1-10.4 12.1-12.9 0-4.5-5.9-6.3-12.5-4zM742.7 1023.5c-5.4 2.5-22.3 9.5-37.5 15.5-24.5 9.8-28.5 11.7-34.5 16.5-7.5 6-14.7 8.8-26 10-7.7.8-12 3.4-11.5 6.9.5 3.2 6 3.1 23.3-.3 19.3-3.8 25-6.2 27.6-11.2 1-2.1 2.8-4.3 4-4.9 1.1-.7 10.5-4 20.7-7.5 23-7.8 34.4-12.5 42.2-17.6 6.7-4.3 9.1-7.9 7-10.4-2-2.4-4.7-1.8-15.3 3zM390.8 1035.7c-3.9.9-2.7 6.3 1.4 6.3 2.9 0 5.8-1.9 5.2-3.4-.7-1.7-4.4-3.3-6.6-2.9zM496 1039.9c-3.8 1-3.7 3.7.2 5 9.3 3.4 53.3 6.5 57.6 4.2 3.5-1.8 1.2-4.8-5.1-6.5-9.8-2.8-45.7-4.7-52.7-2.7zM765.5 1048.5c-3.3.8-11.2 3-17.5 4.9-6.3 2-12.3 3.6-13.2 3.6-5.6 0-42.3 13.9-46.1 17.4-1.4 1.3-5.5 3.8-9 5.4-6.3 3-11 4.5-30.2 9.7-20.1 5.5-25.5 7.5-25.5 9.4 0 4.5 2.1 4.6 20.8 1.7 9.7-1.6 21.8-4.1 26.7-5.7 8.2-2.7 11.8-4.4 28.5-13.7 7.9-4.3 31.6-13 41.8-15.2 16.6-3.6 35.5-11.3 36.7-15 1.4-4.3-1.9-4.9-13-2.5zM903.4 1068.9c-2.1 1-7.9 4.8-12.7 8.5-14.5 10.9-24.7 15.1-49.3 20.1-18.1 3.7-24.6 7.2-21.2 11.3 1 1.2 2.9 1.4 10.3.8 11.2-.7 23.2-3.8 44.7-11.4 18.3-6.5 27.1-11.7 32-18.7 6.1-8.7 4.2-14.1-3.8-10.6zM393 1084.4c-1.8 4.7.1 7.6 8 12.3 15.8 9.3 27.9 13.4 43.6 14.8 16.2 1.5 22.5-5.9 6.9-8-5.8-.8-15-4.5-36-14.4-16.5-7.8-20.9-8.7-22.5-4.7zM905 1091.4c-1.9.7-6.5 3.3-10.1 5.8-8.1 5.5-16.6 8.9-55.9 21.8-33.6 11-38.5 13.2-38.5 17 0 2.4.2 2.5 6.5 2.4 5.3-.1 12-1.9 36.5-9.8 47.5-15.4 60-20.5 66.9-27.2 4.2-4 4.9-8.6 1.7-10.4-2.4-1.2-2.7-1.2-7.1.4zM484.3 1099.7c-1.8.7-1.6 6.8.2 8.7 1.8 1.8 3.1 2.2 12 3.5 7.3 1.1 42.4 5.1 44.9 5.1.8 0 2.8-1.1 4.3-2.5 2.8-2.5 2.8-2.5.8-4-4.2-3.2-28.2-8.6-46.9-10.4-11.7-1.2-13.4-1.2-15.3-.4zM662 1111.6c-16 1.9-27.8 4.2-32.6 6.4-3.7 1.6-4.2 2.2-4.7 6.1-.5 3.7-1.4 5-5.6 8.7-3 2.6-5.1 5.2-5.1 6.4 0 1.8.4 2 4.3 1.4 2.3-.4 9.6-2 16.1-3.6 6.6-1.7 12.8-3 13.7-3 2.4 0 35.7-11.3 40.4-13.8 7.3-3.8 10.5-8.2 6.9-9.6-2.6-1-21.3-.5-33.4 1zM553.8 1112.6c-3.2 1.7-3.5 2.9-1.2 3.8 4.5 1.7 9.1-.5 7.8-3.8-.8-2-3-2-6.6 0zM763 1122.5c-6.3 1.8-14 4.3-17 5.5-4.9 2-42 15.4-46.2 16.7-.9.3-3-.4-4.7-1.6-1.6-1.2-4.2-2.1-5.7-2.1s-9.6 2.3-18 5c-8.4 2.8-23.2 6.6-32.8 8.5-17.7 3.5-23.2 5.3-24.3 8.2-1.1 2.9 1.9 3.4 15.2 2.9 15.4-.7 29.6-2.7 42-6.1 5-1.3 13.6-3.1 19.2-3.9 5.5-.9 13.6-2.7 18-4 4.3-1.4 15.5-4.5 24.8-7 30.1-7.9 47.5-15.1 47.5-19.7 0-1.2-4.6-5.9-5.7-5.9-.4.1-6 1.6-12.3 3.5zM488 1123.5c-2.3 2.7-.7 4.9 4.3 6.2 7 1.7 37.1 3.5 53.2 3.1 11.6-.2 14-.6 14-1.8 0-1-1.4-1.7-4.5-2.1-2.5-.3-9-1.5-14.5-2.7-20.2-4.2-49.9-5.8-52.5-2.7zM885 1123.9c-3.6 1-9.9 3.2-14 4.9-9.8 4.2-37.1 19.4-45.7 25.5-3.8 2.7-9.3 6.3-12.3 8-3.8 2.2-5.5 3.9-5.5 5.2 0 3.4 3.7 2.8 10.1-1.5 3.2-2.2 7.5-4.5 9.4-5.1 8.5-2.7 29.4-11.5 45-18.9 9.3-4.4 17.5-8 18.2-8 2.7-.1 10.8-6 10.8-8 0-4.2-5.6-5-16-2.1zM416.3 1126.2c-3.1 1.5-2.9 2.3 1.1 4.2 2.5 1.2 6.4 1.6 14.9 1.6 6.4 0 12.2-.3 13.1-.6 2.6-1 1.8-3.1-1.6-4.4-4.6-1.7-24.7-2.3-27.5-.8zM344.8 1127.1c-2.5 1.4-2.2 2.8.6 3.5 3.1.7 6.7-1.1 6-3.1-.7-1.7-4.1-1.9-6.6-.4zM493.5 1142.7c-4.5 1.1-5.7 3.9-2.9 6.7 1.8 1.9 11.6 2.1 29.5.6 13.7-1.1 15.1-1.5 14.7-4.4-.3-1.8-1.2-2.2-6.8-2.7-7.7-.8-31.6-.9-34.5-.2zM544.7 1143.7c-1.4 1.3-.6 4.3 1.5 6.3l2.3 2.1-2.4 1.8c-1.3 1-5.7 3.5-9.7 5.5-4.1 2-7.4 4.1-7.4 4.6 0 2.8 12.4 1.7 20.5-1.9 5.8-2.6 7-4.9 4.4-8.7-1-1.6-1.9-3.9-1.9-5.1 0-3.7-5-6.9-7.3-4.6zM748 1150.4c-10.1 2.2-23.1 5.6-44.5 11.7-5.5 1.5-13.4 3-17.5 3.3-4.1.3-12.4 1.9-18.5 3.5-49.8 13-57.8 15.5-61.2 18.3-1.8 1.5-1.6 2.5.8 4.9 1.8 1.8 2.8 2 7.7 1.4 3.1-.4 11.7-2.4 19.2-4.5 17.7-4.9 20.3-5.5 34.7-8 15.9-2.7 31.4-6.6 52.6-13.4 9.5-3 23.1-6.8 30.3-8.5 18.8-4.3 24.5-7.6 17.8-10.1-3.8-1.5-9.8-1.1-21.4 1.4zM868.5 1154.2c-3.2 1.1-20.6 8.9-32 14.3-3.8 1.8-12.9 4.9-20.1 6.9-20.9 5.6-26.8 8.6-23.6 11.8 3.5 3.5 21.4-.5 34.3-7.6 6.7-3.7 15.2-5.6 24.9-5.6 3.9 0 5.1.3 4.3 1.1-1.3 1.3-27.1 11.9-29 11.9-.8 0-4.9 1.5-9.1 3.2-4.2 1.8-14.4 5.5-22.7 8.3-14.8 4.9-15 5-15 8 0 7 12 5.5 36.8-4.5 8.3-3.4 20.2-8 26.2-10.2 6.1-2.2 13.6-5.4 16.9-7l5.9-3-.7-6.4c-.6-6.3-.6-6.4 2.1-7.5 9.2-3.6 12.8-7.2 12.1-12.2-.2-1.8-1-2.2-4.3-2.4-2.2-.1-5.3.3-7 .9zM733 1180.5c-6.1 1.2-13.2 3-43 10.8-12.2 3.2-12.5 3.3-12.8 6.2-.3 2.4.3 3.6 2.8 5.6l3.1 2.7-6.8 2c-8.4 2.6-11.5 4.7-11.1 7.4.5 3.2 3.7 3.7 11.8 1.7 13.8-3.3 22-2.2 22 3.1 0 2.8 1.6 3.3 4.4 1.5 2.4-1.6 2.9-1.5 8.6.4 7.3 2.5 8.4 2.3 21.5-3.9 5.5-2.6 14.3-6.2 19.5-8 11.9-4 17-6.8 17-9.2 0-4.4-7.2-4.1-22.4.8-7.4 2.4-9.9 2.7-28.8 3.2-22.7.5-29.8-.1-29.8-2.4s4.9-3.9 29-9.3c23-5.2 33.2-8.9 33.8-12.4.3-1.5-.5-1.7-6-1.6-3.5 0-9.2.7-12.8 1.4zM527.8 1190.4c-5 1.3-9.8 4.1-9.8 5.6 0 1.9 4.3 3.2 8.4 2.6 5-.8 10.6-4 10.6-6.1 0-1.2-3-3.7-4.2-3.4-.2 0-2.4.6-5 1.3zM636.1 1198.1c-6.2 1.5-17.3 3.8-24.5 4.9-7.2 1.2-17.6 2.8-23.1 3.7-5.5.8-12.5 2.3-15.5 3.3-7 2.4-9.9 2.7-30 4-9.1.6-18.2 1.5-20.2 2.1-4.3 1.1-5.9 4.2-3.4 6.8 1.5 1.4 4.4 1.6 21.9 1.5 18.3-.1 22.3-.5 42.2-3.9 27.5-4.6 34.3-6.2 54.1-13.1 16.4-5.6 22.7-9.3 19.4-11.4-2.5-1.6-8.9-.9-20.9 2.1zM679 1225.9c-9.8 2.1-19.3 5.9-18.7 7.5.6 1.6 11.6.9 21.6-1.4 8.6-2.1 15.1-5 15.1-7 0-1.5-8.4-1.1-18 .9zM418 1232.7c-9.2.6-29 3.2-30 3.8-1.5.9-1.2 4.1.5 5.5 2.8 2.3 57.9-.3 65-3 3.1-1.2 3.2-3.5.3-5.2-2.3-1.2-24.5-2-35.8-1.1zM596.5 1236.1c-25.6 1.6-39.9 3.8-43.7 6.9-2.1 1.7-2.1 1.8-.5 4.4 1.2 1.8 2.6 2.6 4.5 2.6 4.4 0 46-4 53.2-5.1 13.6-2.1 23.3-6 21.6-8.8-.8-1.3-14.5-1.3-35.1 0z"/></g></svg>